<?xml version="1.0" standalone="no"?><!DOCTYPE svg PUBLIC "-//W3C//DTD SVG 1.1//EN" "http://www.w3.org/Graphics/SVG/1.1/DTD/svg11.dtd" ><svg xmlns="http://www.w3.org/2000/svg"><metadata>Generated by Glyphter</metadata><defs><font id="Strongs.de" horiz-adv-x="1024"><font-face units-per-em="1024" ascent="1024" descent="0" font-family="Strongs.de" font-weight="normal" /><missing-glyph horiz-adv-x="1024" /><glyph unicode="&#x0041;" d="M512,800C321.184,800,160,697.408,160,576C160,567.168,167.168,560,176,560C184.832,560,192,567.168,192,576C192,678.272,341.536,768,512,768C520.8,768,528,775.168,528,784C528,792.832,520.832,800,512,800C512,800,512,800,512,800M512,960C229.216,960,0,788.064,0,576C0,443.936,88.928,327.488,224.256,258.368C224.256,257.504,224,256.928,224,256C224,198.624,181.152,136.864,162.304,104.448C162.336,104.448,162.368,104.448,162.368,104.448C160.864,100.928,160,97.056,160,92.992C160,76.992,172.96,64,188.992,64C192,64,197.28,64.8,197.152,64.448C297.152,80.832,391.36,172.704,413.248,199.328C445.216,194.624,478.176,192,512,192C794.72,192,1024,363.936,1024,576C1024,788.064,794.752,960,512,960C512,960,512,960,512,960M512,256C482.656,256,452.544,258.24,422.528,262.624C419.424,263.136,416.32,263.296,413.248,263.296C394.24,263.296,376.032,254.848,363.776,239.936C350.08,223.264,311.104,186.048,265.056,158.688C277.536,187.328,287.296,219.424,287.968,252.512C288.16,254.56,288.256,256.64,288.256,258.4C288.256,282.464,274.784,304.448,253.376,315.392C134.784,375.936,64,473.376,64,576C64,752.448,264.96,896,512,896C758.976,896,960,752.448,960,576C960,399.552,759.008,256,512,256C512,256,512,256,512,256" /><glyph unicode="&#x0042;" d="M938.688,928C938.688,928,800,928,800,928C800,928,800,992,800,992C800,1009.696,785.696,1024,768,1024C750.304,1024,736,1009.696,736,992C736,992,736,928,736,928C736,928,544,928,544,928C544,928,544,992,544,992C544,1009.696,529.664,1024,512,1024C494.336,1024,480,1009.696,480,992C480,992,480,928,480,928C480,928,288,928,288,928C288,928,288,992,288,992C288,1009.696,273.664,1024,256,1024C238.336,1024,224,1009.696,224,992C224,992,224,928,224,928C224,928,85.344,928,85.344,928C38.208,928,0,889.824,0,842.688C0,842.688,0,85.344,0,85.344C0,38.208,38.208,0,85.344,0C85.344,0,938.688,0,938.688,0C985.824,0,1024,38.208,1024,85.344C1024,85.344,1024,842.688,1024,842.688C1024,889.824,985.824,928,938.688,928C938.688,928,938.688,928,938.688,928M960,85.344C960,73.568,950.432,64,938.688,64C938.688,64,85.344,64,85.344,64C73.568,64,64,73.568,64,85.344C64,85.344,64,842.688,64,842.688C64,854.432,73.568,864,85.344,864C85.344,864,224,864,224,864C224,864,224,800,224,800C224,782.304,238.336,768,256,768C273.664,768,288,782.304,288,800C288,800,288,864,288,864C288,864,480,864,480,864C480,864,480,800,480,800C480,782.304,494.336,768,512,768C529.664,768,544,782.304,544,800C544,800,544,864,544,864C544,864,736,864,736,864C736,864,736,800,736,800C736,782.304,750.304,768,768,768C785.696,768,800,782.304,800,800C800,800,800,864,800,864C800,864,938.688,864,938.688,864C950.432,864,960,854.432,960,842.688C960,842.688,960,85.344,960,85.344C960,85.344,960,85.344,960,85.344M224,640C224,640,224,544,224,544C224,544,352,544,352,544C352,544,352,640,352,640C352,640,224,640,224,640M224,480C224,480,224,384,224,384C224,384,352,384,352,384C352,384,352,480,352,480C352,480,224,480,224,480M224,320C224,320,224,224,224,224C224,224,352,224,352,224C352,224,352,320,352,320C352,320,224,320,224,320M448,320C448,320,448,224,448,224C448,224,576,224,576,224C576,224,576,320,576,320C576,320,448,320,448,320M448,480C448,480,448,384,448,384C448,384,576,384,576,384C576,384,576,480,576,480C576,480,448,480,448,480M448,640C448,640,448,544,448,544C448,544,576,544,576,544C576,544,576,640,576,640C576,640,448,640,448,640M672,320C672,320,672,224,672,224C672,224,800,224,800,224C800,224,800,320,800,320C800,320,672,320,672,320M672,480C672,480,672,384,672,384C672,384,800,384,800,384C800,384,800,480,800,480C800,480,672,480,672,480M672,640C672,640,672,544,672,544C672,544,800,544,800,544C800,544,800,640,800,640C800,640,672,640,672,640" /><glyph unicode="&#x0043;" d="M512,1024C317.568,1024,160,866.432,160,672C160,543.008,278.016,406.304,320.992,286.24C385.088,107.2,377.984,0,512,0C648,0,638.88,106.688,703.008,285.504C746.112,405.824,864,544,864,672C864,866.432,706.368,1024,512,1024C512,1024,512,1024,512,1024M594.944,154.368C594.944,154.368,436.288,134.56,436.288,134.56C430.624,150.944,424.544,170.112,417.152,195.136C417.056,195.456,416.928,195.808,416.864,196.128C416.864,196.128,614.88,220.864,614.88,220.864C612.064,211.424,609.056,201.504,606.432,192.608C602.24,178.24,598.496,165.76,594.944,154.368C594.944,154.368,594.944,154.368,594.944,154.368M407.552,226.944C401.728,246.208,395.168,266.496,387.872,288C387.872,288,636.384,288,636.384,288C632.448,276.512,628.512,264.992,625.12,254.112C625.12,254.112,407.552,226.944,407.552,226.944C407.552,226.944,407.552,226.944,407.552,226.944M512,64C479.584,64,464.672,67.744,448.096,104C448.096,104,583.712,120.992,583.712,120.992C564.064,68.064,549.76,64,512,64C512,64,512,64,512,64M661.504,352C661.504,352,362.848,352,362.848,352C346.912,386.56,327.776,421.12,308.896,454.944C267.136,529.664,224,606.944,224,672C224,830.816,353.184,960,512,960C670.816,960,800,830.816,800,672C800,607.424,756.8,529.728,715.008,454.56C696.32,420.864,677.312,386.368,661.504,352C661.504,352,661.504,352,661.504,352M512,864C406.112,864,320,777.888,320,672C320,663.168,327.168,656,336,656C344.832,656,352,663.168,352,672C352,760.224,423.776,832,512,832C520.832,832,528,839.168,528,848C528,856.832,520.8,864,512,864C512,864,512,864,512,864" /><glyph unicode="&#x0044;" d="M939.619,891.62C827.173,1004.13,644.809,1004.13,532.364,891.62C532.364,891.62,65.495,430.287,65.495,430.287C-21.832,342.961,-21.832,200.821,65.495,113.495C152.821,26.168,294.929,26.168,382.223,113.495C382.223,113.495,849.092,574.86,849.092,574.86C911.587,637.354,911.587,738.632,849.092,801.127C786.597,863.589,685.288,863.589,622.857,801.127C622.857,801.127,271.89,450.158,271.89,450.158C259.378,437.615,259.378,417.423,271.89,404.879C284.402,392.367,304.625,392.367,317.137,404.879C317.137,404.879,668.137,755.88,668.137,755.88C705.576,793.287,766.439,793.287,803.877,755.88C841.316,718.44,841.316,657.546,803.877,620.106C803.877,620.106,337.009,158.774,337.009,158.774C274.514,96.279,173.269,96.279,110.774,158.774C48.279,221.237,48.279,322.546,110.774,385.009C110.774,385.009,573.066,841.861,573.066,841.861C660.553,929.348,802.437,929.348,889.795,841.861C977.346,754.344,977.346,612.586,889.859,525.101C889.859,525.101,543.436,178.645,543.436,178.645C530.86,166.102,530.86,145.91,543.436,133.398C555.948,120.854,576.17,120.854,588.682,133.398C588.682,133.398,939.619,484.366,939.619,484.366C1052.127,596.812,1052.127,779.175,939.619,891.62C939.619,891.62,939.619,891.62,939.619,891.62" /><glyph unicode="&#x0045;" d="M829.242,619.439C815.258,765.459,693.686,880.023,543.985,880.023C428.173,880.023,329.034,811.284,283.305,712.658C269.545,717.01,255.208,720.018,240.008,720.018C160.485,720.018,96.003,655.503,96.003,576.014C96.003,560.205,99.171,545.261,103.876,531.084C42.017,495.02,0,428.841,0,352.07C0,237.187,93.123,144.064,208.006,144.064C208.006,144.064,208.006,144,208.006,144C208.006,144,783.992,144,783.992,144C783.992,144,783.992,144.064,783.992,144.064C916.572,144.064,1024,251.492,1024,384.072C1024,501.068,940.125,598.254,829.242,619.439C829.242,619.439,829.242,619.439,829.242,619.439M783.992,208.067C783.992,208.067,783.992,208.003,783.992,208.003C783.992,208.003,208.006,208.003,208.006,208.003C128.612,208.067,64.003,272.644,64.003,352.07C64.003,403.272,90.979,449.513,136.132,475.818C180.005,501.004,183.013,505.996,164.613,551.245C161.509,560.557,160.005,568.653,160.005,575.982C160.005,620.111,195.878,655.983,240.008,655.983C240.008,655.983,261,657.489,283.305,648.623C320.01,633.999,324.01,647.983,341.354,685.713C378.06,764.851,457.582,816.02,543.985,816.02C659.188,816.02,754.423,728.882,765.56,613.326C769.496,567.501,769.496,567.501,817.242,556.589C899.996,540.781,959.997,468.202,959.997,384.072C959.997,287.012,881.052,208.067,783.992,208.067C783.992,208.067,783.992,208.067,783.992,208.067" /><glyph unicode="&#x0046;" d="M512,1024C296.192,1024,64,958.944,64,816C64,816,64,208,64,208C64,65.12,296.192,0,512,0C727.776,0,960,65.12,960,208C960,208,960,816,960,816C960,958.944,727.744,1024,512,1024C512,1024,512,1024,512,1024M896,208C896,128.512,724.064,64,512,64C299.904,64,128,128.512,128,208C128,208,128,327.552,128,327.552C194.112,259.424,353.6,224,512,224C670.4,224,829.888,259.424,896,327.552C896,327.552,896,208,896,208C896,208,896,208,896,208M896,400C896,400,895.872,400,895.872,400C895.872,399.68,896,399.328,896,399.008C896,320,724.064,256,512,256C299.936,256,128,320,128,399.008C128,399.328,128.128,399.68,128.128,400C128.128,400,128,400,128,400C128,400,128,519.552,128,519.552C194.112,451.424,353.6,416,512,416C670.4,416,829.888,451.424,896,519.552C896,519.552,896,400,896,400C896,400,896,400,896,400M896,592C896,592,895.872,592,895.872,592C895.872,591.68,896,591.328,896,591.008C896,512,724.064,448,512,448C299.936,448,128,512,128,591.008C128,591.328,128.128,591.68,128.128,592C128.128,592,128,592,128,592C128,592,128,701.952,128,701.952C211.872,638.048,365.6,608,512,608C658.4,608,812.128,638.048,896,701.952C896,701.952,896,592,896,592C896,592,896,592,896,592M512,672C299.904,672,128,736.512,128,816C128,895.552,299.904,960,512,960C724.064,960,896,895.552,896,816C896,736.512,724.064,672,512,672C512,672,512,672,512,672M768,192C768,167.36,794.656,151.968,816,164.288C825.888,170.016,832,180.576,832,192C832,216.64,805.344,232.032,784,219.712C774.112,213.984,768,203.424,768,192M768,384C768,359.36,794.656,343.968,816,356.288C825.888,362.016,832,372.576,832,384C832,408.64,805.344,424.032,784,411.712C774.112,405.984,768,395.424,768,384M768,576C768,551.36,794.656,535.968,816,548.288C825.888,554.016,832,564.576,832,576C832,600.64,805.344,616.032,784,603.712C774.112,597.984,768,587.424,768,576" /><glyph unicode="&#x0047;" d="M51.2,768.4C51.2,768.4,972.8,768.4,972.8,768.4C1001.062,768.4,1024,791.338,1024,819.6C1024,847.862,1001.062,870.8,972.8,870.8C972.8,870.8,51.2,870.8,51.2,870.8C22.938,870.8,0,847.862,0,819.6C0,791.338,22.938,768.4,51.2,768.4C51.2,768.4,51.2,768.4,51.2,768.4M972.8,666C972.8,666,51.2,666,51.2,666C22.938,666,0,643.062,0,614.8C0,586.538,22.938,563.6,51.2,563.6C51.2,563.6,972.8,563.6,972.8,563.6C1001.062,563.6,1024,586.538,1024,614.8C1024,643.062,1001.062,666,972.8,666C972.8,666,972.8,666,972.8,666M972.8,461.2C972.8,461.2,51.2,461.2,51.2,461.2C22.938,461.2,0,438.262,0,410C0,381.738,22.938,358.8,51.2,358.8C51.2,358.8,972.8,358.8,972.8,358.8C1001.062,358.8,1024,381.738,1024,410C1024,438.262,1001.062,461.2,972.8,461.2C972.8,461.2,972.8,461.2,972.8,461.2M972.8,256.4C972.8,256.4,51.2,256.4,51.2,256.4C22.938,256.4,0,233.462,0,205.2C0,176.938,22.938,154,51.2,154C51.2,154,972.8,154,972.8,154C1001.062,154,1024,176.938,1024,205.2C1024,233.462,1001.062,256.4,972.8,256.4C972.8,256.4,972.8,256.4,972.8,256.4" /><glyph unicode="&#x0048;" d="M1022.879,519.287C1022.557,520.632,1022.751,522.075,1022.237,523.388C1022.045,523.933,1021.564,524.221,1021.372,524.735C1021.052,525.504,1021.116,526.369,1020.699,527.105C927.766,704.993,725.459,832.44,512.032,832.44C298.573,832.44,96.298,705.185,3.301,527.331C2.884,526.593,2.948,525.728,2.628,524.959C2.404,524.445,1.955,524.157,1.763,523.612C1.249,522.299,1.443,520.856,1.121,519.511C0.545,517.107,0,514.801,0,512.333C0,509.865,0.577,507.589,1.121,505.155C1.443,503.808,1.249,502.367,1.763,501.052C1.955,500.507,2.436,500.219,2.628,499.707C2.948,498.938,2.884,498.072,3.301,497.335C96.266,319.447,298.573,192,512.032,192C725.459,192,927.766,319.255,1020.699,497.111C1021.148,497.847,1021.084,498.712,1021.372,499.482C1021.564,499.995,1022.045,500.283,1022.237,500.828C1022.751,502.141,1022.557,503.584,1022.879,504.929C1023.423,507.365,1024,509.673,1024,512.108C1024,514.543,1023.423,516.883,1022.879,519.287C1022.879,519.287,1022.879,519.287,1022.879,519.287M512,256.124C332.061,256.124,155.904,358.383,68.131,512.333C156.385,666.474,332.285,768.38,512,768.38C691.875,768.38,868.064,666.089,955.837,512.173C867.583,357.998,691.715,256.124,512,256.124C512,256.124,512,256.124,512,256.124M512,640.324C511.936,640.324,511.872,640.292,511.808,640.292C441.146,640.164,383.88,582.898,383.88,512.237C383.88,503.392,391.058,496.214,399.903,496.214C408.716,496.214,415.894,503.392,415.894,512.237C415.894,565.176,458.995,608.279,512,608.279C512,608.279,512,608.311,512,608.311C520.813,608.311,527.959,615.489,527.959,624.301C527.959,633.178,520.845,640.324,512,640.324C512,640.324,512,640.324,512,640.324M511.263,736.43C387.341,736.43,286.94,635.999,286.94,512.108C286.94,388.218,387.373,287.786,511.263,287.786C635.121,287.786,735.585,388.25,735.585,512.108C735.585,636.031,635.121,736.43,511.263,736.43C511.263,736.43,511.263,736.43,511.263,736.43M511.263,319.832C405.222,319.832,318.986,406.067,318.986,512.108C318.986,618.149,405.222,704.384,511.263,704.384C617.303,704.384,703.539,618.149,703.539,512.108C703.539,406.067,617.303,319.832,511.263,319.832C511.263,319.832,511.263,319.832,511.263,319.832" /><glyph unicode="&#x0049;" d="M934.153,871.618C818.011,986.704,632.293,989.105,511.99,880.835C391.656,989.105,206.001,986.704,89.795,871.618C-29.932,753.076,-29.932,560.892,89.795,442.286C124.006,408.394,443.534,92.132,443.534,92.132C481.394,54.623,542.618,54.623,580.447,92.132C580.447,92.132,930.313,438.477,934.185,442.286C1053.944,560.892,1053.944,753.076,934.153,871.618C934.153,871.618,934.153,871.618,934.153,871.618M888.548,487.475C888.548,487.475,534.809,137.321,534.809,137.321C522.231,124.808,501.717,124.808,489.203,137.321C489.203,137.321,135.465,487.475,135.465,487.475C41.053,580.927,41.053,732.977,135.465,826.429C226.483,916.52,372.805,919.688,468.593,833.534C468.593,833.534,511.99,794.489,511.99,794.489C511.99,794.489,555.355,833.534,555.355,833.534C651.175,919.688,797.497,916.552,888.516,826.429C982.928,733.009,982.928,580.959,888.548,487.475C888.548,487.475,888.548,487.475,888.548,487.475M295.996,800.058C295.932,800.058,295.932,800.026,295.868,800.026C220.819,799.962,159.98,739.122,159.98,664.041C159.98,664.041,159.98,664.041,159.98,664.041C159.98,655.208,167.149,648.039,175.981,648.039C184.814,648.039,191.983,655.208,191.983,664.041C191.983,664.041,191.983,664.073,191.983,664.073C191.983,721.488,238.549,768.054,295.964,768.054C295.964,768.054,295.996,768.054,295.996,768.054C304.83,768.054,311.998,775.222,311.998,784.055C311.998,792.889,304.862,800.058,295.996,800.058C295.996,800.058,295.996,800.058,295.996,800.058" /><glyph unicode="&#x004A;" d="M704.04,1024.372C527.327,1024.372,384.079,881.094,384.079,704.412C384.079,663.297,392.687,624.39,406.893,588.299C406.893,588.299,18.173,199.612,18.173,199.612C6.943,188.349,0,177.662,0,160.48C0,160.48,0,64.492,0,64.492C0,30.256,29.724,0.5,63.992,0.5C63.992,0.5,159.98,0.5,159.98,0.5C177.13,0.5,187.977,7.379,199.208,18.545C199.208,18.545,245.121,64.492,245.121,64.492C245.121,64.492,320.088,64.492,320.088,64.492C355.411,64.492,384.079,93.16,384.079,128.485C384.079,128.485,384.079,192.476,384.079,192.476C384.079,192.476,448.072,192.476,448.072,192.476C483.396,192.476,512.064,221.144,512.064,256.468C512.064,256.468,512.064,331.467,512.064,331.467C512.064,331.467,587.863,407.329,587.863,407.329C623.986,393.091,662.861,384.453,704.04,384.453C880.69,384.453,1024,527.731,1024,704.412C1024,881.094,880.69,1024.372,704.04,1024.372C704.04,1024.372,704.04,1024.372,704.04,1024.372M704.04,448.444C656.686,448.444,612.787,462.202,574.744,484.664C574.744,484.664,563.738,473.689,563.738,473.689C563.738,473.689,527.741,437.693,527.741,437.693C527.741,437.693,466.789,376.709,466.789,376.709C454.792,364.71,448.04,348.456,448.04,331.467C448.04,331.467,448.04,256.468,448.04,256.468C448.04,256.468,384.047,256.468,384.047,256.468C348.724,256.468,320.056,227.832,320.056,192.476C320.056,192.476,320.056,128.485,320.056,128.485C320.056,128.485,245.121,128.485,245.121,128.485C228.164,128.485,211.877,121.733,199.878,109.734C199.878,109.734,154.509,64.364,154.509,64.364C154.509,64.364,64.088,64.492,64.088,64.492C64.088,64.492,63.992,155.681,63.992,155.681C63.992,155.681,437.225,528.241,437.225,528.241C437.225,528.241,437.225,528.209,437.257,528.177C437.257,528.177,484.26,575.18,484.26,575.18C461.798,613.223,448.04,657.09,448.04,704.444C448.04,845.802,562.682,960.412,704.008,960.412C845.334,960.412,959.976,845.802,959.976,704.444C959.976,563.086,845.398,448.444,704.04,448.444C704.04,448.444,704.04,448.444,704.04,448.444M890.129,760.757C854.262,810.735,810.587,854.346,760.385,890.469C752.227,896.389,741.668,897.859,732.164,894.533C687.722,878.886,657.294,848.49,641.743,804.048C640.559,800.72,639.985,797.264,639.985,793.841C639.985,787.473,641.967,781.171,645.807,775.827C681.802,725.785,725.413,682.142,775.487,646.147C783.677,640.261,794.172,638.757,803.676,642.051C848.182,657.602,878.61,688.062,894.225,732.537C895.409,735.864,895.985,739.32,895.985,742.744C895.953,749.111,893.937,755.413,890.129,760.757C890.129,760.757,890.129,760.757,890.129,760.757M794.14,672.096C746.851,706.108,705.672,747.287,671.916,793.457C684.298,828.748,707.464,851.914,741.732,864.52C789.053,830.444,830.168,789.361,863.828,742.584C851.318,707.548,828.216,684.51,794.14,672.096C794.14,672.096,794.14,672.096,794.14,672.096" /><glyph unicode="&#x004B;" d="M197.009,196.929C197.009,207.578,193.115,216.813,185.328,224.635C177.54,232.456,168.305,236.351,157.624,236.316C146.941,236.282,137.707,232.388,129.919,224.635C122.132,216.881,118.238,207.647,118.238,196.929C118.238,186.213,122.132,176.978,129.919,169.225C137.707,161.472,146.941,157.578,157.624,157.544C168.305,157.509,177.54,161.403,185.328,169.225C193.115,177.047,197.009,186.282,197.009,196.929C197.009,196.929,197.009,196.929,197.009,196.929M905.887,551.369C905.887,572.285,897.894,590.651,881.904,606.433C865.915,622.216,847.652,630.106,827.149,630.14C827.149,630.14,610.544,630.14,610.544,630.14C610.544,653.951,620.4,686.652,640.075,728.278C659.751,769.903,669.606,802.812,669.606,827.036C669.606,867.249,663.06,896.987,649.931,916.248C636.802,935.511,610.544,945.16,571.158,945.16C560.511,934.511,552.689,917.075,547.761,892.851C542.833,868.627,536.562,842.886,528.981,815.63C521.401,788.374,509.202,765.907,492.352,748.264C483.325,738.822,467.542,720.146,444.972,692.269C443.353,690.236,438.632,684.068,430.81,673.8C422.988,663.53,416.543,655.123,411.409,648.576C406.275,642.029,399.211,633.311,390.183,622.422C381.155,611.533,372.954,602.505,365.58,595.338C358.206,588.17,350.315,580.9,341.872,573.491C333.43,566.083,325.229,560.57,317.269,556.882C309.309,553.196,302.004,551.369,295.422,551.334C295.422,551.334,275.747,551.334,275.747,551.334C275.747,551.334,275.747,157.509,275.747,157.509C275.747,157.509,295.422,157.509,295.422,157.509C300.763,157.509,307.207,156.89,314.823,155.648C322.438,154.408,329.192,153.064,335.119,151.652C341.045,150.239,348.832,147.964,358.516,144.897C368.199,141.83,375.366,139.453,380.052,137.833C384.739,136.214,392.009,133.629,401.899,130.149C411.788,126.669,417.716,124.498,419.748,123.671C506.308,93.727,576.465,78.738,630.185,78.738C630.185,78.738,704.651,78.738,704.651,78.738C783.422,78.738,822.808,112.989,822.808,181.492C822.808,192.14,821.775,203.649,819.742,215.951C832.043,222.532,841.795,233.284,848.962,248.273C856.13,263.263,859.712,278.321,859.747,293.517C859.782,308.713,856.095,322.84,848.687,335.969C870.43,356.472,881.284,380.904,881.284,409.193C881.284,419.428,879.217,430.833,875.116,443.342C871.015,455.85,865.881,465.601,859.747,472.562C872.876,472.975,883.834,482.624,892.656,501.473C901.476,520.321,905.887,536.931,905.887,551.3C905.887,551.3,905.887,551.369,905.887,551.369M984.66,551.988C984.66,515.497,974.598,482.039,954.508,451.68C958.196,438.139,960.056,424.01,960.056,409.228C960.056,377.629,952.268,348.099,936.658,320.635C937.899,312.02,938.52,303.2,938.52,294.171C938.52,252.718,926.217,216.227,901.615,184.628C902.028,127.599,884.592,82.597,849.306,49.551C814.022,16.506,767.468,0,709.612,0C709.612,0,630.22,0,630.22,0C590.834,0,551.965,4.617,513.613,13.852C475.261,23.087,430.843,36.526,380.397,54.168C332.809,70.57,304.519,78.772,295.491,78.772C295.491,78.772,118.272,78.772,118.272,78.772C96.529,78.772,77.99,86.456,62.587,101.859C47.184,117.262,39.5,135.8,39.5,157.544C39.5,157.544,39.5,551.369,39.5,551.369C39.5,573.112,47.184,591.651,62.587,607.054C77.99,622.456,96.529,630.14,118.272,630.14C118.272,630.14,286.877,630.14,286.877,630.14C301.659,639.996,329.743,671.8,371.162,725.522C394.973,756.293,416.923,782.55,437.012,804.293C446.868,814.528,454.138,832.067,458.859,856.911C463.579,881.756,469.817,907.703,477.639,934.753C485.461,961.802,498.175,983.959,515.784,1001.222C531.773,1016.419,550.242,1024,571.158,1024C605.617,1024,636.594,1017.349,664.058,1004.014C691.522,990.679,712.438,969.866,726.808,941.541C741.177,913.216,748.344,875.071,748.344,827.105C748.344,788.959,738.489,749.573,718.813,708.947C718.813,708.947,827.116,708.947,827.116,708.947C869.775,708.947,906.68,693.372,937.864,662.188C969.05,631.002,984.625,594.304,984.625,552.058C984.625,552.058,984.66,551.988,984.66,551.988" /><glyph unicode="&#x004C;" d="M512.064,456.128C617.952,456.128,704.064,542.272,704.064,648.128C704.064,753.984,617.952,840.128,512.064,840.128C406.176,840.128,320.064,754.016,320.064,648.128C320.064,542.24,406.176,456.128,512.064,456.128C512.064,456.128,512.064,456.128,512.064,456.128M512.064,808.128C600.32,808.128,672.064,736.384,672.064,648.128C672.064,559.872,600.32,488.128,512.064,488.128C423.808,488.128,352.064,559.872,352.064,648.128C352.064,736.384,423.808,808.128,512.064,808.128C512.064,808.128,512.064,808.128,512.064,808.128M512,1024C300.224,1024,128,853.888,128,639.968C128,415.968,320.032,186.816,460.032,25.76C460.544,25.12,483.008,0,510.784,0C510.848,0,513.12,0,513.248,0C540.992,0,563.488,25.12,564,25.76C704.064,186.816,896.064,415.936,896.064,639.968C896.064,853.888,723.808,1024,512,1024C512,1024,512,1024,512,1024M515.744,67.744C515.072,67.104,513.12,65.696,511.424,64.608C511.104,65.472,508.736,67.36,507.296,68.864C390.016,203.808,192,431.552,192,639.968C192,816.416,335.584,960,512,960C688.512,960,832.064,816.416,832.064,639.936C832.064,431.552,634.048,203.808,515.744,67.744C515.744,67.744,515.744,67.744,515.744,67.744" /><glyph unicode="&#x004D;" d="M800,608C800,608,800,736,800,736C800,895.072,671.072,1024,512,1024C352.928,1024,224,895.072,224,736C224,736,224,608,224,608C170.976,608,128,565.024,128,512C128,512,128,416,128,416C128,416,128,384,128,384C128,384,128,320,128,320C128,320,128,288,128,288C128,128.928,256.928,0,416,0C416,0,608,0,608,0C767.072,0,896,128.928,896,288C896,288,896,320,896,320C896,320,896,384,896,384C896,384,896,416,896,416C896,416,896,512,896,512C896,565.056,852.992,608,800,608C800,608,800,608,800,608M288,736C288,859.712,388.288,960,512,960C635.712,960,736,859.712,736,736C736,736,736,608,736,608C736,608,672,608,672,608C672,608,672,735.936,672,735.936C672,824.32,600.384,895.936,512,895.936C423.616,895.936,352,824.32,352,735.936C352,735.936,352,608,352,608C352,608,288,608,288,608C288,608,288,736,288,736C288,736,288,736,288,736M640,736C640,736,640,735.904,640,735.904C640,735.904,640,608,640,608C640,608,384,608,384,608C384,608,384,735.936,384,735.936C384,735.936,384,736,384,736C384,806.688,441.312,864,512,864C582.688,864,640,806.688,640,736C640,736,640,736,640,736M832,416C832,416,832,384,832,384C832,384,832,320,832,320C832,320,832,288,832,288C832,164.512,731.488,64,608,64C608,64,416,64,416,64C292.512,64,192,164.512,192,288C192,288,192,320,192,320C192,320,192,384,192,384C192,384,192,416,192,416C192,416,192,512,192,512C192,529.664,206.336,544,224,544C245.344,544,266.656,544,288,544C288,544,736,544,736,544C757.312,544,778.624,544,800,544C817.632,544,832,529.664,832,512C832,512,832,416,832,416C832,416,832,416,832,416M512,416C476.672,416,448,387.36,448,352C448,332.576,458.656,295.68,469.344,266.496C478.048,242.752,488.992,224.064,512,224.064C537.024,224.064,545.952,242.56,554.688,266.176C565.504,295.424,576,332.512,576,352C576,387.36,547.328,416,512,416C512,416,512,416,512,416" /><glyph unicode="&#x004E;" d="M896,848C896,848,128,848,128,848C57.312,848,0,790.656,0,720C0,720,0,304,0,304C0,233.312,57.312,176,128,176C128,176,896,176,896,176C966.688,176,1024,233.312,1024,304C1024,304,1024,720,1024,720C1024,790.656,966.688,848,896,848C896,848,896,848,896,848M64,680C64,680,287.968,512,287.968,512C287.968,512,64,344,64,344C64,344,64,680,64,680C64,680,64,680,64,680M960,304C960,268.672,931.264,240,896,240C896,240,128,240,128,240C92.704,240,64,268.672,64,304C64,304,314.624,492,314.624,492C314.624,492,454.4,387.136,454.4,387.136C471.456,374.4,491.712,367.936,512,367.936C532.256,367.936,552.512,374.368,569.568,387.136C569.568,387.136,709.376,492,709.376,492C709.376,492,960,304,960,304C960,304,960,304,960,304C960,304,960,304,960,304M960,344C960,344,736,512,736,512C736,512,960,680,960,680C960,680,960,344,960,344C960,344,960,344,960,344M550.368,412.736C539.2,404.352,525.952,399.936,512,399.936C498.048,399.936,484.768,404.384,473.6,412.736C473.6,412.736,341.28,512,341.28,512C341.28,512,314.624,532,314.624,532C314.624,532,64,719.968,64,719.968C64,719.968,64,720,64,720C64,755.296,92.704,784,128,784C128,784,896,784,896,784C931.264,784,960,755.296,960,720C960,720,550.368,412.736,550.368,412.736C550.368,412.736,550.368,412.736,550.368,412.736" /><glyph unicode="&#x004F;" d="M1009.838,1018.88C1004.526,1022.304,998.478,1024,992.462,1024C986.286,1024,980.079,1022.24,974.703,1018.624C974.703,1018.624,14.733,378.644,14.733,378.644C4.845,372.084,-0.595,360.532,0.685,348.692C1.901,336.886,9.581,326.678,20.621,322.326C20.621,322.326,270.981,222.138,270.981,222.138C270.981,222.138,388.705,16.128,388.705,16.128C394.337,6.24,404.801,0.128,416.128,0C416.256,0,416.352,0,416.48,0C427.712,0,438.144,5.952,443.904,15.552C443.904,15.552,510.366,126.364,510.366,126.364C510.366,126.364,820.595,2.304,820.595,2.304C824.403,0.768,828.403,0.032,832.467,0.032C837.907,0.032,843.283,1.408,848.147,4.16C856.595,8.896,862.386,17.216,864.018,26.783C864.018,26.783,1024.013,986.753,1024.013,986.753C1026.093,999.329,1020.526,1011.936,1009.838,1018.88C1009.838,1018.88,1009.838,1018.88,1009.838,1018.88M100.842,359.156C100.842,359.156,842.419,853.573,842.419,853.573C842.419,853.573,303.236,276.407,303.236,276.407C300.388,278.103,297.86,280.343,294.724,281.591C294.724,281.591,100.842,359.156,100.842,359.156C100.842,359.156,100.842,359.156,100.842,359.156M326.531,253.912C326.467,254.04,326.371,254.104,326.307,254.232C326.307,254.232,932.465,903.012,932.465,903.012C932.465,903.012,415.712,97.853,415.712,97.853C415.712,97.853,326.531,253.912,326.531,253.912C326.531,253.912,326.531,253.912,326.531,253.912M807.413,76.541C807.413,76.541,534.108,185.85,534.108,185.85C527.614,188.41,520.862,189.274,514.174,189.658C514.174,189.658,935.025,842.053,935.025,842.053C935.025,842.053,807.413,76.541,807.413,76.541C807.413,76.541,807.413,76.541,807.413,76.541" /><glyph unicode="&#x0050;" d="M256,831.328C256,831.328,256,928,256,928C256,980.928,212.928,1024,160,1024C107.072,1024,64,980.928,64,928C64,928,64,831.328,64,831.328C25.344,802.048,0,756.192,0,704C0,651.808,25.344,605.952,64,576.736C64,576.736,64,96,64,96C64,43.072,107.072,0,160,0C212.928,0,256,43.072,256,96C256,96,256,576.736,256,576.736C294.656,605.92,320,651.808,320,704C320,756.192,294.656,802.048,256,831.328C256,831.328,256,831.328,256,831.328M128,928C128,945.696,142.304,960,160,960C177.696,960,192,945.696,192,928C192,928,192,860.8,192,860.8C181.664,862.88,170.976,864,160,864C149.024,864,138.336,862.88,128,860.8C128,860.8,128,928,128,928C128,928,128,928,128,928M192,96C192,78.304,177.696,64,160,64C142.304,64,128,78.304,128,96C128,96,128,547.264,128,547.264C138.336,545.12,149.024,544,160,544C170.976,544,181.664,545.12,192,547.264C192,547.264,192,96,192,96C192,96,192,96,192,96M251.68,677.12C251.168,675.424,250.72,673.76,250.112,672.064C247.072,663.616,243.168,655.616,238.016,648.512C237.888,648.32,237.696,648.192,237.568,648C232,640.384,225.376,633.632,217.856,627.936C217.728,627.808,217.632,627.744,217.536,627.68C209.824,621.856,201.216,617.184,191.968,613.92C181.952,610.304,171.296,608,160,608C148.704,608,138.048,610.304,128,613.952C118.752,617.216,110.144,621.888,102.432,627.712C102.336,627.776,102.24,627.84,102.112,627.968C94.592,633.664,87.968,640.416,82.4,648.032C82.272,648.224,82.08,648.352,81.952,648.544C76.8,655.68,72.896,663.68,69.856,672.096C69.248,673.792,68.8,675.456,68.288,677.152C65.76,685.696,64,694.624,64,704C64,713.44,65.76,722.368,68.32,730.944C68.832,732.64,69.28,734.304,69.888,735.936C72.896,744.384,76.8,752.384,81.984,759.552C82.112,759.744,82.304,759.872,82.432,760.064C88,767.616,94.624,774.432,102.144,780.128C102.272,780.192,102.368,780.32,102.464,780.384C110.144,786.112,118.752,790.816,128,794.112C138.048,797.696,148.704,800,160,800C171.296,800,181.952,797.696,192,794.112C201.248,790.784,209.856,786.112,217.568,780.352C217.664,780.288,217.76,780.16,217.888,780.096C225.408,774.4,232.032,767.584,237.6,760.032C237.728,759.84,237.92,759.712,238.048,759.52C243.2,752.384,247.104,744.384,250.112,735.936C250.72,734.304,251.2,732.64,251.68,730.944C254.24,722.368,256,713.44,256,704C256,694.624,254.24,685.696,251.68,677.12C251.68,677.12,251.68,677.12,251.68,677.12M960,831.328C960,831.328,960,928,960,928C960,980.928,916.928,1024,864,1024C811.072,1024,768,980.928,768,928C768,928,768,831.328,768,831.328C729.312,802.048,704,756.192,704,704C704,651.808,729.312,605.952,768,576.736C768,576.736,768,96,768,96C768,43.072,811.072,0,864,0C916.928,0,960,43.072,960,96C960,96,960,576.736,960,576.736C998.624,605.92,1024,651.808,1024,704C1024,756.192,998.624,802.048,960,831.328C960,831.328,960,831.328,960,831.328M832,928C832,945.696,846.304,960,864,960C881.696,960,896,945.696,896,928C896,928,896,860.8,896,860.8C885.632,862.88,874.944,864,864,864C852.992,864,842.304,862.88,832,860.8C832,860.8,832,928,832,928C832,928,832,928,832,928M896,96C896,78.304,881.696,64,864,64C846.304,64,832,78.304,832,96C832,96,832,547.264,832,547.264C842.304,545.12,852.992,544,864,544C874.944,544,885.632,545.12,896,547.264C896,547.264,896,96,896,96C896,96,896,96,896,96M955.68,677.12C955.168,675.424,954.688,673.76,954.112,672.064C951.04,663.616,947.168,655.616,941.984,648.512C941.856,648.32,941.664,648.192,941.536,648C935.968,640.384,929.344,633.632,921.856,627.936C921.728,627.808,921.6,627.744,921.536,627.68C913.792,621.856,905.216,617.184,895.968,613.92C885.952,610.304,875.264,608,864,608C852.672,608,842.048,610.304,832,613.952C822.752,617.216,814.112,621.888,806.432,627.712C806.304,627.776,806.24,627.84,806.112,627.968C798.56,633.664,791.936,640.416,786.368,648.032C786.24,648.224,786.048,648.352,785.92,648.544C780.8,655.68,776.864,663.68,773.856,672.096C773.216,673.792,772.8,675.456,772.288,677.152C769.76,685.696,768,694.624,768,704C768,713.44,769.76,722.368,772.32,730.944C772.832,732.64,773.248,734.304,773.888,735.936C776.896,744.384,780.832,752.384,785.952,759.552C786.08,759.744,786.272,759.872,786.4,760.064C791.968,767.616,798.592,774.432,806.144,780.128C806.272,780.192,806.336,780.32,806.464,780.384C814.144,786.144,822.784,790.816,832.032,794.144C842.048,797.696,852.672,800,864,800C875.264,800,885.952,797.696,896,794.112C905.248,790.784,913.824,786.112,921.568,780.352C921.632,780.288,921.76,780.16,921.888,780.096C929.376,774.4,936,767.584,941.568,760.032C941.696,759.84,941.888,759.712,942.016,759.52C947.2,752.32,951.072,744.32,954.144,735.904C954.72,734.272,955.2,732.576,955.712,730.912C958.24,722.368,960,713.44,960,704C960,694.624,958.24,685.696,955.68,677.12C955.68,677.12,955.68,677.12,955.68,677.12M608,447.328C608,447.328,608,928,608,928C608,980.928,564.928,1024,512,1024C459.072,1024,416,980.928,416,928C416,928,416,447.328,416,447.328C377.344,418.08,352,372.192,352,320C352,267.808,377.344,221.952,416,192.736C416,192.736,416,96,416,96C416,43.072,459.072,0,512,0C564.928,0,608,43.072,608,96C608,96,608,192.736,608,192.736C646.624,221.92,672,267.808,672,320C672,372.192,646.624,418.048,608,447.328C608,447.328,608,447.328,608,447.328M480,928C480,945.696,494.304,960,512,960C529.696,960,544,945.696,544,928C544,928,544,476.8,544,476.8C533.632,478.848,522.944,480,512,480C501.024,480,490.336,478.88,480,476.8C480,476.8,480,928,480,928C480,928,480,928,480,928M544,96C544,78.304,529.696,64,512,64C494.304,64,480,78.304,480,96C480,96,480,163.264,480,163.264C490.336,161.12,501.024,160,512,160C522.944,160,533.632,161.12,544,163.264C544,163.264,544,96,544,96C544,96,544,96,544,96M603.68,293.12C603.168,291.424,602.688,289.76,602.112,288.064C599.04,279.616,595.168,271.616,589.984,264.512C589.856,264.32,589.664,264.192,589.536,264C583.968,256.384,577.344,249.632,569.856,243.936C569.728,243.808,569.6,243.744,569.536,243.68C561.792,237.856,553.216,233.184,543.968,229.92C533.952,226.304,523.264,224,512,224C500.704,224,490.048,226.304,480,229.952C470.752,233.216,462.144,237.888,454.432,243.712C454.336,243.776,454.24,243.84,454.112,243.968C446.592,249.664,439.968,256.416,434.4,264.032C434.272,264.224,434.08,264.352,433.952,264.544C428.8,271.68,424.896,279.68,421.856,288.096C421.248,289.792,420.8,291.456,420.288,293.152C417.76,301.696,416,310.624,416,320C416,329.44,417.76,338.368,420.32,346.944C420.832,348.64,421.28,350.304,421.888,351.936C424.928,360.384,428.832,368.384,433.984,375.552C434.112,375.744,434.304,375.872,434.432,376.064C440,383.616,446.624,390.432,454.144,396.128C454.272,396.192,454.368,396.32,454.464,396.384C462.176,402.144,470.784,406.816,480.032,410.144C490.048,413.696,500.704,416,512,416C523.264,416,533.952,413.696,544,410.112C553.248,406.784,561.824,402.112,569.568,396.352C569.632,396.288,569.76,396.16,569.888,396.096C577.376,390.4,584,383.584,589.568,376.032C589.696,375.84,589.888,375.712,590.016,375.52C595.2,368.32,599.072,360.32,602.144,351.904C602.72,350.272,603.2,348.576,603.712,346.912C606.24,338.368,608,329.44,608,320C608,310.624,606.24,301.696,603.68,293.12C603.68,293.12,603.68,293.12,603.68,293.12" /><glyph unicode="&#x0051;" d="M941.14,941.44C888.5,994.016,819.188,1024,750.868,1024C693.236,1024,640.18,1002.624,601.428,963.936C601.428,963.936,445.684,807.008,445.684,807.008C445.204,806.56,444.66,806.272,444.18,805.792C443.924,805.536,443.764,805.184,443.508,804.96C443.508,804.96,443.572,804.896,443.572,804.896C443.572,804.896,113.044,471.808,113.044,471.808C97.812,456.672,86.772,437.824,80.628,417.248C80.628,417.248,5.46,144.992,5.46,144.992C5.396,144.256,0.5,122.88,0.5,112C0.5,50.176,50.708,0,112.628,0C124.948,0,148.788,5.888,149.652,6.016C149.652,6.016,420.948,77.344,420.948,77.344C441.556,83.456,460.276,94.592,475.508,109.856C475.508,109.856,963.924,602.112,963.924,602.112C1052.756,691.008,1042.74,840,941.14,941.44C941.14,941.44,941.14,941.44,941.14,941.44M512.948,262.56C510.324,291.424,502.164,319.744,489.94,346.624C489.94,346.624,792.5,649.152,792.5,649.152C810.996,590.72,801.492,529.6,760.948,489.024C760.692,488.768,760.372,488.608,760.148,488.352C760.148,488.352,760.596,487.936,760.596,487.936C760.596,487.936,513.3,238.656,513.3,238.656C513.3,246.624,513.684,254.432,512.948,262.56C512.948,262.56,512.948,262.56,512.948,262.56M473.876,375.808C461.94,395.424,448.372,414.368,431.572,431.136C412.02,450.688,389.588,466.016,366.164,478.88C366.164,478.88,671.188,783.904,671.188,783.904C695.124,773.28,718.068,758.144,738.324,737.888C755.636,720.64,769.012,701.312,779.316,681.216C779.316,681.216,473.876,375.808,473.876,375.808C473.876,375.808,473.876,375.808,473.876,375.808M336.052,494.016C306.42,505.952,275.38,512.768,244.276,513.184C244.276,513.184,490.772,761.568,490.772,761.568C528.5,798.368,583.444,808.96,637.556,795.552C637.556,795.552,336.052,494.016,336.052,494.016C336.052,494.016,336.052,494.016,336.052,494.016M133.844,68.064C130.356,67.264,119.508,64.512,112.148,64C85.844,64.32,64.5,85.696,64.5,112C64.884,117.376,67.028,126.624,67.764,129.984C67.764,129.984,101.46,252.032,101.46,252.032C138.036,253.024,177.396,238.784,208.34,207.776C239.764,176.416,254.548,136.288,252.948,99.264C252.948,99.264,133.844,68.064,133.844,68.064C133.844,68.064,133.844,68.064,133.844,68.064M284.468,107.616C283.7,150.56,266.228,195.232,230.964,230.432C197.62,263.808,153.972,283.072,110.452,284.8C110.452,284.8,142.324,400.224,142.324,400.224C144.628,407.904,149.204,415.488,154.836,422.112C219.028,468.064,317.748,454.496,386.324,385.856C458.868,313.344,470.068,207.104,414.196,143.68C410.484,141.728,406.74,139.872,402.708,138.688C402.708,138.688,284.468,107.616,284.468,107.616C284.468,107.616,284.468,107.616,284.468,107.616M918.612,647.296C918.612,647.296,864.724,592.992,864.724,592.992C864.724,600.224,865.588,607.168,864.916,614.56C859.284,676.48,830.42,736.352,783.54,783.168C731.412,835.328,662.292,865.248,593.844,865.44C593.844,865.44,646.836,918.88,646.836,918.88C673.364,945.344,710.388,960,750.868,960C802.356,960,855.252,936.704,895.924,896.16C934.1,858.048,956.852,810.688,960.116,762.784C963.124,718.08,948.372,677.088,918.612,647.296C918.612,647.296,918.612,647.296,918.612,647.296" /><glyph unicode="&#x0052;" d="M864,1024C864,1024,160,1024,160,1024C89.312,1024,32,966.688,32,896C32,896,32,128,32,128C32,57.312,89.312,0,160,0C160,0,864,0,864,0C934.688,0,992,57.312,992,128C992,128,992,896,992,896C992,966.688,934.688,1024,864,1024C864,1024,864,1024,864,1024M928,128C928,92.736,899.264,64,864,64C864,64,160,64,160,64C124.704,64,96,92.736,96,128C96,128,96,896,96,896C96,931.296,124.704,960,160,960C160,960,864,960,864,960C899.264,960,928,931.296,928,896C928,896,928,128,928,128C928,128,928,128,928,128M832,896C832,896,192,896,192,896C174.304,896,160,881.696,160,864C160,864,160,288,160,288C160,270.304,174.304,256,192,256C192,256,832,256,832,256C849.696,256,864,270.304,864,288C864,288,864,864,864,864C864,881.696,849.696,896,832,896C832,896,832,896,832,896M832,864C832,864,832,420.192,832,420.192C832,420.192,728,533.152,728,533.152C721.888,540.064,713.184,544,704,544C694.816,544,686.048,540.064,680,533.152C680,533.152,596.672,438.752,596.672,438.752C596.672,438.752,344,725.152,344,725.152C337.92,732.064,329.184,736,320,736C310.816,736,302.08,732.064,296,725.152C296,725.152,192,605.216,192,605.216C192,605.216,192,864,192,864C192,864,832,864,832,864C832,864,832,864,832,864M192,556.8C192,556.8,320,704,320,704C320,704,578.112,411.424,578.112,411.424C578.112,411.424,596.672,390.368,596.672,390.368C596.672,390.368,685.056,288,685.056,288C685.056,288,192,288,192,288C192,288,192,556.8,192,556.8C192,556.8,192,556.8,192,556.8M727.68,288C727.68,288,617.984,414.56,617.984,414.56C617.984,414.56,704,512,704,512C704,512,832,371.872,832,371.872C832,371.872,832,288,832,288C832,288,727.68,288,727.68,288C727.68,288,727.68,288,727.68,288M640,608C692.992,608,736,650.976,736,704C736,757.024,692.992,800,640,800C586.944,800,544,757.024,544,704C544,650.976,586.944,608,640,608C640,608,640,608,640,608M640,768C675.264,768,704,739.296,704,704C704,668.704,675.264,640,640,640C604.672,640,576,668.704,576,704C576,739.296,604.672,768,640,768C640,768,640,768,640,768" /><glyph unicode="&#x0053;" d="M640.48,1024C428.423,1024,256.492,852.069,256.492,640.012C256.492,575.182,272.715,514.159,301.131,460.562C301.131,460.562,34.131,193.626,34.131,193.626C34.131,193.626,34.355,193.434,34.355,193.434C13.492,172.923,0.5,144.507,0.5,112.924C0.5,50.559,51.059,0,113.424,0C144.943,0,173.391,12.992,193.902,33.887C193.902,33.887,193.838,33.951,193.838,33.951C193.838,33.951,460.742,300.823,460.742,300.823C514.371,272.311,575.49,256.024,640.48,256.024C852.537,256.024,1024.468,427.955,1024.468,640.012C1024.468,852.069,852.537,1024,640.48,1024C640.48,1024,640.48,1024,640.48,1024M153.935,73.885C143.632,63.197,129.36,56.511,113.424,56.511C82.225,56.511,56.947,81.757,56.947,112.956C56.947,128.892,63.665,143.132,74.321,153.467C74.321,153.467,74.033,153.723,74.033,153.723C74.033,153.723,332.138,411.827,332.138,411.827C354.696,381.396,381.576,354.516,411.943,331.894C411.943,331.894,153.935,73.885,153.935,73.885C153.935,73.885,153.935,73.885,153.935,73.885M640.48,319.99C463.782,319.99,320.49,463.314,320.49,639.98C320.49,816.678,463.782,959.971,640.48,959.971C817.146,959.971,960.471,816.678,960.471,639.98C960.471,463.314,817.146,319.99,640.48,319.99C640.48,319.99,640.48,319.99,640.48,319.99M640.48,864.005C516.739,864.005,416.487,763.72,416.487,640.012C416.487,631.181,423.655,624.013,432.486,624.013C441.318,624.013,448.486,631.181,448.486,640.012C448.486,746.025,534.435,832.006,640.48,832.006C649.28,832.006,656.48,839.174,656.48,848.005C656.48,856.837,649.28,864.005,640.48,864.005C640.48,864.005,640.48,864.005,640.48,864.005" /><glyph unicode="&#x0054;" d="M972.512,618.772C972.512,618.772,874.464,638.42,874.464,638.42C869.536,652.596,863.712,666.356,857.28,679.668C857.28,679.668,912.832,762.996,912.832,762.996C929.76,788.372,926.4,822.196,904.832,843.732C904.832,843.732,843.264,905.3,843.264,905.3C830.88,917.684,814.528,924.052,797.952,924.052C785.696,924.052,773.312,920.532,762.528,913.3C762.528,913.3,679.2,857.78,679.2,857.78C665.824,864.244,652.064,870.004,637.888,874.932C637.888,874.932,618.24,973.012,618.24,973.012C612.288,1002.964,585.984,1024.468,555.488,1024.468C555.488,1024.468,468.448,1024.468,468.448,1024.468C437.952,1024.468,411.68,1002.932,405.696,973.012C405.696,973.012,386.048,874.932,386.048,874.932C371.872,870.004,358.112,864.212,344.8,857.78C344.8,857.78,261.504,913.3,261.504,913.3C250.656,920.532,238.304,924.052,226.016,924.052C209.472,924.052,193.12,917.684,180.736,905.3C180.736,905.3,119.2,843.732,119.2,843.732C97.632,822.164,94.272,788.372,111.2,762.996C111.2,762.996,166.72,679.668,166.72,679.668C160.256,666.324,154.496,652.564,149.568,638.388C149.568,638.388,51.456,618.772,51.456,618.772C21.536,612.788,0,586.516,0,556.02C0,556.02,0,468.98,0,468.98C0,438.484,21.536,412.18,51.456,406.228C51.456,406.228,149.536,386.548,149.536,386.548C154.464,372.372,160.256,358.612,166.688,345.3C166.688,345.3,111.2,261.972,111.2,261.972C94.272,236.596,97.632,202.772,119.2,181.236C119.2,181.236,180.768,119.668,180.768,119.668C193.152,107.284,209.504,100.916,226.048,100.916C238.336,100.916,250.72,104.468,261.504,111.668C261.504,111.668,344.832,167.22,344.832,167.22C358.176,160.724,371.936,154.964,386.112,150.036C386.112,150.036,405.728,51.988,405.728,51.988C411.712,22.036,437.984,0.5,468.48,0.5C468.48,0.5,555.52,0.5,555.52,0.5C586.016,0.5,612.32,22.068,618.272,51.988C618.272,51.988,637.952,150.036,637.952,150.036C652.128,154.964,665.888,160.788,679.2,167.22C679.2,167.22,762.528,111.668,762.528,111.668C773.344,104.468,785.728,100.916,797.952,100.916C814.528,100.916,830.88,107.284,843.264,119.668C843.264,119.668,904.832,181.236,904.832,181.236C926.4,202.804,929.76,236.596,912.832,261.972C912.832,261.972,857.28,345.3,857.28,345.3C863.776,358.676,869.536,372.436,874.464,386.612C874.464,386.612,972.512,406.228,972.512,406.228C1002.432,412.148,1024,438.484,1024,468.98C1024,468.98,1024,556.02,1024,556.02C1024,586.516,1002.432,612.788,972.512,618.772C972.512,618.772,972.512,618.772,972.512,618.772M861.888,449.332C839.648,444.884,821.44,429.012,814.016,407.572C809.888,395.764,805.088,384.308,799.712,373.204C789.76,352.756,791.456,328.628,804.032,309.78C804.032,309.78,859.584,226.452,859.584,226.452C859.584,226.452,798.016,164.884,798.016,164.884C798.016,164.884,714.688,220.436,714.688,220.436C704,227.572,691.616,231.188,679.2,231.188C669.696,231.188,660.128,229.076,651.328,224.82C640.192,219.444,628.768,214.58,616.896,210.452C595.52,203.028,579.648,184.82,575.2,162.58C575.2,162.58,555.52,64.468,555.52,64.468C555.52,64.468,468.48,64.468,468.48,64.468C468.48,64.468,448.864,162.58,448.864,162.58C444.416,184.82,428.544,203.028,407.136,210.452C395.328,214.58,383.84,219.38,372.736,224.756C363.904,229.076,354.368,231.188,344.832,231.188C332.384,231.188,320.032,227.572,309.344,220.436C309.344,220.436,226.016,164.884,226.016,164.884C226.016,164.884,164.448,226.452,164.448,226.452C164.448,226.452,219.968,309.78,219.968,309.78C232.544,328.66,234.176,352.788,224.352,373.14C218.976,384.276,214.144,395.7,210.016,407.572C202.592,428.948,184.352,444.82,162.144,449.268C162.144,449.268,64.064,468.948,64.064,468.948C64.064,468.948,64,556.02,64,556.02C64,556.02,162.112,575.636,162.112,575.636C184.32,580.084,202.56,595.956,209.984,617.364C214.112,629.172,218.88,640.66,224.288,651.764C234.208,672.18,232.544,696.308,219.936,715.156C219.936,715.156,164.448,798.484,164.448,798.484C164.448,798.484,225.984,860.052,225.984,860.052C225.984,860.052,309.312,804.532,309.312,804.532C320,797.396,332.384,793.78,344.8,793.78C354.304,793.78,363.84,795.892,372.672,800.148C383.776,805.524,395.232,810.356,407.072,814.484C428.48,821.908,444.352,840.148,448.8,862.356C448.8,862.356,468.448,960.436,468.448,960.436C468.448,960.436,555.488,960.468,555.488,960.468C555.488,960.468,575.104,862.356,575.104,862.356C579.552,840.148,595.424,821.908,616.864,814.484C628.672,810.356,640.128,805.588,651.232,800.18C660.096,795.892,669.6,793.78,679.168,793.78C691.616,793.78,703.968,797.396,714.656,804.532C714.656,804.532,797.984,860.052,797.984,860.052C797.984,860.052,859.552,798.484,859.552,798.484C859.552,798.484,804,715.156,804,715.156C791.424,696.276,789.824,672.18,799.616,651.796C804.992,640.692,809.856,629.236,813.984,617.396C821.408,595.988,839.616,580.116,861.856,575.668C861.856,575.668,959.904,556.02,959.904,556.02C959.904,556.02,960,468.98,960,468.98C960,468.98,861.888,449.332,861.888,449.332C861.888,449.332,861.888,449.332,861.888,449.332M512,736.5C388.32,736.5,288,636.18,288,512.5C288,388.788,388.32,288.5,512,288.5C635.68,288.5,736,388.82,736,512.5C736,636.18,635.68,736.5,512,736.5C512,736.5,512,736.5,512,736.5M512,316.468C403.776,316.468,316,404.276,316,512.468C316,620.692,403.776,708.468,512,708.468C620.192,708.468,708,620.692,708,512.468C708,404.276,620.192,316.468,512,316.468C512,316.468,512,316.468,512,316.468M512,640.5C441.28,640.5,384,583.22,384,512.5C384,441.812,441.28,384.5,512,384.5C582.688,384.5,640,441.812,640,512.5C640,583.188,582.688,640.5,512,640.5C512,640.5,512,640.5,512,640.5M512,416.468C459.008,416.468,416,459.476,416,512.468C416,565.46,459.008,608.468,512,608.468C564.992,608.468,608,565.46,608,512.468C608,459.476,564.992,416.468,512,416.468C512,416.468,512,416.468,512,416.468" /><glyph unicode="&#x0055;" d="M1020.209,638.197C1011.345,663.765,988.593,682.486,961.199,686.55C961.199,686.55,694.758,726.167,694.758,726.167C694.758,726.167,578.947,966.623,578.947,966.623C566.755,991.871,540.673,1008.032,512.001,1008.032C483.328,1008.032,457.247,991.871,445.055,966.623C445.055,966.623,329.243,726.167,329.243,726.167C329.243,726.167,62.771,686.55,62.771,686.55C35.41,682.486,12.657,663.765,3.825,638.197C-4.975,612.563,1.681,584.338,21.009,565.074C21.009,565.074,216.279,370.124,216.279,370.124C216.279,370.124,170.998,99.683,170.998,99.683C166.39,72.449,178.198,45.121,201.335,29.184C214.039,20.448,228.984,16,243.928,16C256.216,16,268.538,19.008,279.706,24.992C279.706,24.992,512.001,150.052,512.001,150.052C512.001,150.052,744.329,24.992,744.329,24.992C755.497,19.008,767.817,16,780.073,16C795.018,16,809.962,20.448,822.698,29.184C845.836,45.121,857.58,72.449,853.004,99.683C853.004,99.683,807.69,370.124,807.69,370.124C807.69,370.124,1003.025,565.074,1003.025,565.074C1022.321,584.37,1028.946,612.595,1020.209,638.197C1020.209,638.197,1020.209,638.197,1020.209,638.197M754.825,420.397C738.44,404.077,731.016,381.068,734.76,358.508C734.76,358.508,780.073,88.067,780.073,88.067C780.073,88.067,547.747,213.062,547.747,213.062C536.609,219.078,524.321,222.054,511.969,222.054C499.68,222.054,487.36,219.046,476.224,213.062C476.224,213.062,243.896,88.067,243.896,88.067C243.896,88.067,289.21,358.508,289.21,358.508C292.986,381.068,285.562,404.077,269.178,420.397C269.178,420.397,73.907,615.347,73.907,615.347C73.907,615.347,340.347,655.029,340.347,655.029C364.7,658.645,385.661,673.877,396.125,695.606C396.125,695.606,512.001,935.998,512.001,935.998C512.001,935.998,627.845,695.574,627.845,695.574C638.341,673.845,659.269,658.645,683.59,654.997C683.59,654.997,950.095,615.315,950.095,615.315C950.095,615.315,754.825,420.397,754.825,420.397C754.825,420.397,754.825,420.397,754.825,420.397" /><glyph unicode="&#x0056;" d="M1005.012,579.84C1005.012,579.84,845.012,835.84,845.012,835.84C821.652,873.248,780.628,896,736.5,896C736.5,896,128.5,896,128.5,896C57.812,896,0.5,838.688,0.5,768C0.5,768,0.5,256,0.5,256C0.5,185.312,57.812,128,128.5,128C128.5,128,736.5,128,736.5,128C780.628,128,821.62,150.752,845.012,188.192C845.012,188.192,1005.012,444.192,1005.012,444.192C1030.996,485.632,1030.996,538.336,1005.012,579.84C1005.012,579.84,1005.012,579.84,1005.012,579.84M950.74,478.112C950.74,478.112,790.74,222.048,790.74,222.048C778.996,203.232,758.676,192,736.5,192C736.5,192,128.5,192,128.5,192C93.204,192,64.5,220.736,64.5,256C64.5,256,64.5,768,64.5,768C64.5,803.296,93.204,832,128.5,832C128.5,832,736.5,832,736.5,832C758.676,832,778.996,820.736,790.74,801.952C790.74,801.952,950.74,545.952,950.74,545.952C963.636,525.312,963.636,498.688,950.74,478.112C950.74,478.112,950.74,478.112,950.74,478.112M736.5,608C683.444,608,640.5,565.024,640.5,512C640.5,458.976,683.444,416,736.5,416C789.492,416,832.5,459.008,832.5,512C832.5,565.024,789.492,608,736.5,608C736.5,608,736.5,608,736.5,608M736.5,447.968C701.14,447.968,672.5,476.64,672.5,511.968C672.5,547.296,701.14,575.968,736.5,575.968C771.828,575.968,800.5,547.296,800.5,511.968C800.5,476.672,771.828,447.968,736.5,447.968C736.5,447.968,736.5,447.968,736.5,447.968" /><glyph unicode="&#x0057;" d="M959.36,805.824C956.288,856.064,914.976,895.936,864,895.936C864,895.936,768,895.936,768,895.936C768,895.936,768,927.936,768,927.936C768,927.936,768,928,768,928C768,981.024,724.992,1024,672,1024C672,1024,352,1024,352,1024C298.976,1024,256,981.024,256,928C256,928,256,927.968,256,927.968C256,927.968,256,895.968,256,895.968C256,895.968,160,895.968,160,895.968C108.96,895.968,67.68,856.096,64.608,805.856C64.608,805.856,64,805.856,64,805.856C64,805.856,64,768,64,768C64,768,64,736,64,736C64,700.672,92.672,672,128,672C128,672,128,672,128,672C128,672,128,128,128,128C128,57.312,185.312,0,256,0C256,0,768,0,768,0C838.688,0,896,57.312,896,128C896,128,896,672,896,672C896,672,896,672,896,672C931.328,672,960,700.672,960,736C960,736,960,768,960,768C960,768,960,805.824,960,805.824C960,805.824,959.36,805.824,959.36,805.824C959.36,805.824,959.36,805.824,959.36,805.824M320,927.968C320,945.664,334.304,959.968,352,959.968C352,959.968,672,959.968,672,959.968C689.696,959.968,704,945.664,704,927.968C704,927.968,704,895.968,704,895.968C704,895.968,320,895.968,320,895.968C320,895.968,320,927.968,320,927.968C320,927.968,320,927.968,320,927.968M832,127.968C832,92.704,803.264,63.968,768,63.968C768,63.968,256,63.968,256,63.968C220.704,63.968,192,92.704,192,127.968C192,127.968,192,671.968,192,671.968C192,671.968,832,671.968,832,671.968C832,671.968,832,127.968,832,127.968C832,127.968,832,127.968,832,127.968M896,768C896,768,896,736,896,736C896,736,128,736,128,736C128,736,128,768,128,768C128,768,128,799.968,128,799.968C128,817.664,142.304,831.968,160,831.968C160,831.968,864,831.968,864,831.968C881.696,831.968,896,817.664,896,799.968C896,799.968,896,768,896,768C896,768,896,768,896,768M288,127.84C288,127.84,352,127.84,352,127.84C369.696,127.84,384,142.144,384,159.84C384,159.84,384,575.84,384,575.84C384,593.536,369.696,607.84,352,607.84C352,607.84,288,607.84,288,607.84C270.304,607.84,256,593.536,256,575.84C256,575.84,256,159.84,256,159.84C256,142.144,270.304,127.84,288,127.84C288,127.84,288,127.84,288,127.84M288,575.872C288,575.872,352,575.872,352,575.872C352,575.872,352,159.872,352,159.872C352,159.872,288,159.872,288,159.872C288,159.872,288,575.872,288,575.872C288,575.872,288,575.872,288,575.872M480,127.84C480,127.84,544,127.84,544,127.84C561.696,127.84,576,142.144,576,159.84C576,159.84,576,575.84,576,575.84C576,593.536,561.696,607.84,544,607.84C544,607.84,480,607.84,480,607.84C462.304,607.84,448,593.536,448,575.84C448,575.84,448,159.84,448,159.84C448,142.144,462.304,127.84,480,127.84C480,127.84,480,127.84,480,127.84M480,575.872C480,575.872,544,575.872,544,575.872C544,575.872,544,159.872,544,159.872C544,159.872,480,159.872,480,159.872C480,159.872,480,575.872,480,575.872C480,575.872,480,575.872,480,575.872M672,127.84C672,127.84,736,127.84,736,127.84C753.696,127.84,768,142.144,768,159.84C768,159.84,768,575.84,768,575.84C768,593.536,753.696,607.84,736,607.84C736,607.84,672,607.84,672,607.84C654.304,607.84,640,593.536,640,575.84C640,575.84,640,159.84,640,159.84C640,142.144,654.304,127.84,672,127.84C672,127.84,672,127.84,672,127.84M672,575.872C672,575.872,736,575.872,736,575.872C736,575.872,736,159.872,736,159.872C736,159.872,672,159.872,672,159.872C672,159.872,672,575.872,672,575.872C672,575.872,672,575.872,672,575.872" /><glyph unicode="&#x0058;" d="M995.993,117.248C989.561,121.504,872.857,198.048,699.257,235.616C762.937,316.288,803.833,424.8,821.209,497.024C845.337,597.12,835.961,792.96,739.833,915.008C683.641,986.336,605.017,1024,512.473,1024C419.929,1024,341.305,986.304,285.145,915.008C189.017,792.992,179.673,597.152,203.769,497.056C221.145,424.832,262.009,316.32,325.721,235.648C152.121,198.08,35.417,121.536,29.017,117.28C5.561,101.664,-4.935,72.48,3.257,45.536C11.385,18.496,36.313,0,64.473,0C64.473,0,960.473,0,960.473,0C988.665,0,1013.529,18.496,1021.721,45.504C1029.945,72.448,1019.449,101.632,995.993,117.248C995.993,117.248,995.993,117.248,995.993,117.248M649.017,275.264C649.017,275.264,638.585,262.016,638.585,262.016C562.265,174.336,462.745,174.336,386.457,262.016C386.457,262.016,375.993,275.264,375.993,275.264C286.873,388.192,242.649,537.568,261.689,680.064C279.129,816.992,357.593,960,512.473,960C667.353,960,745.849,816.96,763.289,680.032C782.265,537.472,738.201,388.256,649.017,275.264C649.017,275.264,649.017,275.264,649.017,275.264M64.473,64C68.889,66.944,177.305,138.048,339.225,173.056C339.225,173.056,418.713,190.24,418.713,190.24C447.097,171.616,478.233,160,512.473,160C546.745,160,577.849,171.616,606.233,190.24C606.233,190.24,685.721,173.056,685.721,173.056C846.361,138.304,954.393,68,960.473,64C960.473,64,64.473,64,64.473,64C64.473,64,64.473,64,64.473,64" /><glyph unicode="&#x0059;" d="M512,1024C229.211,1024,0,794.789,0,512C0,229.211,229.211,0,512,0C794.789,0,1024,229.211,1024,512C1024,794.789,794.789,1024,512,1024C512,1024,512,1024,512,1024M957.11,528.516C957.11,528.516,759.048,528.516,759.048,528.516C757.231,601.683,744.216,671.579,721.128,735.562C765.72,754.159,806.945,778.9,844.536,808.134C911.36,733.117,953.146,635.706,957.11,528.516C957.11,528.516,957.11,528.516,957.11,528.516M493.733,66.989C438.834,112.707,392.787,172.065,359.094,241.004C402.333,254.514,448.148,261.912,495.484,263.432C495.484,263.432,495.484,66.924,495.484,66.924C494.889,66.924,494.328,66.957,493.733,66.989C493.733,66.989,493.733,66.989,493.733,66.989M530.2,957.011C592.499,905.149,643.336,835.683,677.723,754.655C630.619,738.568,580.575,729.22,528.483,727.569C528.483,727.569,528.483,957.11,528.483,957.11C529.111,957.076,529.64,957.043,530.2,957.011C530.2,957.011,530.2,957.011,530.2,957.011M585.233,951.395C676.402,936.233,758.189,893.655,821.875,832.017C787.291,805.491,749.501,783.03,708.641,766.019C678.582,837.268,636.399,900.261,585.233,951.395C585.233,951.395,585.233,951.395,585.233,951.395M495.484,957.11C495.484,957.11,495.484,727.569,495.484,727.569C443.392,729.253,393.315,738.568,346.244,754.655C380.631,835.683,431.468,905.149,493.766,957.011C494.36,957.043,494.889,957.076,495.484,957.11C495.484,957.11,495.484,957.11,495.484,957.11M315.325,765.985C274.531,782.996,236.709,805.459,202.125,831.983C265.778,893.622,347.598,936.2,438.767,951.363C387.567,900.261,345.418,837.268,315.325,765.985C315.325,765.985,315.325,765.985,315.325,765.985M333.791,724.2C384.727,706.527,438.999,696.221,495.484,694.504C495.484,694.504,495.484,528.516,495.484,528.516C495.484,528.516,297.984,528.516,297.984,528.516C299.768,597.686,312.023,663.784,333.791,724.2C333.791,724.2,333.791,724.2,333.791,724.2M495.484,495.484C495.484,495.484,495.484,296.465,495.484,296.465C443.392,294.879,393.018,286.356,345.55,271.063C316.945,339.176,300.065,415.05,297.984,495.484C297.984,495.484,495.484,495.484,495.484,495.484C495.484,495.484,495.484,495.484,495.484,495.484M438.767,72.605C357.079,86.181,282.888,121.757,222.572,173.42C255.108,195.981,290.287,215.073,327.878,229.574C356.682,169.852,394.372,116.835,438.767,72.605C438.767,72.605,438.767,72.605,438.767,72.605M528.516,66.89C528.516,66.89,528.516,263.4,528.516,263.4C575.818,261.88,621.667,254.481,664.906,240.97C631.181,172.032,585.166,112.673,530.267,66.957C529.705,66.957,529.111,66.924,528.516,66.89C528.516,66.89,528.516,66.89,528.516,66.89M696.122,229.574C733.679,215.073,768.826,195.948,801.428,173.42C741.112,121.789,666.921,86.181,585.233,72.605C629.628,116.835,667.284,169.852,696.122,229.574C696.122,229.574,696.122,229.574,696.122,229.574M678.45,271.063C630.949,286.356,580.575,294.879,528.516,296.465C528.516,296.465,528.516,495.484,528.516,495.484C528.516,495.484,726.016,495.484,726.016,495.484C723.935,415.05,707.022,339.176,678.45,271.063C678.45,271.063,678.45,271.063,678.45,271.063M528.516,528.516C528.516,528.516,528.516,694.504,528.516,694.504C584.968,696.221,639.24,706.493,690.209,724.166C711.944,663.75,724.2,597.652,726.016,528.483C726.016,528.483,528.516,528.483,528.516,528.483C528.516,528.483,528.516,528.516,528.516,528.516M179.497,808.134C217.088,778.9,258.312,754.159,302.872,735.562C279.784,671.579,266.769,601.683,264.952,528.516C264.952,528.516,66.89,528.516,66.89,528.516C70.854,635.706,112.64,733.117,179.497,808.134C179.497,808.134,179.497,808.134,179.497,808.134M66.89,495.484C66.89,495.484,264.952,495.484,264.952,495.484C267,411.086,284.639,331.379,314.6,259.732C272.748,243.415,233.736,221.679,197.731,195.948C120.172,273.144,71.218,378.682,66.89,495.484C66.89,495.484,66.89,495.484,66.89,495.484M826.269,195.981C790.264,221.679,751.252,243.448,709.368,259.766C739.361,331.412,756.968,411.119,759.048,495.517C759.048,495.517,957.11,495.517,957.11,495.517C952.782,378.682,903.795,273.144,826.269,195.981C826.269,195.981,826.269,195.981,826.269,195.981" /><glyph unicode="&#x005A;" d="M810.708,938.906C810.708,930.001,807.261,922.129,800.424,915.291C800.424,915.291,397.19,512.058,397.19,512.058C397.19,512.058,800.424,108.824,800.424,108.824C807.261,101.987,810.708,94.115,810.708,85.208C810.708,76.303,807.261,68.431,800.424,61.594C800.424,61.594,749.115,10.285,749.115,10.285C742.277,3.447,734.406,0,725.5,0C716.594,0,708.723,3.447,701.885,10.285C701.885,10.285,223.785,488.385,223.785,488.385C216.947,495.223,213.5,503.094,213.5,512C213.5,520.906,216.947,528.777,223.785,535.615C223.785,535.615,701.885,1013.715,701.885,1013.715C708.723,1020.553,716.594,1024,725.5,1024C734.406,1024,742.277,1020.553,749.115,1013.715C749.115,1013.715,800.424,962.406,800.424,962.406C807.261,955.569,810.708,947.697,810.708,938.792C810.708,938.792,810.708,938.906,810.708,938.906" /><glyph unicode="&#x0061;" d="M810.642,511.942C810.642,503.037,807.195,495.167,800.358,488.33C800.358,488.33,322.312,10.284,322.312,10.284C315.475,3.447,307.604,0,298.699,0C289.794,0,281.924,3.447,275.087,10.284C275.087,10.284,223.784,61.587,223.784,61.587C216.947,68.424,213.5,76.294,213.5,85.199C213.5,94.104,216.947,101.975,223.784,108.812C223.784,108.812,626.972,512,626.972,512C626.972,512,223.784,915.188,223.784,915.188C216.947,922.025,213.5,929.896,213.5,938.801C213.5,947.706,216.947,955.576,223.784,962.413C223.784,962.413,275.087,1013.716,275.087,1013.716C281.924,1020.553,289.794,1024,298.699,1024C307.604,1024,315.475,1020.553,322.312,1013.716C322.312,1013.716,800.358,535.67,800.358,535.67C807.195,528.833,810.642,520.963,810.642,512.058C810.642,512.058,810.642,511.942,810.642,511.942" /><glyph unicode="&#x0062;" d="M1023.885,725.442C1023.885,716.537,1020.438,708.667,1013.601,701.83C1013.601,701.83,535.555,223.784,535.555,223.784C528.718,216.947,520.847,213.5,511.942,213.5C503.037,213.5,495.167,216.947,488.33,223.784C488.33,223.784,10.284,701.83,10.284,701.83C3.447,708.667,0,716.537,0,725.442C0,734.347,3.447,742.218,10.284,749.055C10.284,749.055,61.587,800.358,61.587,800.358C68.424,807.195,76.294,810.642,85.199,810.642C94.104,810.642,101.975,807.195,108.812,800.358C108.812,800.358,512,397.17,512,397.17C512,397.17,915.188,800.358,915.188,800.358C922.025,807.195,929.896,810.642,938.801,810.642C947.706,810.642,955.576,807.195,962.413,800.358C962.413,800.358,1013.716,749.055,1013.716,749.055C1020.553,742.218,1024,734.347,1024,725.442C1024,725.442,1023.885,725.442,1023.885,725.442" /><glyph unicode="&#x0063;" d="M1024,298.699C1024,289.794,1020.553,281.924,1013.716,275.087C1013.716,275.087,962.413,223.784,962.413,223.784C955.576,216.947,947.706,213.5,938.801,213.5C929.896,213.5,922.025,216.947,915.188,223.784C915.188,223.784,512,626.972,512,626.972C512,626.972,108.812,223.784,108.812,223.784C101.975,216.947,94.104,213.5,85.199,213.5C76.294,213.5,68.424,216.947,61.587,223.784C61.587,223.784,10.284,275.087,10.284,275.087C3.447,281.924,0,289.794,0,298.699C0,307.604,3.447,315.475,10.284,322.312C10.284,322.312,488.33,800.358,488.33,800.358C495.167,807.195,503.037,810.642,511.942,810.642C520.847,810.642,528.718,807.195,535.555,800.358C535.555,800.358,1013.601,322.312,1013.601,322.312C1020.438,315.475,1023.885,307.604,1023.885,298.699C1023.885,298.699,1024,298.699,1024,298.699" /><glyph unicode="&#x0064;" d="M866.803,1024C877.188,1024,887.118,1021.953,896.594,1017.898C911.488,1012.023,923.314,1002.775,932.145,990.154C940.975,977.533,945.371,963.548,945.334,948.198C945.334,948.198,945.334,75.802,945.334,75.802C945.334,60.452,940.937,46.467,932.145,33.846C923.351,21.225,911.488,11.977,896.594,6.102C888.028,2.501,878.098,0.682,866.803,0.682C845.162,0.682,826.44,7.884,810.634,22.323C810.634,22.323,512.166,309.27,512.166,309.27C512.166,309.27,213.7,22.323,213.7,22.323C197.44,7.429,178.717,0,157.531,0C147.146,0,137.216,2.047,127.74,6.102C112.846,11.977,101.02,21.225,92.189,33.846C83.359,46.467,78.962,60.452,79,75.802C79,75.802,79,948.198,79,948.198C79,963.548,83.397,977.533,92.189,990.154C100.983,1002.775,112.846,1012.023,127.74,1017.898C137.216,1021.953,147.146,1024,157.531,1024C157.531,1024,866.803,1024,866.803,1024C866.803,1024,866.803,1024,866.803,1024" /><glyph unicode="&#x0065;" d="M858.655,937.396C858.655,937.396,165.604,937.396,165.604,937.396C165.604,937.396,165.604,96.799,165.604,96.799C165.604,96.799,512.129,429.111,512.129,429.111C512.129,429.111,572.353,371.578,572.353,371.578C572.353,371.578,858.655,96.799,858.655,96.799C858.655,96.799,858.655,937.396,858.655,937.396C858.655,937.396,858.655,937.396,858.655,937.396M866.803,1024C877.188,1024,887.118,1021.953,896.594,1017.898C911.488,1012.023,923.314,1002.775,932.145,990.154C940.975,977.533,945.371,963.548,945.334,948.198C945.334,948.198,945.334,75.802,945.334,75.802C945.334,60.452,940.937,46.467,932.145,33.846C923.351,21.225,911.488,11.977,896.594,6.102C888.028,2.501,878.098,0.682,866.803,0.682C845.162,0.682,826.44,7.884,810.634,22.323C810.634,22.323,512.166,309.27,512.166,309.27C512.166,309.27,213.7,22.323,213.7,22.323C197.44,7.429,178.717,0,157.531,0C147.146,0,137.216,2.047,127.74,6.102C112.846,11.977,101.02,21.225,92.189,33.846C83.359,46.467,78.962,60.452,79,75.802C79,75.802,79,948.198,79,948.198C79,963.548,83.397,977.533,92.189,990.154C100.983,1002.775,112.846,1012.023,127.74,1017.898C137.216,1021.953,147.146,1024,157.531,1024C157.531,1024,866.803,1024,866.803,1024C866.803,1024,866.803,1024,866.803,1024" /><glyph unicode="&#x0066;" d="M1008.643,769.279C1025.033,745.898,1028.717,719.456,1019.696,689.947C1019.696,689.947,850.599,132.864,850.599,132.864C842.816,106.627,827.149,84.59,803.563,66.755C779.976,48.918,754.877,40,728.226,40C728.226,40,160.71,40,160.71,40C129.135,40,98.698,50.949,69.396,72.883C40.093,94.816,19.675,121.742,8.209,153.731C-1.639,181.172,-2.051,207.204,6.97,231.823C6.97,233.441,7.59,238.985,8.829,248.42C10.069,257.855,10.895,265.43,11.274,271.178C11.687,274.45,11.067,278.857,9.415,284.401C7.761,289.944,7.142,293.939,7.555,296.384C8.381,300.895,10.035,305.198,12.479,309.295C14.924,313.394,18.333,318.214,22.636,323.758C26.941,329.302,30.349,334.122,32.793,338.219C42.228,353.818,51.455,372.548,60.477,394.482C69.498,416.415,75.661,435.146,78.933,450.744C80.172,454.842,80.276,461.005,79.243,469.199C78.21,477.395,78.106,483.145,78.933,486.417C80.172,490.927,83.65,496.642,89.401,503.633C95.151,510.623,98.628,515.339,99.869,517.784C108.477,532.557,117.085,551.389,125.691,574.356C134.299,597.323,139.431,615.745,141.049,629.69C141.462,633.375,140.945,639.95,139.499,649.35C138.054,658.751,138.156,664.5,139.809,666.566C141.428,671.904,145.938,678.136,153.341,685.332C160.744,692.529,165.255,697.143,166.873,699.174C174.655,709.814,183.367,727.133,193.008,751.132C202.649,775.132,208.296,794.897,209.914,810.46C210.328,813.732,209.708,818.966,208.056,826.126C206.402,833.288,205.99,838.729,206.815,842.413C207.642,845.684,209.501,849.368,212.359,853.465C215.216,857.563,218.9,862.281,223.41,867.617C227.921,872.955,231.399,877.259,233.878,880.53C237.15,885.454,240.559,891.686,244.036,899.296C247.514,906.905,250.613,914.066,253.264,920.815C255.916,927.563,259.221,934.932,263.112,942.955C267.003,950.978,270.997,957.52,275.094,962.616C279.193,967.713,284.598,972.534,291.381,977.079C298.165,981.624,305.534,983.965,313.521,984.137C321.508,984.31,331.253,983.173,342.719,980.763C342.719,980.763,342.1,978.903,342.1,978.903C357.698,982.588,368.131,984.447,373.469,984.447C373.469,984.447,841.37,984.447,841.37,984.447C871.705,984.447,895.049,972.98,911.474,950.015C927.899,927.048,931.583,900.432,922.527,870.096C922.527,870.096,754.05,313.015,754.05,313.015C739.279,264.224,724.644,232.787,710.079,218.635C695.514,204.484,669.174,197.425,631.057,197.425C631.057,197.425,96.735,197.425,96.735,197.425C85.682,197.425,77.866,194.36,73.355,188.197C68.844,181.62,68.638,172.806,72.735,161.754C82.582,133.071,112.091,118.712,161.261,118.712C161.261,118.712,728.776,118.712,728.776,118.712C740.656,118.712,752.157,121.88,763.209,128.251C774.261,134.62,781.457,143.126,784.729,153.765C784.729,153.765,969.183,760.636,969.183,760.636C972.04,769.657,973.073,781.33,972.247,795.689C987.846,789.526,999.931,780.71,1008.539,769.244C1008.539,769.244,1008.643,769.279,1008.643,769.279M354.427,768.073C352.808,762.737,353.222,758.122,355.666,754.231C358.111,750.341,362.209,748.377,367.96,748.377C367.96,748.377,741.791,748.377,741.791,748.377C747.129,748.377,752.328,750.341,757.458,754.231C762.589,758.122,765.964,762.737,767.615,768.073C767.615,768.073,780.528,807.43,780.528,807.43C782.146,812.767,781.732,817.381,779.287,821.272C776.843,825.162,772.745,827.124,766.996,827.124C766.996,827.124,393.164,827.124,393.164,827.124C387.826,827.124,382.627,825.162,377.497,821.272C372.367,817.381,368.993,812.767,367.339,807.43C367.339,807.43,354.427,768.073,354.427,768.073M303.399,610.648C301.78,605.312,302.193,600.698,304.638,596.806C307.081,592.915,311.179,590.953,316.93,590.953C316.93,590.953,690.763,590.953,690.763,590.953C696.099,590.953,701.298,592.915,706.429,596.806C711.56,600.698,714.934,605.312,716.587,610.648C716.587,610.648,729.499,650.004,729.499,650.004C731.117,655.341,730.704,659.955,728.259,663.846C725.816,667.737,721.717,669.7,715.967,669.7C715.967,669.7,342.134,669.7,342.134,669.7C336.797,669.7,331.597,667.737,326.467,663.846C321.337,659.955,317.963,655.341,316.309,650.004C316.309,650.004,303.399,610.648,303.399,610.648" /><glyph unicode="&#x0067;" d="M867,451.672C867,451.672,867,255.845,867,255.845C867,206.983,849.655,165.224,814.966,130.535C780.276,95.845,738.518,78.5,689.655,78.5C689.655,78.5,177.345,78.5,177.345,78.5C128.483,78.5,86.724,95.845,52.035,130.535C17.345,165.224,0,206.983,0,255.845C0,255.845,0,768.155,0,768.155C0,817.018,17.345,858.776,52.035,893.466C86.724,928.155,128.483,945.5,177.345,945.5C177.345,945.5,689.655,945.5,689.655,945.5C715.517,945.5,739.517,940.362,761.69,930.121C767.862,927.259,771.552,922.535,772.759,915.948C774.001,908.949,772.138,903.017,767.206,898.087C767.206,898.087,737.034,867.914,737.034,867.914C732.931,863.811,728.207,861.741,722.862,861.741C721.62,861.741,719.758,862.156,717.311,862.983C707.862,865.431,698.62,866.673,689.586,866.673C689.586,866.673,177.276,866.673,177.276,866.673C150.172,866.673,126.966,857.018,107.69,837.741C88.413,818.465,78.758,795.259,78.758,768.155C78.758,768.155,78.758,255.845,78.758,255.845C78.758,228.741,88.413,205.535,107.69,186.258C126.966,166.983,150.172,157.328,177.276,157.328C177.276,157.328,689.586,157.328,689.586,157.328C716.69,157.328,739.896,166.983,759.172,186.258C778.449,205.535,788.104,228.741,788.104,255.845C788.104,255.845,788.104,412.259,788.104,412.259C788.104,417.604,789.966,422.121,793.655,425.81C793.655,425.81,833.069,465.224,833.069,465.224C837.172,469.328,841.897,471.396,847.241,471.396C849.69,471.396,852.173,470.776,854.62,469.535C862.828,466.258,866.931,460.293,866.931,451.672C866.931,451.672,867,451.672,867,451.672M1009.242,752.776C1009.242,752.776,508,251.534,508,251.534C498.138,241.672,486.449,236.741,472.896,236.741C459.345,236.741,447.656,241.672,437.793,251.534C437.793,251.534,173,516.328,173,516.328C163.139,526.19,158.207,537.879,158.207,551.431C158.207,564.983,163.139,576.672,173,586.535C173,586.535,240.724,654.258,240.724,654.258C250.586,664.12,262.276,669.052,275.827,669.052C289.38,669.052,301.069,664.12,310.931,654.258C310.931,654.258,472.861,492.328,472.861,492.328C472.861,492.328,871.276,890.742,871.276,890.742C881.138,900.603,892.828,905.535,906.38,905.535C919.931,905.535,931.621,900.603,941.482,890.742C941.482,890.742,1009.207,823.017,1009.207,823.017C1019.069,813.155,1024,801.466,1024,787.914C1024,774.362,1019.069,762.673,1009.207,752.81C1009.207,752.81,1009.242,752.776,1009.242,752.776" /><glyph unicode="&#x0068;" d="M456.654,243.373C456.654,243.373,865.97,652.689,865.97,652.689C874.408,661.125,878.627,671.131,878.627,682.703C878.627,694.277,874.408,704.283,865.97,712.719C865.97,712.719,797.988,780.703,797.988,780.703C789.55,789.139,779.546,793.358,767.972,793.358C756.399,793.358,746.394,789.139,737.956,780.703C737.956,780.703,426.638,469.385,426.638,469.385C426.638,469.385,285.969,610.054,285.969,610.054C277.532,618.492,267.526,622.71,255.954,622.71C244.38,622.71,234.374,618.492,225.938,610.054C225.938,610.054,157.955,542.071,157.955,542.071C149.518,533.635,145.299,523.629,145.299,512.056C145.299,500.483,149.518,490.478,157.955,482.04C157.955,482.04,396.623,243.373,396.623,243.373C405.06,234.935,415.066,230.716,426.638,230.716C438.212,230.716,448.218,234.935,456.654,243.373C456.654,243.373,456.654,243.373,456.654,243.373M1024,831.997C1024,831.997,1024,192.003,1024,192.003C1024,139.101,1005.221,93.892,967.665,56.335C930.108,18.779,884.899,0,831.997,0C831.997,0,192.003,0,192.003,0C139.101,0,93.892,18.779,56.335,56.335C18.779,93.892,0,139.101,0,192.003C0,192.003,0,831.997,0,831.997C0,884.899,18.779,930.108,56.335,967.665C93.892,1005.221,139.101,1024,192.003,1024C192.003,1024,831.997,1024,831.997,1024C884.899,1024,930.108,1005.221,967.665,967.665C1005.221,930.108,1024,884.899,1024,831.997C1024,831.997,1024,831.997,1024,831.997" /><glyph unicode="&#x0069;" d="M814.541,930.939C814.541,930.939,209.459,930.939,209.459,930.939C177.448,930.939,150.039,919.535,127.272,896.769C104.506,874.002,93.102,846.593,93.102,814.582C93.102,814.582,93.102,209.5,93.102,209.5C93.102,177.489,104.506,150.079,127.272,127.313C150.039,104.547,177.448,93.143,209.459,93.143C209.459,93.143,814.541,93.143,814.541,93.143C846.552,93.143,873.961,104.547,896.728,127.313C919.494,150.079,930.898,177.489,930.898,209.5C930.898,209.5,930.898,814.582,930.898,814.582C930.898,846.593,919.494,874.002,896.728,896.769C873.961,919.535,846.552,930.939,814.541,930.939C814.541,930.939,814.541,930.939,814.541,930.939M1024,814.541C1024,814.541,1024,209.459,1024,209.459C1024,151.749,1003.515,102.428,962.543,61.457C921.572,20.485,872.251,0,814.541,0C814.541,0,209.459,0,209.459,0C151.749,0,102.428,20.485,61.457,61.457C20.485,102.428,0,151.749,0,209.459C0,209.459,0,814.541,0,814.541C0,872.251,20.485,921.572,61.457,962.543C102.428,1003.515,151.749,1024,209.459,1024C209.459,1024,814.541,1024,814.541,1024C872.251,1024,921.572,1003.515,962.543,962.543C1003.515,921.572,1024,872.251,1024,814.541C1024,814.541,1024,814.541,1024,814.541" /><glyph unicode="&#x006A;" d="M837.796,535.276C837.796,535.276,837.796,488.724,837.796,488.724C837.796,481.923,835.597,476.343,831.238,471.986C826.881,467.628,821.302,465.428,814.5,465.428C814.5,465.428,209.418,465.428,209.418,465.428C202.618,465.428,197.037,467.628,192.68,471.986C188.321,476.343,186.122,481.923,186.122,488.724C186.122,488.724,186.122,535.276,186.122,535.276C186.122,542.077,188.321,547.657,192.68,552.014C197.037,556.372,202.618,558.572,209.418,558.572C209.418,558.572,814.5,558.572,814.5,558.572C821.302,558.572,826.881,556.372,831.238,552.014C835.597,547.657,837.796,542.077,837.796,535.276C837.796,535.276,837.796,535.276,837.796,535.276M930.898,209.459C930.898,209.459,930.898,814.541,930.898,814.541C930.898,846.552,919.494,873.961,896.728,896.728C873.961,919.494,846.552,930.898,814.541,930.898C814.541,930.898,209.459,930.898,209.459,930.898C177.448,930.898,150.039,919.494,127.272,896.728C104.506,873.961,93.102,846.552,93.102,814.541C93.102,814.541,93.102,209.459,93.102,209.459C93.102,177.448,104.506,150.039,127.272,127.272C150.039,104.506,177.448,93.102,209.459,93.102C209.459,93.102,814.541,93.102,814.541,93.102C846.552,93.102,873.961,104.506,896.728,127.272C919.494,150.039,930.898,177.448,930.898,209.459C930.898,209.459,930.898,209.459,930.898,209.459M1024,814.541C1024,814.541,1024,209.459,1024,209.459C1024,151.749,1003.515,102.428,962.543,61.457C921.572,20.485,872.251,0,814.541,0C814.541,0,209.459,0,209.459,0C151.749,0,102.428,20.485,61.457,61.457C20.485,102.428,0,151.749,0,209.459C0,209.459,0,814.541,0,814.541C0,872.251,20.485,921.572,61.457,962.543C102.428,1003.515,151.749,1024,209.459,1024C209.459,1024,814.541,1024,814.541,1024C872.251,1024,921.572,1003.515,962.543,962.543C1003.515,921.572,1024,872.251,1024,814.541C1024,814.541,1024,814.541,1024,814.541" /><glyph unicode="&#x006B;" d="M511.963,874.664C446.18,874.664,385.512,858.423,329.958,825.98C274.405,793.536,230.388,749.519,197.946,693.966C165.503,638.413,149.262,577.746,149.262,511.963C149.262,446.18,165.503,385.512,197.946,329.958C230.388,274.405,274.405,230.388,329.958,197.946C385.512,165.503,446.18,149.262,511.963,149.262C577.746,149.262,638.413,165.503,693.966,197.946C749.519,230.388,793.536,274.405,825.98,329.958C858.423,385.512,874.664,446.18,874.664,511.963C874.664,577.746,858.423,638.413,825.98,693.966C793.536,749.519,749.519,793.536,693.966,825.98C638.413,858.423,577.746,874.664,511.963,874.664C511.963,874.664,511.963,874.664,511.963,874.664M1024,512C1024,419.113,1001.114,333.431,955.342,254.991C909.571,176.553,847.447,114.429,769.009,68.658C690.569,22.886,604.887,0,512,0C419.113,0,333.431,22.886,254.991,68.658C176.553,114.429,114.429,176.553,68.658,254.991C22.886,333.431,0,419.113,0,512C0,604.887,22.886,690.569,68.658,769.009C114.429,847.447,176.553,909.571,254.991,955.342C333.431,1001.114,419.113,1024,512,1024C604.887,1024,690.569,1001.114,769.009,955.342C847.447,909.571,909.571,847.447,955.342,769.009C1001.114,690.569,1024,604.887,1024,512C1024,512,1024,512,1024,512" /><glyph unicode="&#x006C;" d="M1024,512C1024,419.113,1001.114,333.431,955.342,254.991C909.571,176.553,847.447,114.429,769.009,68.658C690.569,22.886,604.887,0,512,0C419.113,0,333.431,22.886,254.991,68.658C176.553,114.429,114.429,176.553,68.658,254.991C22.886,333.431,0,419.113,0,512C0,604.887,22.886,690.569,68.658,769.009C114.429,847.447,176.553,909.571,254.991,955.342C333.431,1001.114,419.113,1024,512,1024C604.887,1024,690.569,1001.114,769.009,955.342C847.447,909.571,909.571,847.447,955.342,769.009C1001.114,690.569,1024,604.887,1024,512C1024,512,1024,512,1024,512" /><glyph unicode="&#x006D;" d="M804.582,622.049C804.582,569.09,786.664,520.163,750.857,475.205C715.05,430.246,666.188,394.727,604.301,368.648C542.415,342.568,475.089,329.514,402.291,329.514C369.524,329.514,335.99,332.554,301.719,338.664C254.488,305.162,201.53,280.779,142.876,265.515C129.148,262.091,112.764,259.019,93.725,256.363C93.725,256.363,91.997,256.363,91.997,256.363C87.805,256.363,83.901,257.899,80.285,260.939C76.669,263.979,74.461,267.979,73.725,272.939C73.341,274.091,73.149,275.339,73.149,276.651C73.149,277.963,73.245,279.211,73.437,280.363C73.629,281.515,74.013,282.667,74.589,283.787C74.589,283.787,76.029,286.635,76.029,286.635C76.029,286.635,76.701,287.691,78.045,289.771C79.389,291.851,80.157,292.811,80.317,292.619C80.477,292.427,81.341,293.387,82.877,295.467C84.413,297.546,85.181,298.41,85.149,298.026C87.037,300.298,91.421,305.066,98.301,312.298C105.18,319.53,110.108,325.162,113.148,329.162C116.188,333.162,120.476,338.696,126.012,345.736C131.548,352.776,136.316,360.104,140.284,367.752C144.251,375.4,148.155,383.783,151.995,392.903C104.764,420.326,67.613,454.054,40.575,494.053C13.536,534.051,0,576.706,0,622.049C0,675.006,17.92,723.933,53.727,768.892C89.533,813.85,138.396,849.369,200.282,875.448C262.168,901.528,329.494,914.582,402.259,914.582C475.025,914.582,542.351,901.528,604.269,875.448C666.188,849.369,715.018,813.85,750.825,768.892C786.632,723.933,804.518,675.006,804.55,622.049C804.55,622.049,804.582,622.049,804.582,622.049M1024,475.749C1024,430.022,1010.464,387.271,983.425,347.464C956.387,307.658,919.236,274.027,872.005,246.604C875.813,237.452,879.717,229.068,883.716,221.452C887.716,213.836,892.452,206.509,897.988,199.437C903.524,192.365,907.812,186.861,910.852,182.861C913.892,178.861,918.852,173.261,925.699,165.999C932.547,158.735,936.931,153.999,938.851,151.727C939.235,151.343,940.003,150.479,941.123,149.167C942.243,147.855,943.107,146.895,943.683,146.319C944.259,145.743,945.027,144.783,945.955,143.471C946.883,142.159,947.555,141.103,947.971,140.335C947.971,140.335,949.411,137.487,949.411,137.487C949.411,137.487,949.795,136.335,950.563,134.063C951.331,131.792,951.427,130.544,950.851,130.352C950.275,130.16,950.083,128.912,950.275,126.64C949.123,121.296,946.659,117.104,942.851,114.064C939.043,111.024,934.851,109.68,930.275,110.064C911.236,112.72,894.852,115.792,881.124,119.216C822.47,134.447,769.512,158.831,722.281,192.365C688.01,186.253,654.476,183.213,621.709,183.213C518.479,183.213,428.563,208.365,351.988,258.635C374.1,257.131,390.835,256.363,402.259,256.363C463.602,256.363,522.447,264.939,578.83,282.091C635.212,299.242,685.482,323.818,729.673,355.816C777.288,390.855,813.862,431.238,839.398,476.965C864.933,522.691,877.701,571.074,877.669,622.113C877.669,651.455,873.285,680.382,864.517,708.957C913.668,681.918,952.515,647.999,981.089,607.233C1009.664,566.466,1023.936,522.659,1023.936,475.813C1023.936,475.813,1024,475.749,1024,475.749" /><glyph unicode="&#x006E;" d="M402.317,841.479C344.042,841.479,289.545,831.559,238.888,811.75C188.23,791.942,147.941,765.061,118.02,731.171C88.099,697.282,73.155,660.897,73.155,622.017C73.155,590.783,83.235,560.702,103.428,531.741C123.62,502.781,152.005,477.66,188.582,456.314C188.582,456.314,244.008,424.314,244.008,424.314C244.008,424.314,224.006,376.313,224.006,376.313C236.968,383.929,248.776,391.353,259.432,398.585C259.432,398.585,284.585,416.314,284.585,416.314C284.585,416.314,314.858,410.585,314.858,410.585C344.586,405.241,373.708,402.585,402.285,402.585C460.558,402.585,515.057,412.505,565.714,432.314C616.371,452.122,656.66,479.004,686.582,512.893C716.502,546.782,731.447,583.167,731.447,622.049C731.447,660.929,716.502,697.314,686.582,731.203C656.66,765.093,616.371,791.974,565.714,811.782C515.057,831.591,460.558,841.511,402.285,841.511C402.285,841.511,402.317,841.479,402.317,841.479M402.317,914.634C475.087,914.634,542.417,901.576,604.339,875.496C666.26,849.415,715.094,813.894,750.903,768.933C786.712,723.971,804.602,675.042,804.634,622.081C804.666,569.118,786.744,520.189,750.903,475.228C715.062,430.266,666.196,394.745,604.339,368.664C542.481,342.584,475.119,329.526,402.317,329.526C369.548,329.526,336.01,332.566,301.737,338.68C254.504,305.174,201.542,280.789,142.884,265.525C129.156,262.101,112.772,259.029,93.731,256.373C93.731,256.373,92.003,256.373,92.003,256.373C87.811,256.373,83.907,257.909,80.291,260.949C76.675,263.989,74.467,267.989,73.731,272.949C73.347,274.101,73.155,275.349,73.155,276.661C73.155,277.973,73.251,279.221,73.443,280.373C73.635,281.525,74.019,282.677,74.595,283.797C74.595,283.797,76.035,286.645,76.035,286.645C76.035,286.645,76.707,287.701,78.051,289.781C79.395,291.861,80.163,292.821,80.323,292.629C80.483,292.437,81.347,293.398,82.883,295.478C84.419,297.558,85.187,298.422,85.155,298.038C87.043,300.31,91.427,305.078,98.307,312.31C105.188,319.542,110.116,325.174,113.156,329.174C116.196,333.174,120.484,338.712,126.02,345.752C131.556,352.792,136.324,360.12,140.292,367.768C144.261,375.417,148.165,383.801,152.005,392.921C104.772,420.346,67.619,454.074,40.577,494.076C13.536,534.077,0,576.734,0,622.081C0,675.042,17.92,723.971,53.729,768.933C89.539,813.894,138.404,849.415,200.294,875.496C262.184,901.576,329.514,914.634,402.285,914.634C402.285,914.634,402.317,914.634,402.317,914.634M872.059,246.612C875.867,237.46,879.771,229.076,883.772,221.46C887.772,213.844,892.508,206.515,898.044,199.443C903.58,192.371,907.868,186.867,910.908,182.867C913.948,178.867,918.908,173.267,925.757,166.001C932.605,158.737,936.989,154.001,938.909,151.729C939.293,151.345,940.061,150.481,941.181,149.169C942.301,147.857,943.165,146.897,943.741,146.321C944.317,145.745,945.085,144.785,946.013,143.473C946.941,142.161,947.613,141.105,948.029,140.337C948.029,140.337,949.469,137.489,949.469,137.489C949.469,137.489,949.853,136.337,950.621,134.065C951.389,131.793,951.485,130.545,950.909,130.353C950.333,130.161,950.141,128.912,950.333,126.64C949.181,121.296,946.717,117.104,942.909,114.064C939.101,111.024,934.909,109.68,930.333,110.064C911.292,112.72,894.908,115.792,881.18,119.216C822.522,134.449,769.56,158.833,722.327,192.371C688.054,186.259,654.516,183.219,621.747,183.219C518.513,183.219,428.589,208.371,352.012,258.645C374.124,257.141,390.861,256.373,402.285,256.373C463.63,256.373,522.481,264.949,578.866,282.101C635.252,299.254,685.526,323.83,729.719,355.832C777.336,390.873,813.914,431.258,839.45,476.988C864.987,522.717,877.755,571.102,877.723,622.145C877.723,651.489,873.339,680.418,864.571,708.995C913.724,681.954,952.573,648.033,981.151,607.263C1009.728,566.494,1024,522.685,1024,475.836C1024,430.106,1010.464,387.353,983.423,347.544C956.381,307.734,919.228,274.101,871.995,246.676C871.995,246.676,872.059,246.612,872.059,246.612" /><glyph unicode="&#x006F;" d="M1023.885,528.442C1023.885,519.537,1020.438,511.667,1013.601,504.83C1013.601,504.83,535.555,26.784,535.555,26.784C528.718,19.947,520.847,16.5,511.942,16.5C503.037,16.5,495.167,19.947,488.33,26.784C488.33,26.784,10.284,504.83,10.284,504.83C3.447,511.667,0,519.537,0,528.442C0,537.347,3.447,545.218,10.284,552.055C10.284,552.055,61.587,603.358,61.587,603.358C68.424,610.195,76.294,613.642,85.199,613.642C94.104,613.642,101.975,610.195,108.812,603.358C108.812,603.358,512,200.17,512,200.17C512,200.17,915.188,603.358,915.188,603.358C922.025,610.195,929.896,613.642,938.801,613.642C947.706,613.642,955.576,610.195,962.413,603.358C962.413,603.358,1013.716,552.055,1013.716,552.055C1020.553,545.218,1024,537.347,1024,528.442C1024,528.442,1023.885,528.442,1023.885,528.442M1023.885,922.439C1023.885,913.534,1020.438,905.664,1013.601,898.827C1013.601,898.827,535.555,420.78,535.555,420.78C528.718,413.944,520.847,410.497,511.942,410.497C503.037,410.497,495.167,413.944,488.33,420.78C488.33,420.78,10.284,898.827,10.284,898.827C3.447,905.664,0,913.534,0,922.439C0,931.344,3.447,939.215,10.284,946.051C10.284,946.051,61.587,997.355,61.587,997.355C68.424,1004.192,76.294,1007.639,85.199,1007.639C94.104,1007.639,101.975,1004.192,108.812,997.355C108.812,997.355,512,594.167,512,594.167C512,594.167,915.188,997.355,915.188,997.355C922.025,1004.192,929.896,1007.639,938.801,1007.639C947.706,1007.639,955.576,1004.192,962.413,997.355C962.413,997.355,1013.716,946.051,1013.716,946.051C1020.553,939.215,1024,931.344,1024,922.439C1024,922.439,1023.885,922.439,1023.885,922.439" /><glyph unicode="&#x0070;" d="M512,73.5C502.112,73.5,493.728,76.924,486.848,83.772C486.848,83.772,130.272,427.772,130.272,427.772C126.464,430.812,121.216,435.772,114.56,442.62C107.904,449.468,97.344,461.948,82.848,480.06C68.352,498.172,55.424,516.732,44,535.772C32.576,554.812,22.4,577.852,13.44,604.924C4.48,631.996,0,658.268,0,683.772C0,767.58,24.192,833.116,72.576,880.348C120.96,927.58,187.808,951.196,273.152,951.196C296.768,951.196,320.864,947.1,345.44,938.908C370.016,930.716,392.864,919.676,414.016,905.756C435.168,891.836,453.344,878.812,468.576,866.62C483.808,854.428,498.272,841.5,512,827.772C525.728,841.5,540.192,854.428,555.424,866.62C570.656,878.812,588.832,891.836,609.984,905.756C631.136,919.676,653.984,930.716,678.56,938.908C703.136,947.1,727.232,951.196,750.848,951.196C836.192,951.196,903.04,927.58,951.424,880.348C999.808,833.116,1024,767.58,1024,683.772C1024,599.58,980.384,513.884,893.152,426.62C893.152,426.62,537.152,83.772,537.152,83.772C530.304,76.924,521.92,73.5,512,73.5C512,73.5,512,73.5,512,73.5" /><glyph unicode="&#x0071;" d="M737.847,254.225C740.998,246.725,740.037,239.822,734.893,233.485C734.893,233.485,527.492,5.94,527.492,5.94C523.543,1.992,518.996,0,513.852,0C508.311,0,503.566,1.992,499.616,5.94C499.616,5.94,289.262,233.485,289.262,233.485C284.118,239.822,283.155,246.725,286.308,254.225C289.858,261.724,295.599,265.475,303.498,265.475C303.498,265.475,436.234,265.475,436.234,265.475C436.234,265.475,436.234,1005.019,436.234,1005.019C436.234,1010.56,438.026,1015.107,441.577,1018.657C445.128,1022.208,449.674,1024,455.216,1024C455.216,1024,569.005,1024,569.005,1024C574.547,1024,579.092,1022.208,582.643,1018.657C586.194,1015.107,587.986,1010.56,587.986,1005.019C587.986,1005.019,587.986,265.475,587.986,265.475C587.986,265.475,720.723,265.475,720.723,265.475C729.019,265.475,734.761,261.724,737.912,254.225C737.912,254.225,737.847,254.225,737.847,254.225" /><glyph unicode="&#x0072;" d="M255.963,85.808C255.963,85.808,767.963,85.808,767.963,85.808C767.963,85.808,767.963,341.808,767.963,341.808C767.963,341.808,255.963,341.808,255.963,341.808C255.963,341.808,255.963,85.808,255.963,85.808C255.963,85.808,255.963,85.808,255.963,85.808M853.308,85.808C853.308,85.808,938.655,85.808,938.655,85.808C938.655,85.808,938.655,683.155,938.655,683.155C938.655,689.39,936.415,697.939,931.972,708.84C927.529,719.742,923.086,727.395,918.643,731.838C918.643,731.838,731.301,919.18,731.301,919.18C726.858,923.623,719.279,928.066,708.639,932.509C697.998,936.952,689.338,939.155,682.655,939.192C682.655,939.192,682.655,661.836,682.655,661.836C682.655,644.065,676.42,628.945,663.987,616.513C651.555,604.08,636.435,597.845,618.664,597.845C618.664,597.845,234.644,597.845,234.644,597.845C216.874,597.845,201.754,604.08,189.321,616.513C176.89,628.945,170.655,644.065,170.655,661.836C170.655,661.836,170.655,939.192,170.655,939.192C170.655,939.192,85.308,939.192,85.308,939.192C85.308,939.192,85.308,85.845,85.308,85.845C85.308,85.845,170.655,85.845,170.655,85.845C170.655,85.845,170.655,363.201,170.655,363.201C170.655,380.972,176.89,396.092,189.321,408.524C201.754,420.957,216.874,427.192,234.644,427.192C234.644,427.192,789.318,427.192,789.318,427.192C807.089,427.192,822.209,420.957,834.642,408.524C847.073,396.092,853.308,380.972,853.308,363.201C853.308,363.201,853.308,85.845,853.308,85.845C853.308,85.845,853.308,85.808,853.308,85.808M597.308,704.509C597.308,704.509,597.308,917.836,597.308,917.836C597.308,923.623,595.181,928.625,590.962,932.844C586.743,937.063,581.74,939.192,575.954,939.192C575.954,939.192,447.935,939.192,447.935,939.192C442.148,939.192,437.146,937.063,432.927,932.844C428.708,928.625,426.579,923.623,426.579,917.836C426.579,917.836,426.579,704.509,426.579,704.509C426.579,698.722,428.708,693.72,432.927,689.501C437.146,685.282,442.148,683.155,447.935,683.155C447.935,683.155,575.954,683.155,575.954,683.155C581.74,683.155,586.743,685.282,590.962,689.501C595.181,693.72,597.308,698.722,597.308,704.509C597.308,704.509,597.308,704.509,597.308,704.509M1024,683.155C1024,683.155,1024,64.491,1024,64.491C1024,46.72,1017.765,31.599,1005.332,19.168C992.901,6.735,977.78,0.5,960.009,0.5C960.009,0.5,63.991,0.5,63.991,0.5C46.22,0.5,31.099,6.735,18.668,19.168C6.235,31.599,0,46.72,0,64.491C0,64.491,0,960.509,0,960.509C0,978.28,6.235,993.401,18.668,1005.832C31.099,1018.265,46.22,1024.5,63.991,1024.5C63.991,1024.5,682.655,1024.5,682.655,1024.5C700.425,1024.5,719.988,1020.057,741.306,1011.171C762.624,1002.286,779.537,991.609,791.968,979.176C791.968,979.176,978.639,792.506,978.639,792.506C991.071,780.074,1001.748,763.161,1010.634,741.844C1019.52,720.526,1023.963,700.962,1023.963,683.192C1023.963,683.192,1024,683.155,1024,683.155" /><glyph unicode="&#x0073;" d="M699.679,402.46C699.679,402.46,887.98,585.245,887.98,585.245C887.98,585.245,628.274,623.396,628.274,623.396C628.274,623.396,511.965,858.46,511.965,858.46C511.965,858.46,395.657,623.396,395.657,623.396C395.657,623.396,135.953,585.245,135.953,585.245C135.953,585.245,324.252,402.46,324.252,402.46C324.252,402.46,279.314,143.375,279.314,143.375C279.314,143.375,511.931,265.853,511.931,265.853C511.931,265.853,743.928,143.375,743.928,143.375C743.928,143.375,699.679,402.46,699.679,402.46M1023.965,622.154C1023.965,613.125,1018.624,603.269,1007.976,592.621C1007.976,592.621,784.594,374.788,784.594,374.788C784.594,374.788,837.527,67.077,837.527,67.077C837.94,64.218,838.147,60.116,838.147,54.775C838.147,34.269,829.738,24,812.922,24C805.133,24,796.931,26.447,788.315,31.375C788.315,31.375,512,176.598,512,176.598C512,176.598,235.685,31.375,235.685,31.375C226.656,26.447,218.454,24,211.078,24C202.464,24,195.985,26.963,191.677,32.925C187.369,38.888,185.198,46.159,185.198,54.775C185.198,57.221,185.612,61.322,186.438,67.077C186.438,67.077,239.372,374.788,239.372,374.788C239.372,374.788,15.37,592.621,15.37,592.621C5.135,603.683,0,613.54,0,622.154C0,637.353,11.475,646.761,34.461,650.447C34.461,650.447,343.378,695.386,343.378,695.386C343.378,695.386,481.846,975.389,481.846,975.389C489.635,992.206,499.697,1000.614,512,1000.614C524.303,1000.614,534.365,992.206,542.154,975.389C542.154,975.389,680.622,695.386,680.622,695.386C680.622,695.386,989.539,650.447,989.539,650.447C1012.525,646.761,1024,637.318,1024,622.154C1024,622.154,1023.965,622.154,1023.965,622.154" /><glyph unicode="&#x0074;" d="M729.865,431.442C729.865,431.442,888.024,585.293,888.024,585.293C888.024,585.293,628.299,623.446,628.299,623.446C628.299,623.446,609.825,660.358,609.825,660.358C609.825,660.358,511.98,858.53,511.98,858.53C511.98,858.53,511.98,265.874,511.98,265.874C511.98,265.874,548.306,246.781,548.306,246.781C548.306,246.781,744.031,143.386,744.031,143.386C744.031,143.386,707.119,361.858,707.119,361.858C707.119,361.858,699.744,402.493,699.744,402.493C699.744,402.493,729.865,431.442,729.865,431.442M1008.031,592.669C1008.031,592.669,784.631,374.817,784.631,374.817C784.631,374.817,837.569,67.081,837.569,67.081C839.602,53.537,838.396,42.991,833.881,35.373C829.367,27.758,822.403,23.966,812.961,24C805.964,24,797.762,26.447,788.352,31.376C788.352,31.376,512.015,176.611,512.015,176.611C512.015,176.611,235.677,31.376,235.677,31.376C226.233,26.447,218.03,24,211.068,24C201.626,24,194.663,27.793,190.148,35.373C185.633,42.956,184.427,53.537,186.46,67.081C186.46,67.081,239.399,374.817,239.399,374.817C239.399,374.817,15.378,592.669,15.378,592.669C2.246,605.801,-2.475,618.001,1.213,629.305C4.9,640.609,15.962,647.674,34.437,650.535C34.437,650.535,343.379,695.477,343.379,695.477C343.379,695.477,481.858,975.503,481.858,975.503C490.06,992.322,500.124,1000.732,512.015,1000.732C523.491,1000.732,533.555,992.322,542.171,975.503C542.171,975.503,680.651,695.477,680.651,695.477C680.651,695.477,989.592,650.535,989.592,650.535C1008.065,647.674,1019.129,640.575,1022.816,629.305C1026.504,618.036,1021.576,605.801,1008.031,592.669C1008.031,592.669,1008.031,592.669,1008.031,592.669" /><glyph unicode="&#x0075;" d="M1024,622.154C1024,613.125,1018.659,603.269,1008.01,592.621C1008.01,592.621,784.628,374.788,784.628,374.788C784.628,374.788,837.562,67.077,837.562,67.077C837.975,64.218,838.181,60.116,838.181,54.775C838.181,46.159,836.01,38.888,831.703,32.925C827.395,26.963,821.123,24,812.922,24C805.133,24,796.931,26.447,788.315,31.375C788.315,31.375,512,176.598,512,176.598C512,176.598,235.685,31.375,235.685,31.375C226.656,26.447,218.454,24,211.078,24C202.464,24,195.985,26.963,191.677,32.925C187.369,38.888,185.198,46.159,185.198,54.775C185.198,57.221,185.612,61.322,186.438,67.077C186.438,67.077,239.372,374.788,239.372,374.788C239.372,374.788,15.37,592.621,15.37,592.621C5.135,603.683,0,613.54,0,622.154C0,637.353,11.475,646.761,34.461,650.447C34.461,650.447,343.378,695.386,343.378,695.386C343.378,695.386,481.846,975.389,481.846,975.389C489.635,992.206,499.697,1000.614,512,1000.614C524.303,1000.614,534.365,992.206,542.154,975.389C542.154,975.389,680.622,695.386,680.622,695.386C680.622,695.386,989.539,650.447,989.539,650.447C1012.525,646.761,1024,637.318,1024,622.154C1024,622.154,1024,622.154,1024,622.154" /><glyph unicode="&#x0076;" d="M303.29,807.694C303.29,831.576,294.85,851.94,277.932,868.858C261.013,885.777,240.651,894.217,216.769,894.217C192.885,894.217,172.523,885.777,155.604,868.858C138.686,851.94,130.246,831.576,130.246,807.694C130.246,783.812,138.686,763.448,155.604,746.531C172.523,729.612,192.885,721.171,216.769,721.171C240.651,721.171,261.013,729.612,277.932,746.531C294.85,763.448,303.29,783.812,303.29,807.694C303.29,807.694,303.29,807.694,303.29,807.694M1024.462,418.381C1024.462,394.499,1016.135,374.249,999.444,357.558C999.444,357.558,667.586,25.018,667.586,25.018C650.023,8.326,629.51,0,606.081,0C582.199,0,561.949,8.326,545.258,25.018C545.258,25.018,62.004,508.954,62.004,508.954C44.858,525.645,30.325,548.392,18.402,577.233C6.48,606.074,0.5,632.416,0.5,656.298C0.5,656.298,0.5,937.477,0.5,937.477C0.5,960.906,9.054,981.193,26.2,998.3C43.345,1015.409,63.594,1023.962,87.023,1024C87.023,1024,368.202,1024,368.202,1024C392.084,1024,418.426,1018.02,447.267,1006.098C476.108,994.175,499.083,979.642,516.19,962.496C516.19,962.496,999.444,479.923,999.444,479.923C1016.135,462.362,1024.462,441.847,1024.462,418.419C1024.462,418.419,1024.462,418.381,1024.462,418.381" /><glyph unicode="&#x0077;" d="M630.162,610.417C630.162,610.417,630.162,571.03,630.162,571.03C630.162,565.688,628.197,561.07,624.303,557.176C620.41,553.283,615.793,551.318,610.451,551.318C610.451,551.318,472.613,551.318,472.613,551.318C472.613,551.318,472.613,413.48,472.613,413.48C472.613,408.14,470.648,403.521,466.755,399.628C462.861,395.734,458.243,393.769,452.902,393.769C452.902,393.769,413.514,393.769,413.514,393.769C408.173,393.769,403.556,395.734,399.662,399.628C395.768,403.521,393.804,408.14,393.804,413.48C393.804,413.48,393.804,551.318,393.804,551.318C393.804,551.318,255.965,551.318,255.965,551.318C250.624,551.318,246.007,553.283,242.113,557.176C238.218,561.07,236.255,565.688,236.255,571.03C236.255,571.03,236.255,610.417,236.255,610.417C236.255,615.758,238.218,620.375,242.113,624.269C246.007,628.163,250.624,630.127,255.965,630.127C255.965,630.127,393.804,630.127,393.804,630.127C393.804,630.127,393.804,767.965,393.804,767.965C393.804,773.307,395.768,777.924,399.662,781.819C403.556,785.713,408.173,787.676,413.514,787.676C413.514,787.676,452.902,787.676,452.902,787.676C458.243,787.676,462.861,785.713,466.755,781.819C470.648,777.924,472.613,773.307,472.613,767.965C472.613,767.965,472.613,630.127,472.613,630.127C472.613,630.127,610.451,630.127,610.451,630.127C615.793,630.127,620.41,628.163,624.303,624.269C628.197,620.375,630.162,615.758,630.162,610.417C630.162,610.417,630.162,610.417,630.162,610.417M708.902,590.74C708.902,666.655,681.92,731.576,627.991,785.505C574.062,839.434,509.14,866.417,433.225,866.417C357.311,866.417,292.389,839.434,238.46,785.505C184.531,731.576,157.549,666.655,157.549,590.74C157.549,514.826,184.531,449.903,238.46,395.974C292.389,342.045,357.311,315.063,433.225,315.063C509.14,315.063,574.062,342.045,627.991,395.974C681.92,449.903,708.902,514.826,708.902,590.74C708.902,590.74,708.902,590.74,708.902,590.74M1023.965,78.775C1023.965,57.03,1016.282,38.491,1000.878,23.087C985.475,7.684,966.935,0,945.19,0C923.034,0,904.598,7.788,889.815,23.398C889.815,23.398,678.749,233.842,678.749,233.842C605.316,182.98,523.475,157.549,433.225,157.549C374.541,157.549,318.441,168.92,264.925,191.698C211.41,214.477,165.234,245.248,126.467,284.015C87.699,322.783,56.927,368.959,34.149,422.474C11.372,475.99,0,532.09,0,590.775C0,649.459,11.372,705.559,34.149,759.075C56.927,812.59,87.699,858.766,126.467,897.533C165.234,936.301,211.41,967.073,264.925,989.851C318.441,1012.628,374.541,1024,433.225,1024C491.91,1024,548.01,1012.628,601.526,989.851C655.041,967.073,701.217,936.301,739.985,897.533C778.752,858.766,809.523,812.59,832.302,759.075C855.08,705.559,866.451,649.459,866.451,590.775C866.451,500.525,841.02,418.684,790.158,345.251C790.158,345.251,1001.222,134.185,1001.222,134.185C1016.419,118.989,1024,100.553,1024,78.81C1024,78.81,1023.965,78.775,1023.965,78.775" /><glyph unicode="&#x0078;" d="M630.162,610.417C630.162,610.417,630.162,571.03,630.162,571.03C630.162,565.688,628.197,561.07,624.303,557.176C620.41,553.283,615.793,551.318,610.451,551.318C610.451,551.318,256,551.318,256,551.318C250.659,551.318,246.042,553.283,242.148,557.176C238.253,561.07,236.289,565.688,236.289,571.03C236.289,571.03,236.289,610.417,236.289,610.417C236.289,615.758,238.253,620.375,242.148,624.269C246.042,628.163,250.659,630.127,256,630.127C256,630.127,610.451,630.127,610.451,630.127C615.793,630.127,620.41,628.163,624.303,624.269C628.197,620.375,630.162,615.758,630.162,610.417C630.162,610.417,630.162,610.417,630.162,610.417M708.902,590.74C708.902,666.655,681.92,731.576,627.991,785.505C574.062,839.434,509.14,866.417,433.225,866.417C357.311,866.417,292.389,839.434,238.46,785.505C184.531,731.576,157.549,666.655,157.549,590.74C157.549,514.826,184.531,449.903,238.46,395.974C292.389,342.045,357.311,315.063,433.225,315.063C509.14,315.063,574.062,342.045,627.991,395.974C681.92,449.903,708.902,514.826,708.902,590.74C708.902,590.74,708.902,590.74,708.902,590.74M1023.965,78.775C1023.965,57.03,1016.282,38.491,1000.878,23.087C985.475,7.684,966.935,0,945.19,0C923.034,0,904.598,7.788,889.815,23.398C889.815,23.398,678.749,233.842,678.749,233.842C605.316,182.98,523.475,157.549,433.225,157.549C374.541,157.549,318.441,168.92,264.925,191.698C211.41,214.477,165.234,245.248,126.467,284.015C87.699,322.783,56.927,368.959,34.149,422.474C11.372,475.99,0,532.09,0,590.775C0,649.459,11.372,705.559,34.149,759.075C56.927,812.59,87.699,858.766,126.467,897.533C165.234,936.301,211.41,967.073,264.925,989.851C318.441,1012.628,374.541,1024,433.225,1024C491.91,1024,548.01,1012.628,601.526,989.851C655.041,967.073,701.217,936.301,739.985,897.533C778.752,858.766,809.523,812.59,832.302,759.075C855.08,705.559,866.451,649.459,866.451,590.775C866.451,500.525,841.02,418.684,790.158,345.251C790.158,345.251,1001.222,134.185,1001.222,134.185C1016.419,118.989,1024,100.553,1024,78.81C1024,78.81,1023.965,78.775,1023.965,78.775" /></font>
</defs>
</svg>
