<?xml version="1.0" standalone="no"?><!DOCTYPE svg PUBLIC "-//W3C//DTD SVG 1.1//EN" "http://www.w3.org/Graphics/SVG/1.1/DTD/svg11.dtd" ><svg xmlns="http://www.w3.org/2000/svg"><metadata>Generated by Glyphter</metadata><defs><font id="Glyphter" horiz-adv-x="1024"><font-face units-per-em="1024" ascent="960" descent="-64" font-family="Glyphter" font-weight="normal" /><missing-glyph horiz-adv-x="1024" /><glyph unicode="&#x0041;" d="M400,625C250.925,625,125,544.85,125,450C125,443.1,130.6,437.5,137.5,437.5C144.4,437.5,150,443.1,150,450C150,529.9,266.825,600,400,600C406.875,600,412.5,605.6,412.5,612.5C412.5,619.4,406.9,625,400,625C400,625,400,625,400,625M400,750C179.075,750,0,615.675,0,450C0,346.825,69.475,255.85,175.2,201.85C175.2,201.175,175,200.725,175,200C175,155.175,141.525,106.925,126.8,81.6C126.825,81.6,126.85,81.6,126.85,81.6C125.675,78.85,125,75.825,125,72.65C125,60.15,135.125,50,147.65,50C150,50,154.125,50.625,154.025,50.35C232.15,63.15,305.75,134.925,322.85,155.725C347.825,152.05,373.575,150,400,150C620.875,150,800,284.325,800,450C800,615.675,620.9,750,400,750C400,750,400,750,400,750M400,200C377.075,200,353.55,201.75,330.1,205.175C327.675,205.575,325.25,205.7,322.85,205.7C308,205.7,293.775,199.1,284.2,187.45C273.5,174.425,243.05,145.35,207.075,123.975C216.825,146.35,224.45,171.425,224.975,197.275C225.125,198.875,225.2,200.5,225.2,201.875C225.2,220.675,214.675,237.85,197.95,246.4C105.3,293.7,50,369.825,50,450C50,587.85,207,700,400,700C592.95,700,750,587.85,750,450C750,312.15,592.975,200,400,200C400,200,400,200,400,200" /><glyph unicode="&#x0042;" d="M733.35,725C733.35,725,625,725,625,725C625,725,625,775,625,775C625,788.825,613.825,800,600,800C586.175,800,575,788.825,575,775C575,775,575,725,575,725C575,725,425,725,425,725C425,725,425,775,425,775C425,788.825,413.8,800,400,800C386.2,800,375,788.825,375,775C375,775,375,725,375,725C375,725,225,725,225,725C225,725,225,775,225,775C225,788.825,213.8,800,200,800C186.2,800,175,788.825,175,775C175,775,175,725,175,725C175,725,66.675,725,66.675,725C29.85,725,0,695.175,0,658.35C0,658.35,0,66.675,0,66.675C0,29.85,29.85,0,66.675,0C66.675,0,733.35,0,733.35,0C770.175,0,800,29.85,800,66.675C800,66.675,800,658.35,800,658.35C800,695.175,770.175,725,733.35,725C733.35,725,733.35,725,733.35,725M750,66.675C750,57.475,742.525,50,733.35,50C733.35,50,66.675,50,66.675,50C57.475,50,50,57.475,50,66.675C50,66.675,50,658.35,50,658.35C50,667.525,57.475,675,66.675,675C66.675,675,175,675,175,675C175,675,175,625,175,625C175,611.175,186.2,600,200,600C213.8,600,225,611.175,225,625C225,625,225,675,225,675C225,675,375,675,375,675C375,675,375,625,375,625C375,611.175,386.2,600,400,600C413.8,600,425,611.175,425,625C425,625,425,675,425,675C425,675,575,675,575,675C575,675,575,625,575,625C575,611.175,586.175,600,600,600C613.825,600,625,611.175,625,625C625,625,625,675,625,675C625,675,733.35,675,733.35,675C742.525,675,750,667.525,750,658.35C750,658.35,750,66.675,750,66.675C750,66.675,750,66.675,750,66.675M175,500C175,500,175,425,175,425C175,425,275,425,275,425C275,425,275,500,275,500C275,500,175,500,175,500M175,375C175,375,175,300,175,300C175,300,275,300,275,300C275,300,275,375,275,375C275,375,175,375,175,375M175,250C175,250,175,175,175,175C175,175,275,175,275,175C275,175,275,250,275,250C275,250,175,250,175,250M350,250C350,250,350,175,350,175C350,175,450,175,450,175C450,175,450,250,450,250C450,250,350,250,350,250M350,375C350,375,350,300,350,300C350,300,450,300,450,300C450,300,450,375,450,375C450,375,350,375,350,375M350,500C350,500,350,425,350,425C350,425,450,425,450,425C450,425,450,500,450,500C450,500,350,500,350,500M525,250C525,250,525,175,525,175C525,175,625,175,625,175C625,175,625,250,625,250C625,250,525,250,525,250M525,375C525,375,525,300,525,300C525,300,625,300,625,300C625,300,625,375,625,375C625,375,525,375,525,375M525,500C525,500,525,425,525,425C525,425,625,425,625,425C625,425,625,500,625,500C625,500,525,500,525,500" /><glyph unicode="&#x0043;" d="M400,800C248.1,800,125,676.9,125,525C125,424.225,217.2,317.425,250.775,223.625C300.85,83.75,295.3,0,400,0C506.25,0,499.125,83.35,549.225,223.05C582.9,317.05,675,425,675,525C675,676.9,551.85,800,400,800C400,800,400,800,400,800M464.8,120.6C464.8,120.6,340.85,105.125,340.85,105.125C336.425,117.925,331.675,132.9,325.9,152.45C325.825,152.7,325.725,152.975,325.675,153.225C325.675,153.225,480.375,172.55,480.375,172.55C478.175,165.175,475.825,157.425,473.775,150.475C470.5,139.25,467.575,129.5,464.8,120.6C464.8,120.6,464.8,120.6,464.8,120.6M318.4,177.3C313.85,192.35,308.725,208.2,303.025,225C303.025,225,497.175,225,497.175,225C494.1,216.025,491.025,207.025,488.375,198.525C488.375,198.525,318.4,177.3,318.4,177.3C318.4,177.3,318.4,177.3,318.4,177.3M400,50C374.675,50,363.025,52.925,350.075,81.25C350.075,81.25,456.025,94.525,456.025,94.525C440.675,53.175,429.5,50,400,50C400,50,400,50,400,50M516.8,275C516.8,275,283.475,275,283.475,275C271.025,302,256.075,329,241.325,355.425C208.7,413.8,175,474.175,175,525C175,649.075,275.925,750,400,750C524.075,750,625,649.075,625,525C625,474.55,591.25,413.85,558.6,355.125C544,328.8,529.15,301.85,516.8,275C516.8,275,516.8,275,516.8,275M400,675C317.275,675,250,607.725,250,525C250,518.1,255.6,512.5,262.5,512.5C269.4,512.5,275,518.1,275,525C275,593.925,331.075,650,400,650C406.9,650,412.5,655.6,412.5,662.5C412.5,669.4,406.875,675,400,675C400,675,400,675,400,675" /><glyph unicode="&#x0044;" d="M734.577,696.578C646.729,784.476,504.257,784.476,416.409,696.578C416.409,696.578,51.668,336.162,51.668,336.162C-16.556,267.938,-16.556,156.891,51.668,88.668C119.891,20.444,230.913,20.444,299.112,88.668C299.112,88.668,663.853,449.109,663.853,449.109C712.677,497.933,712.677,577.056,663.853,625.88C615.029,674.679,535.881,674.679,487.107,625.88C487.107,625.88,212.914,351.686,212.914,351.686C203.139,341.887,203.139,326.112,212.914,316.312C222.689,306.537,238.488,306.537,248.263,316.312C248.263,316.312,522.482,590.531,522.482,590.531C551.731,619.755,599.28,619.755,628.529,590.531C657.778,561.281,657.778,513.708,628.529,484.458C628.529,484.458,263.788,124.042,263.788,124.042C214.964,75.218,135.866,75.218,87.042,124.042C38.218,172.841,38.218,251.989,87.042,300.788C87.042,300.788,448.208,657.704,448.208,657.704C516.557,726.053,627.404,726.053,695.652,657.704C764.051,589.331,764.051,478.583,695.702,410.235C695.702,410.235,425.059,139.566,425.059,139.566C415.234,129.767,415.234,113.992,425.059,104.217C434.834,94.417,450.633,94.417,460.408,104.217C460.408,104.217,734.577,378.411,734.577,378.411C822.474,466.259,822.474,608.73,734.577,696.578C734.577,696.578,734.577,696.578,734.577,696.578" /><glyph unicode="&#x0045;" d="M647.845,483.937C636.92,598.015,541.942,687.518,424.988,687.518C334.51,687.518,257.058,633.816,221.332,556.764C210.582,560.164,199.381,562.514,187.506,562.514C125.379,562.514,75.002,512.112,75.002,450.011C75.002,437.66,77.477,425.985,81.153,414.909C32.826,386.734,0,335.032,0,275.055C0,185.302,72.752,112.55,162.505,112.55C162.505,112.55,162.505,112.5,162.505,112.5C162.505,112.5,612.494,112.5,612.494,112.5C612.494,112.5,612.494,112.55,612.494,112.55C716.072,112.55,800,196.478,800,300.056C800,391.459,734.473,467.386,647.845,483.937C647.845,483.937,647.845,483.937,647.845,483.937M612.494,162.552C612.494,162.552,612.494,162.502,612.494,162.502C612.494,162.502,162.505,162.502,162.505,162.502C100.478,162.552,50.002,213.003,50.002,275.055C50.002,315.056,71.077,351.182,106.353,371.733C140.629,391.409,142.979,395.309,128.604,430.66C126.179,437.935,125.004,444.26,125.004,449.986C125.004,484.462,153.03,512.487,187.506,512.487C187.506,512.487,203.906,513.663,221.332,506.737C250.008,495.312,253.133,506.237,266.683,535.713C295.359,597.54,357.486,637.516,424.988,637.516C514.991,637.516,589.393,569.439,598.094,479.161C601.169,443.36,601.169,443.36,638.47,434.835C703.122,422.485,749.998,365.783,749.998,300.056C749.998,224.228,688.322,162.552,612.494,162.552C612.494,162.552,612.494,162.552,612.494,162.552" /><glyph unicode="&#x0046;" d="M400,800C231.4,800,50,749.175,50,637.5C50,637.5,50,162.5,50,162.5C50,50.875,231.4,0,400,0C568.575,0,750,50.875,750,162.5C750,162.5,750,637.5,750,637.5C750,749.175,568.55,800,400,800C400,800,400,800,400,800M700,162.5C700,100.4,565.675,50,400,50C234.3,50,100,100.4,100,162.5C100,162.5,100,255.9,100,255.9C151.65,202.675,276.25,175,400,175C523.75,175,648.35,202.675,700,255.9C700,255.9,700,162.5,700,162.5C700,162.5,700,162.5,700,162.5M700,312.5C700,312.5,699.9,312.5,699.9,312.5C699.9,312.25,700,311.975,700,311.725C700,250,565.675,200,400,200C234.325,200,100,250,100,311.725C100,311.975,100.1,312.25,100.1,312.5C100.1,312.5,100,312.5,100,312.5C100,312.5,100,405.9,100,405.9C151.65,352.675,276.25,325,400,325C523.75,325,648.35,352.675,700,405.9C700,405.9,700,312.5,700,312.5C700,312.5,700,312.5,700,312.5M700,462.5C700,462.5,699.9,462.5,699.9,462.5C699.9,462.25,700,461.975,700,461.725C700,400,565.675,350,400,350C234.325,350,100,400,100,461.725C100,461.975,100.1,462.25,100.1,462.5C100.1,462.5,100,462.5,100,462.5C100,462.5,100,548.4,100,548.4C165.525,498.475,285.625,475,400,475C514.375,475,634.475,498.475,700,548.4C700,548.4,700,462.5,700,462.5C700,462.5,700,462.5,700,462.5M400,525C234.3,525,100,575.4,100,637.5C100,699.65,234.3,750,400,750C565.675,750,700,699.65,700,637.5C700,575.4,565.675,525,400,525C400,525,400,525,400,525M600,150C600,130.75,620.825,118.725,637.5,128.35C645.225,132.825,650,141.075,650,150C650,169.25,629.175,181.275,612.5,171.65C604.775,167.175,600,158.925,600,150M600,300C600,280.75,620.825,268.725,637.5,278.35C645.225,282.825,650,291.075,650,300C650,319.25,629.175,331.275,612.5,321.65C604.775,317.175,600,308.925,600,300M600,450C600,430.75,620.825,418.725,637.5,428.35C645.225,432.825,650,441.075,650,450C650,469.25,629.175,481.275,612.5,471.65C604.775,467.175,600,458.925,600,450" /><glyph unicode="&#x0047;" d="M675,675.5C675,675.5,125,675.4,125,675.4C111.175,675.4,100,664.325,100,650.5C100,650.5,100,300.5,100,300.5C100,286.675,111.175,275.5,125,275.5C125,275.5,675,275.5,675,275.5C688.825,275.5,700,286.675,700,300.5C700,300.5,700,650.5,700,650.5C700,664.325,688.825,675.5,675,675.5C675,675.5,675,675.5,675,675.5M675,300.4C675,300.4,125,300.4,125,300.4C125,300.4,125,650.5,125,650.5C125,650.5,675,650.5,675,650.5C675,650.5,675,300.4,675,300.4C675,300.4,675,300.4,675,300.4M725,775.4C725,775.4,75,775.4,75,775.4C33.575,775.4,0,741.85,0,700.4C0,700.4,0,200.4,0,200.4C0,159.05,33.45,125.55,74.75,125.45C74.75,125.45,325,125.45,325,125.45C325,125.45,325,95.025,325,95.025C325,95.025,168.95,74.75,168.95,74.75C157.8,71.975,150,61.975,150,50.5C150,36.675,161.175,25.5,175,25.5C175,25.5,625,25.5,625,25.5C638.825,25.5,650,36.675,650,50.5C650,61.975,642.2,71.975,631.05,74.775C631.05,74.775,475,95.025,475,95.025C475,95.025,475,125.45,475,125.45C475,125.45,725.25,125.45,725.25,125.45C766.55,125.55,800,159.05,800,200.4C800,200.4,800,700.4,800,700.4C800,741.85,766.4,775.4,725,775.4C725,775.4,725,775.4,725,775.4M750,200.4C750,186.625,738.775,175.4,725,175.4C725,175.4,500,175.4,500,175.4C500,175.4,300,175.4,300,175.4C300,175.4,75,175.4,75,175.4C61.2,175.4,50,186.625,50,200.4C50,200.4,50,700.4,50,700.4C50,714.2,61.2,725.4,75,725.4C75,725.4,725,725.4,725,725.4C738.775,725.4,750,714.2,750,700.4C750,700.4,750,200.4,750,200.4C750,200.4,750,200.4,750,200.4" /><glyph unicode="&#x0048;" d="M799.124,405.693C798.873,406.744,799.024,407.871,798.623,408.897C798.473,409.323,798.097,409.548,797.947,409.949C797.697,410.55,797.747,411.226,797.421,411.801C724.817,550.776,566.765,650.344,400.025,650.344C233.26,650.344,75.233,550.926,2.579,411.977C2.253,411.401,2.303,410.725,2.053,410.124C1.878,409.723,1.527,409.498,1.377,409.072C0.976,408.046,1.127,406.919,0.876,405.868C0.426,403.99,0,402.188,0,400.26C0,398.332,0.451,396.554,0.876,394.652C1.127,393.6,0.976,392.474,1.377,391.447C1.527,391.021,1.903,390.796,2.053,390.396C2.303,389.795,2.253,389.119,2.579,388.543C75.208,249.568,233.26,150,400.025,150C566.765,150,724.817,249.418,797.421,388.368C797.772,388.943,797.722,389.619,797.947,390.22C798.097,390.621,798.473,390.846,798.623,391.272C799.024,392.298,798.873,393.425,799.124,394.476C799.549,396.379,800,398.182,800,400.084C800,401.987,799.549,403.815,799.124,405.693C799.124,405.693,799.124,405.693,799.124,405.693M400,200.097C259.423,200.097,121.8,279.987,53.227,400.26C122.176,520.683,259.598,600.297,400,600.297C540.527,600.297,678.175,520.382,746.748,400.135C677.799,279.686,540.402,200.097,400,200.097C400,200.097,400,200.097,400,200.097M400,500.253C399.95,500.253,399.9,500.228,399.85,500.228C344.645,500.128,299.906,455.389,299.906,400.185C299.906,393.275,305.514,387.667,312.424,387.667C319.309,387.667,324.917,393.275,324.917,400.185C324.917,441.544,358.59,475.218,400,475.218C400,475.218,400,475.243,400,475.243C406.885,475.243,412.468,480.851,412.468,487.735C412.468,494.67,406.91,500.253,400,500.253C400,500.253,400,500.253,400,500.253M399.424,575.336C302.61,575.336,224.172,496.874,224.172,400.084C224.172,303.295,302.635,224.833,399.424,224.833C496.188,224.833,574.676,303.32,574.676,400.084C574.676,496.899,496.188,575.336,399.424,575.336C399.424,575.336,399.424,575.336,399.424,575.336M399.424,249.869C316.58,249.869,249.208,317.24,249.208,400.084C249.208,482.929,316.58,550.3,399.424,550.3C482.268,550.3,549.64,482.929,549.64,400.084C549.64,317.24,482.268,249.869,399.424,249.869C399.424,249.869,399.424,249.869,399.424,249.869" /><glyph unicode="&#x0049;" d="M729.807,680.951C639.071,770.862,493.979,772.738,399.992,688.152C305.981,772.738,160.938,770.862,70.152,680.951C-23.384,588.34,-23.384,438.197,70.152,345.536C96.88,319.058,346.511,71.978,346.511,71.978C376.089,42.674,423.92,42.674,453.474,71.978C453.474,71.978,726.807,342.56,729.832,345.536C823.393,438.197,823.393,588.34,729.807,680.951C729.807,680.951,729.807,680.951,729.807,680.951M694.178,380.84C694.178,380.84,417.819,107.282,417.819,107.282C407.993,97.506,391.966,97.506,382.19,107.282C382.19,107.282,105.832,380.84,105.832,380.84C32.073,453.849,32.073,572.638,105.832,645.647C176.94,716.031,291.254,718.506,366.088,651.198C366.088,651.198,399.992,620.694,399.992,620.694C399.992,620.694,433.871,651.198,433.871,651.198C508.73,718.506,623.044,716.056,694.153,645.647C767.912,572.663,767.912,453.874,694.178,380.84C694.178,380.84,694.178,380.84,694.178,380.84M231.247,625.045C231.197,625.045,231.197,625.02,231.147,625.02C172.515,624.97,124.984,577.439,124.984,518.782C124.984,518.782,124.984,518.782,124.984,518.782C124.984,511.881,130.585,506.28,137.485,506.28C144.386,506.28,149.987,511.881,149.987,518.782C149.987,518.782,149.987,518.807,149.987,518.807C149.987,563.662,186.366,600.042,231.222,600.042C231.222,600.042,231.247,600.042,231.247,600.042C238.148,600.042,243.748,605.642,243.748,612.543C243.748,619.444,238.173,625.045,231.247,625.045C231.247,625.045,231.247,625.045,231.247,625.045" /><glyph unicode="&#x004A;" d="M550.031,800.4C411.974,800.4,300.062,688.464,300.062,550.431C300.062,518.31,306.787,487.914,317.885,459.718C317.885,459.718,14.198,156.056,14.198,156.056C5.424,147.257,0,138.908,0,125.484C0,125.484,0,50.494,0,50.494C0,23.747,23.222,0.5,49.994,0.5C49.994,0.5,124.984,0.5,124.984,0.5C138.383,0.5,146.857,5.874,155.631,14.598C155.631,14.598,191.501,50.494,191.501,50.494C191.501,50.494,250.069,50.494,250.069,50.494C277.665,50.494,300.062,72.891,300.062,100.488C300.062,100.488,300.062,150.481,300.062,150.481C300.062,150.481,350.056,150.481,350.056,150.481C377.653,150.481,400.05,172.878,400.05,200.475C400.05,200.475,400.05,259.068,400.05,259.068C400.05,259.068,459.268,318.335,459.268,318.335C487.489,307.212,517.86,300.463,550.031,300.463C688.039,300.463,800,412.399,800,550.431C800,688.464,688.039,800.4,550.031,800.4C550.031,800.4,550.031,800.4,550.031,800.4M550.031,350.456C513.036,350.456,478.74,361.205,449.019,378.753C449.019,378.753,440.42,370.179,440.42,370.179C440.42,370.179,412.298,342.057,412.298,342.057C412.298,342.057,364.679,294.413,364.679,294.413C355.306,285.039,350.031,272.341,350.031,259.068C350.031,259.068,350.031,200.475,350.031,200.475C350.031,200.475,300.037,200.475,300.037,200.475C272.441,200.475,250.044,178.103,250.044,150.481C250.044,150.481,250.044,100.488,250.044,100.488C250.044,100.488,191.501,100.488,191.501,100.488C178.253,100.488,165.529,95.213,156.155,85.839C156.155,85.839,120.71,50.394,120.71,50.394C120.71,50.394,50.069,50.494,50.069,50.494C50.069,50.494,49.994,121.735,49.994,121.735C49.994,121.735,341.582,412.798,341.582,412.798C341.582,412.798,341.582,412.773,341.607,412.748C341.607,412.748,378.328,449.469,378.328,449.469C360.78,479.19,350.031,513.461,350.031,550.456C350.031,660.892,439.595,750.431,550.006,750.431C660.417,750.431,749.981,660.892,749.981,550.456C749.981,440.02,660.467,350.456,550.031,350.456C550.031,350.456,550.031,350.456,550.031,350.456M695.413,594.451C667.392,633.496,633.271,667.567,594.051,695.788C587.677,700.413,579.428,701.562,572.003,698.963C537.283,686.739,513.511,662.992,501.362,628.272C500.437,625.672,499.988,622.972,499.988,620.298C499.988,615.323,501.537,610.399,504.537,606.224C532.658,567.129,566.729,533.033,605.849,504.912C612.248,500.313,620.447,499.138,627.872,501.712C662.642,513.861,686.414,537.658,698.613,572.404C699.538,575.003,699.988,577.703,699.988,580.378C699.963,585.352,698.388,590.276,695.413,594.451C695.413,594.451,695.413,594.451,695.413,594.451M620.422,525.184C583.477,551.756,551.306,583.927,524.934,619.998C534.608,647.569,552.706,665.667,579.478,675.516C616.448,648.894,648.569,616.798,674.866,580.253C665.092,552.881,647.044,534.883,620.422,525.184C620.422,525.184,620.422,525.184,620.422,525.184" /><glyph unicode="&#x004B;" d="M154.054,153.851C154.054,162.17,151.012,169.385,144.928,175.496C138.844,181.606,131.629,184.649,123.284,184.622C114.938,184.595,107.724,181.553,101.64,175.496C95.556,169.438,92.514,162.224,92.514,153.851C92.514,145.479,95.556,138.264,101.64,132.207C107.724,126.15,114.938,123.108,123.284,123.081C131.629,123.054,138.844,126.096,144.928,132.207C151.012,138.318,154.054,145.533,154.054,153.851C154.054,153.851,154.054,153.851,154.054,153.851M707.865,430.757C707.865,447.098,701.62,461.446,689.128,473.776C676.637,486.106,662.369,492.27,646.351,492.297C646.351,492.297,477.128,492.297,477.128,492.297C477.128,510.899,484.828,536.447,500.199,568.967C515.571,601.487,523.27,627.197,523.27,646.122C523.27,677.538,518.156,700.771,507.899,715.819C497.642,730.868,477.128,738.406,446.358,738.406C438.04,730.087,431.929,716.465,428.079,697.54C424.229,678.615,419.33,658.505,413.407,637.211C407.485,615.917,397.955,598.365,384.791,584.581C377.738,577.205,365.408,562.614,347.775,540.835C346.51,539.247,342.822,534.428,336.711,526.406C330.6,518.383,325.565,511.815,321.554,506.7C317.543,501.585,312.024,494.774,304.971,486.267C297.918,477.76,291.511,470.707,285.75,465.108C279.989,459.508,273.824,453.828,267.228,448.04C260.633,442.252,254.226,437.945,248.007,435.064C241.788,432.184,236.081,430.757,230.939,430.73C230.939,430.73,215.568,430.73,215.568,430.73C215.568,430.73,215.568,123.054,215.568,123.054C215.568,123.054,230.939,123.054,230.939,123.054C235.112,123.054,240.146,122.57,246.096,121.6C252.045,120.631,257.322,119.581,261.952,118.478C266.582,117.374,272.666,115.597,280.231,113.201C287.796,110.805,293.395,108.948,297.056,107.682C300.718,106.417,306.398,104.398,314.124,101.679C321.85,98.96,326.481,97.264,328.069,96.618C395.694,73.224,450.504,61.514,492.473,61.514C492.473,61.514,550.649,61.514,550.649,61.514C612.189,61.514,642.959,88.273,642.959,141.791C642.959,150.109,642.152,159.101,640.564,168.712C650.174,173.853,657.793,182.253,663.392,193.963C668.992,205.674,671.791,217.438,671.818,229.31C671.845,241.182,668.965,252.219,663.177,262.476C680.164,278.494,688.644,297.581,688.644,319.682C688.644,327.678,687.029,336.588,683.825,346.361C680.621,356.133,676.61,363.751,671.818,369.189C682.075,369.512,690.636,377.05,697.528,391.776C704.419,406.501,707.865,419.477,707.865,430.703C707.865,430.703,707.865,430.757,707.865,430.757M769.406,431.241C769.406,402.732,761.545,376.593,745.85,352.875C748.731,342.296,750.184,331.258,750.184,319.709C750.184,295.023,744.1,271.952,731.905,250.496C732.874,243.766,733.359,236.875,733.359,229.821C733.359,197.436,723.748,168.927,704.527,144.241C704.85,99.687,691.228,64.529,663.661,38.712C636.095,12.895,599.725,0,554.525,0C554.525,0,492.5,0,492.5,0C461.73,0,431.363,3.607,401.401,10.822C371.438,18.037,336.737,28.536,297.326,42.319C260.148,55.133,238.046,61.541,230.993,61.541C230.993,61.541,92.541,61.541,92.541,61.541C75.554,61.541,61.07,67.544,49.037,79.577C37.003,91.611,31,106.094,31,123.081C31,123.081,31,430.757,31,430.757C31,447.744,37.003,462.227,49.037,474.261C61.07,486.294,75.554,492.297,92.541,492.297C92.541,492.297,224.263,492.297,224.263,492.297C235.812,499.997,257.752,524.844,290.111,566.814C308.713,590.854,325.862,611.367,341.556,628.354C349.256,636.35,354.936,650.052,358.624,669.462C362.312,688.872,367.185,709.143,373.296,730.276C379.407,751.408,389.34,768.718,403.097,782.205C415.588,794.077,430.017,800,446.358,800C473.279,800,497.48,794.804,518.936,784.386C540.392,773.968,556.733,757.708,567.959,735.579C579.185,713.45,584.784,683.649,584.784,646.176C584.784,616.374,577.085,585.604,561.713,553.865C561.713,553.865,646.325,553.865,646.325,553.865C679.652,553.865,708.484,541.697,732.847,517.334C757.211,492.97,769.379,464.3,769.379,431.295C769.379,431.295,769.406,431.241,769.406,431.241" /><glyph unicode="&#x004C;" d="M400.05,356.35C482.775,356.35,550.05,423.65,550.05,506.35C550.05,589.05,482.775,656.35,400.05,656.35C317.325,656.35,250.05,589.075,250.05,506.35C250.05,423.625,317.325,356.35,400.05,356.35C400.05,356.35,400.05,356.35,400.05,356.35M400.05,631.35C469,631.35,525.05,575.3,525.05,506.35C525.05,437.4,469,381.35,400.05,381.35C331.1,381.35,275.05,437.4,275.05,506.35C275.05,575.3,331.1,631.35,400.05,631.35C400.05,631.35,400.05,631.35,400.05,631.35M400,800C234.55,800,100,667.1,100,499.975C100,324.975,250.025,145.95,359.4,20.125C359.8,19.625,377.35,0,399.05,0C399.1,0,400.875,0,400.975,0C422.65,0,440.225,19.625,440.625,20.125C550.05,145.95,700.05,324.95,700.05,499.975C700.05,667.1,565.475,800,400,800C400,800,400,800,400,800M402.925,52.925C402.4,52.425,400.875,51.325,399.55,50.475C399.3,51.15,397.45,52.625,396.325,53.8C304.7,159.225,150,337.15,150,499.975C150,637.825,262.175,750,400,750C537.9,750,650.05,637.825,650.05,499.95C650.05,337.15,495.35,159.225,402.925,52.925C402.925,52.925,402.925,52.925,402.925,52.925" /><glyph unicode="&#x004D;" d="M625,475C625,475,625,575,625,575C625,699.275,524.275,800,400,800C275.725,800,175,699.275,175,575C175,575,175,475,175,475C133.575,475,100,441.425,100,400C100,400,100,325,100,325C100,325,100,300,100,300C100,300,100,250,100,250C100,250,100,225,100,225C100,100.725,200.725,0,325,0C325,0,475,0,475,0C599.275,0,700,100.725,700,225C700,225,700,250,700,250C700,250,700,300,700,300C700,300,700,325,700,325C700,325,700,400,700,400C700,441.45,666.4,475,625,475C625,475,625,475,625,475M225,575C225,671.65,303.35,750,400,750C496.65,750,575,671.65,575,575C575,575,575,475,575,475C575,475,525,475,525,475C525,475,525,574.95,525,574.95C525,644,469.05,699.95,400,699.95C330.95,699.95,275,644,275,574.95C275,574.95,275,475,275,475C275,475,225,475,225,475C225,475,225,575,225,575C225,575,225,575,225,575M500,575C500,575,500,574.925,500,574.925C500,574.925,500,475,500,475C500,475,300,475,300,475C300,475,300,574.95,300,574.95C300,574.95,300,575,300,575C300,630.225,344.775,675,400,675C455.225,675,500,630.225,500,575C500,575,500,575,500,575M650,325C650,325,650,300,650,300C650,300,650,250,650,250C650,250,650,225,650,225C650,128.525,571.475,50,475,50C475,50,325,50,325,50C228.525,50,150,128.525,150,225C150,225,150,250,150,250C150,250,150,300,150,300C150,300,150,325,150,325C150,325,150,400,150,400C150,413.8,161.2,425,175,425C191.675,425,208.325,425,225,425C225,425,575,425,575,425C591.65,425,608.3,425,625,425C638.775,425,650,413.8,650,400C650,400,650,325,650,325C650,325,650,325,650,325M400,325C372.4,325,350,302.625,350,275C350,259.825,358.325,231,366.675,208.2C373.475,189.65,382.025,175.05,400,175.05C419.55,175.05,426.525,189.5,433.35,207.95C441.8,230.8,450,259.775,450,275C450,302.625,427.6,325,400,325C400,325,400,325,400,325" /><glyph unicode="&#x004E;" d="M700,662.5C700,662.5,100,662.5,100,662.5C44.775,662.5,0,617.7,0,562.5C0,562.5,0,237.5,0,237.5C0,182.275,44.775,137.5,100,137.5C100,137.5,700,137.5,700,137.5C755.225,137.5,800,182.275,800,237.5C800,237.5,800,562.5,800,562.5C800,617.7,755.225,662.5,700,662.5C700,662.5,700,662.5,700,662.5M50,531.25C50,531.25,224.975,400,224.975,400C224.975,400,50,268.75,50,268.75C50,268.75,50,531.25,50,531.25C50,531.25,50,531.25,50,531.25M750,237.5C750,209.9,727.55,187.5,700,187.5C700,187.5,100,187.5,100,187.5C72.425,187.5,50,209.9,50,237.5C50,237.5,245.8,384.375,245.8,384.375C245.8,384.375,355,302.45,355,302.45C368.325,292.5,384.15,287.45,400,287.45C415.825,287.45,431.65,292.475,444.975,302.45C444.975,302.45,554.2,384.375,554.2,384.375C554.2,384.375,750,237.5,750,237.5C750,237.5,750,237.5,750,237.5C750,237.5,750,237.5,750,237.5M750,268.75C750,268.75,575,400,575,400C575,400,750,531.25,750,531.25C750,531.25,750,268.75,750,268.75C750,268.75,750,268.75,750,268.75M429.975,322.45C421.25,315.9,410.9,312.45,400,312.45C389.1,312.45,378.725,315.925,370,322.45C370,322.45,266.625,400,266.625,400C266.625,400,245.8,415.625,245.8,415.625C245.8,415.625,50,562.475,50,562.475C50,562.475,50,562.5,50,562.5C50,590.075,72.425,612.5,100,612.5C100,612.5,700,612.5,700,612.5C727.55,612.5,750,590.075,750,562.5C750,562.5,429.975,322.45,429.975,322.45C429.975,322.45,429.975,322.45,429.975,322.45" /><glyph unicode="&#x004F;" d="M789.045,796C784.895,798.675,780.17,800,775.47,800C770.645,800,765.796,798.625,761.596,795.8C761.596,795.8,11.619,295.816,11.619,295.816C3.894,290.691,-0.356,281.666,0.644,272.416C1.594,263.192,7.594,255.217,16.219,251.817C16.219,251.817,211.813,173.545,211.813,173.545C211.813,173.545,303.785,12.6,303.785,12.6C308.185,4.875,316.36,0.1,325.209,0C325.309,0,325.384,0,325.484,0C334.259,0,342.409,4.65,346.909,12.15C346.909,12.15,398.832,98.722,398.832,98.722C398.832,98.722,641.199,1.8,641.199,1.8C644.174,0.6,647.299,0.025,650.474,0.025C654.724,0.025,658.924,1.1,662.724,3.25C669.324,6.95,673.848,13.45,675.123,20.924C675.123,20.924,800.119,770.901,800.119,770.901C801.744,780.726,797.395,790.575,789.045,796C789.045,796,789.045,796,789.045,796M78.892,280.591C78.892,280.591,658.249,666.854,658.249,666.854C658.249,666.854,237.012,215.943,237.012,215.943C234.787,217.268,232.812,219.018,230.362,219.993C230.362,219.993,78.892,280.591,78.892,280.591C78.892,280.591,78.892,280.591,78.892,280.591M255.211,198.369C255.161,198.469,255.086,198.519,255.036,198.619C255.036,198.619,728.597,705.478,728.597,705.478C728.597,705.478,324.884,76.448,324.884,76.448C324.884,76.448,255.211,198.369,255.211,198.369C255.211,198.369,255.211,198.369,255.211,198.369M630.9,59.798C630.9,59.798,417.381,145.195,417.381,145.195C412.307,147.195,407.032,147.87,401.807,148.17C401.807,148.17,730.597,657.854,730.597,657.854C730.597,657.854,630.9,59.798,630.9,59.798C630.9,59.798,630.9,59.798,630.9,59.798" /><glyph unicode="&#x0050;" d="M200,649.475C200,649.475,200,725,200,725C200,766.35,166.35,800,125,800C83.65,800,50,766.35,50,725C50,725,50,649.475,50,649.475C19.8,626.6,0,590.775,0,550C0,509.225,19.8,473.4,50,450.575C50,450.575,50,75,50,75C50,33.65,83.65,0,125,0C166.35,0,200,33.65,200,75C200,75,200,450.575,200,450.575C230.2,473.375,250,509.225,250,550C250,590.775,230.2,626.6,200,649.475C200,649.475,200,649.475,200,649.475M100,725C100,738.825,111.175,750,125,750C138.825,750,150,738.825,150,725C150,725,150,672.5,150,672.5C141.925,674.125,133.575,675,125,675C116.425,675,108.075,674.125,100,672.5C100,672.5,100,725,100,725C100,725,100,725,100,725M150,75C150,61.175,138.825,50,125,50C111.175,50,100,61.175,100,75C100,75,100,427.55,100,427.55C108.075,425.875,116.425,425,125,425C133.575,425,141.925,425.875,150,427.55C150,427.55,150,75,150,75C150,75,150,75,150,75M196.625,529C196.225,527.675,195.875,526.375,195.4,525.05C193.025,518.45,189.975,512.2,185.95,506.65C185.85,506.5,185.7,506.4,185.6,506.25C181.25,500.3,176.075,495.025,170.2,490.575C170.1,490.475,170.025,490.425,169.95,490.375C163.925,485.825,157.2,482.175,149.975,479.625C142.15,476.8,133.825,475,125,475C116.175,475,107.85,476.8,100,479.65C92.775,482.2,86.05,485.85,80.025,490.4C79.95,490.45,79.875,490.5,79.775,490.6C73.9,495.05,68.725,500.325,64.375,506.275C64.275,506.425,64.125,506.525,64.025,506.675C60,512.25,56.95,518.5,54.575,525.075C54.1,526.4,53.75,527.7,53.35,529.025C51.375,535.7,50,542.675,50,550C50,557.375,51.375,564.35,53.375,571.05C53.775,572.375,54.125,573.675,54.6,574.95C56.95,581.55,60,587.8,64.05,593.4C64.15,593.55,64.3,593.65,64.4,593.8C68.75,599.7,73.925,605.025,79.8,609.475C79.9,609.525,79.975,609.625,80.05,609.675C86.05,614.15,92.775,617.825,100,620.4C107.85,623.2,116.175,625,125,625C133.825,625,142.15,623.2,150,620.4C157.225,617.8,163.95,614.15,169.975,609.65C170.05,609.6,170.125,609.5,170.225,609.45C176.1,605,181.275,599.675,185.625,593.775C185.725,593.625,185.875,593.525,185.975,593.375C190,587.8,193.05,581.55,195.4,574.95C195.875,573.675,196.25,572.375,196.625,571.05C198.625,564.35,200,557.375,200,550C200,542.675,198.625,535.7,196.625,529C196.625,529,196.625,529,196.625,529M750,649.475C750,649.475,750,725,750,725C750,766.35,716.35,800,675,800C633.65,800,600,766.35,600,725C600,725,600,649.475,600,649.475C569.775,626.6,550,590.775,550,550C550,509.225,569.775,473.4,600,450.575C600,450.575,600,75,600,75C600,33.65,633.65,0,675,0C716.35,0,750,33.65,750,75C750,75,750,450.575,750,450.575C780.175,473.375,800,509.225,800,550C800,590.775,780.175,626.6,750,649.475C750,649.475,750,649.475,750,649.475M650,725C650,738.825,661.175,750,675,750C688.825,750,700,738.825,700,725C700,725,700,672.5,700,672.5C691.9,674.125,683.55,675,675,675C666.4,675,658.05,674.125,650,672.5C650,672.5,650,725,650,725C650,725,650,725,650,725M700,75C700,61.175,688.825,50,675,50C661.175,50,650,61.175,650,75C650,75,650,427.55,650,427.55C658.05,425.875,666.4,425,675,425C683.55,425,691.9,425.875,700,427.55C700,427.55,700,75,700,75C700,75,700,75,700,75M746.625,529C746.225,527.675,745.85,526.375,745.4,525.05C743,518.45,739.975,512.2,735.925,506.65C735.825,506.5,735.675,506.4,735.575,506.25C731.225,500.3,726.05,495.025,720.2,490.575C720.1,490.475,720,490.425,719.95,490.375C713.9,485.825,707.2,482.175,699.975,479.625C692.15,476.8,683.8,475,675,475C666.15,475,657.85,476.8,650,479.65C642.775,482.2,636.025,485.85,630.025,490.4C629.925,490.45,629.875,490.5,629.775,490.6C623.875,495.05,618.7,500.325,614.35,506.275C614.25,506.425,614.1,506.525,614,506.675C610,512.25,606.925,518.5,604.575,525.075C604.075,526.4,603.75,527.7,603.35,529.025C601.375,535.7,600,542.675,600,550C600,557.375,601.375,564.35,603.375,571.05C603.775,572.375,604.1,573.675,604.6,574.95C606.95,581.55,610.025,587.8,614.025,593.4C614.125,593.55,614.275,593.65,614.375,593.8C618.725,599.7,623.9,605.025,629.8,609.475C629.9,609.525,629.95,609.625,630.05,609.675C636.05,614.175,642.8,617.825,650.025,620.425C657.85,623.2,666.15,625,675,625C683.8,625,692.15,623.2,700,620.4C707.225,617.8,713.925,614.15,719.975,609.65C720.025,609.6,720.125,609.5,720.225,609.45C726.075,605,731.25,599.675,735.6,593.775C735.7,593.625,735.85,593.525,735.95,593.375C740,587.75,743.025,581.5,745.425,574.925C745.875,573.65,746.25,572.325,746.65,571.025C748.625,564.35,750,557.375,750,550C750,542.675,748.625,535.7,746.625,529C746.625,529,746.625,529,746.625,529M475,349.475C475,349.475,475,725,475,725C475,766.35,441.35,800,400,800C358.65,800,325,766.35,325,725C325,725,325,349.475,325,349.475C294.8,326.625,275,290.775,275,250C275,209.225,294.8,173.4,325,150.575C325,150.575,325,75,325,75C325,33.65,358.65,0,400,0C441.35,0,475,33.65,475,75C475,75,475,150.575,475,150.575C505.175,173.375,525,209.225,525,250C525,290.775,505.175,326.6,475,349.475C475,349.475,475,349.475,475,349.475M375,725C375,738.825,386.175,750,400,750C413.825,750,425,738.825,425,725C425,725,425,372.5,425,372.5C416.9,374.1,408.55,375,400,375C391.425,375,383.075,374.125,375,372.5C375,372.5,375,725,375,725C375,725,375,725,375,725M425,75C425,61.175,413.825,50,400,50C386.175,50,375,61.175,375,75C375,75,375,127.55,375,127.55C383.075,125.875,391.425,125,400,125C408.55,125,416.9,125.875,425,127.55C425,127.55,425,75,425,75C425,75,425,75,425,75M471.625,229C471.225,227.675,470.85,226.375,470.4,225.05C468,218.45,464.975,212.2,460.925,206.65C460.825,206.5,460.675,206.4,460.575,206.25C456.225,200.3,451.05,195.025,445.2,190.575C445.1,190.475,445,190.425,444.95,190.375C438.9,185.825,432.2,182.175,424.975,179.625C417.15,176.8,408.8,175,400,175C391.175,175,382.85,176.8,375,179.65C367.775,182.2,361.05,185.85,355.025,190.4C354.95,190.45,354.875,190.5,354.775,190.6C348.9,195.05,343.725,200.325,339.375,206.275C339.275,206.425,339.125,206.525,339.025,206.675C335,212.25,331.95,218.5,329.575,225.075C329.1,226.4,328.75,227.7,328.35,229.025C326.375,235.7,325,242.675,325,250C325,257.375,326.375,264.35,328.375,271.05C328.775,272.375,329.125,273.675,329.6,274.95C331.975,281.55,335.025,287.8,339.05,293.4C339.15,293.55,339.3,293.65,339.4,293.8C343.75,299.7,348.925,305.025,354.8,309.475C354.9,309.525,354.975,309.625,355.05,309.675C361.075,314.175,367.8,317.825,375.025,320.425C382.85,323.2,391.175,325,400,325C408.8,325,417.15,323.2,425,320.4C432.225,317.8,438.925,314.15,444.975,309.65C445.025,309.6,445.125,309.5,445.225,309.45C451.075,305,456.25,299.675,460.6,293.775C460.7,293.625,460.85,293.525,460.95,293.375C465,287.75,468.025,281.5,470.425,274.925C470.875,273.65,471.25,272.325,471.65,271.025C473.625,264.35,475,257.375,475,250C475,242.675,473.625,235.7,471.625,229C471.625,229,471.625,229,471.625,229" /><glyph unicode="&#x0051;" d="M735.375,735.5C694.25,776.575,640.1,800,586.725,800C541.7,800,500.25,783.3,469.975,753.075C469.975,753.075,348.3,630.475,348.3,630.475C347.925,630.125,347.5,629.9,347.125,629.525C346.925,629.325,346.8,629.05,346.6,628.875C346.6,628.875,346.65,628.825,346.65,628.825C346.65,628.825,88.425,368.6,88.425,368.6C76.525,356.775,67.9,342.05,63.1,325.975C63.1,325.975,4.375,113.275,4.375,113.275C4.325,112.7,0.5,96,0.5,87.5C0.5,39.2,39.725,0,88.1,0C97.725,0,116.35,4.6,117.025,4.7C117.025,4.7,328.975,60.425,328.975,60.425C345.075,65.2,359.7,73.9,371.6,85.825C371.6,85.825,753.175,470.4,753.175,470.4C822.575,539.85,814.75,656.25,735.375,735.5C735.375,735.5,735.375,735.5,735.375,735.5M400.85,205.125C398.8,227.675,392.425,249.8,382.875,270.8C382.875,270.8,619.25,507.15,619.25,507.15C633.7,461.5,626.275,413.75,594.6,382.05C594.4,381.85,594.15,381.725,593.975,381.525C593.975,381.525,594.325,381.2,594.325,381.2C594.325,381.2,401.125,186.45,401.125,186.45C401.125,192.675,401.425,198.775,400.85,205.125C400.85,205.125,400.85,205.125,400.85,205.125M370.325,293.6C361,308.925,350.4,323.725,337.275,336.825C322,352.1,304.475,364.075,286.175,374.125C286.175,374.125,524.475,612.425,524.475,612.425C543.175,604.125,561.1,592.3,576.925,576.475C590.45,563,600.9,547.9,608.95,532.2C608.95,532.2,370.325,293.6,370.325,293.6C370.325,293.6,370.325,293.6,370.325,293.6M262.65,385.95C239.5,395.275,215.25,400.6,190.95,400.925C190.95,400.925,383.525,594.975,383.525,594.975C413,623.725,455.925,632,498.2,621.525C498.2,621.525,262.65,385.95,262.65,385.95C262.65,385.95,262.65,385.95,262.65,385.95M104.675,53.175C101.95,52.55,93.475,50.4,87.725,50C67.175,50.25,50.5,66.95,50.5,87.5C50.8,91.7,52.475,98.925,53.05,101.55C53.05,101.55,79.375,196.9,79.375,196.9C107.95,197.675,138.7,186.55,162.875,162.325C187.425,137.825,198.975,106.475,197.725,77.55C197.725,77.55,104.675,53.175,104.675,53.175C104.675,53.175,104.675,53.175,104.675,53.175M222.35,84.075C221.75,117.625,208.1,152.525,180.55,180.025C154.5,206.1,120.4,221.15,86.4,222.5C86.4,222.5,111.3,312.675,111.3,312.675C113.1,318.675,116.675,324.6,121.075,329.775C171.225,365.675,248.35,355.075,301.925,301.45C358.6,244.8,367.35,161.8,323.7,112.25C320.8,110.725,317.875,109.275,314.725,108.35C314.725,108.35,222.35,84.075,222.35,84.075C222.35,84.075,222.35,84.075,222.35,84.075M717.775,505.7C717.775,505.7,675.675,463.275,675.675,463.275C675.675,468.925,676.35,474.35,675.825,480.125C671.425,528.5,648.875,575.275,612.25,611.85C571.525,652.6,517.525,675.975,464.05,676.125C464.05,676.125,505.45,717.875,505.45,717.875C526.175,738.55,555.1,750,586.725,750C626.95,750,668.275,731.8,700.05,700.125C729.875,670.35,747.65,633.35,750.2,595.925C752.55,561,741.025,528.975,717.775,505.7C717.775,505.7,717.775,505.7,717.775,505.7" /><glyph unicode="&#x0052;" d="M675,800C675,800,125,800,125,800C69.775,800,25,755.225,25,700C25,700,25,100,25,100C25,44.775,69.775,0,125,0C125,0,675,0,675,0C730.225,0,775,44.775,775,100C775,100,775,700,775,700C775,755.225,730.225,800,675,800C675,800,675,800,675,800M725,100C725,72.45,702.55,50,675,50C675,50,125,50,125,50C97.425,50,75,72.45,75,100C75,100,75,700,75,700C75,727.575,97.425,750,125,750C125,750,675,750,675,750C702.55,750,725,727.575,725,700C725,700,725,100,725,100C725,100,725,100,725,100M650,700C650,700,150,700,150,700C136.175,700,125,688.825,125,675C125,675,125,225,125,225C125,211.175,136.175,200,150,200C150,200,650,200,650,200C663.825,200,675,211.175,675,225C675,225,675,675,675,675C675,688.825,663.825,700,650,700C650,700,650,700,650,700M650,675C650,675,650,328.275,650,328.275C650,328.275,568.75,416.525,568.75,416.525C563.975,421.925,557.175,425,550,425C542.825,425,535.975,421.925,531.25,416.525C531.25,416.525,466.15,342.775,466.15,342.775C466.15,342.775,268.75,566.525,268.75,566.525C264,571.925,257.175,575,250,575C242.825,575,236,571.925,231.25,566.525C231.25,566.525,150,472.825,150,472.825C150,472.825,150,675,150,675C150,675,650,675,650,675C650,675,650,675,650,675M150,435C150,435,250,550,250,550C250,550,451.65,321.425,451.65,321.425C451.65,321.425,466.15,304.975,466.15,304.975C466.15,304.975,535.2,225,535.2,225C535.2,225,150,225,150,225C150,225,150,435,150,435C150,435,150,435,150,435M568.5,225C568.5,225,482.8,323.875,482.8,323.875C482.8,323.875,550,400,550,400C550,400,650,290.525,650,290.525C650,290.525,650,225,650,225C650,225,568.5,225,568.5,225C568.5,225,568.5,225,568.5,225M500,475C541.4,475,575,508.575,575,550C575,591.425,541.4,625,500,625C458.55,625,425,591.425,425,550C425,508.575,458.55,475,500,475C500,475,500,475,500,475M500,600C527.55,600,550,577.575,550,550C550,522.425,527.55,500,500,500C472.4,500,450,522.425,450,550C450,577.575,472.4,600,500,600C500,600,500,600,500,600" /><glyph unicode="&#x0053;" d="M500.484,800.5C334.815,800.5,200.494,666.179,200.494,500.509C200.494,449.861,213.168,402.187,235.368,360.314C235.368,360.314,26.774,151.77,26.774,151.77C26.774,151.77,26.949,151.62,26.949,151.62C10.65,135.596,0.5,113.396,0.5,88.722C0.5,39.999,39.999,0.5,88.722,0.5C113.346,0.5,135.571,10.65,151.595,26.974C151.595,26.974,151.545,27.024,151.545,27.024C151.545,27.024,360.064,235.518,360.064,235.518C401.962,213.243,449.711,200.519,500.484,200.519C666.154,200.519,800.475,334.84,800.475,500.509C800.475,666.179,666.154,800.5,500.484,800.5C500.484,800.5,500.484,800.5,500.484,800.5M120.371,58.223C112.322,49.873,101.172,44.649,88.722,44.649C64.348,44.649,44.599,64.373,44.599,88.747C44.599,101.197,49.848,112.322,58.173,120.396C58.173,120.396,57.948,120.596,57.948,120.596C57.948,120.596,259.592,322.24,259.592,322.24C277.216,298.466,298.216,277.466,321.94,259.792C321.94,259.792,120.371,58.223,120.371,58.223C120.371,58.223,120.371,58.223,120.371,58.223M500.484,250.492C362.439,250.492,250.492,362.464,250.492,500.484C250.492,638.53,362.439,750.477,500.484,750.477C638.505,750.477,750.477,638.53,750.477,500.484C750.477,362.464,638.505,250.492,500.484,250.492C500.484,250.492,500.484,250.492,500.484,250.492M500.484,675.504C403.812,675.504,325.49,597.156,325.49,500.509C325.49,493.61,331.09,488.01,337.989,488.01C344.889,488.01,350.489,493.61,350.489,500.509C350.489,583.332,417.637,650.505,500.484,650.505C507.359,650.505,512.984,656.105,512.984,663.004C512.984,669.904,507.359,675.504,500.484,675.504C500.484,675.504,500.484,675.504,500.484,675.504" /><glyph unicode="&#x0054;" d="M760.275,483.525C760.275,483.525,683.675,498.875,683.675,498.875C679.825,509.95,675.275,520.7,670.25,531.1C670.25,531.1,713.65,596.2,713.65,596.2C726.875,616.025,724.25,642.45,707.4,659.275C707.4,659.275,659.3,707.375,659.3,707.375C649.625,717.05,636.85,722.025,623.9,722.025C614.325,722.025,604.65,719.275,596.225,713.625C596.225,713.625,531.125,670.25,531.125,670.25C520.675,675.3,509.925,679.8,498.85,683.65C498.85,683.65,483.5,760.275,483.5,760.275C478.85,783.675,458.3,800.475,434.475,800.475C434.475,800.475,366.475,800.475,366.475,800.475C342.65,800.475,322.125,783.65,317.45,760.275C317.45,760.275,302.1,683.65,302.1,683.65C291.025,679.8,280.275,675.275,269.875,670.25C269.875,670.25,204.8,713.625,204.8,713.625C196.325,719.275,186.675,722.025,177.075,722.025C164.15,722.025,151.375,717.05,141.7,707.375C141.7,707.375,93.625,659.275,93.625,659.275C76.775,642.425,74.15,616.025,87.375,596.2C87.375,596.2,130.75,531.1,130.75,531.1C125.7,520.675,121.2,509.925,117.35,498.85C117.35,498.85,40.7,483.525,40.7,483.525C17.325,478.85,0.5,458.325,0.5,434.5C0.5,434.5,0.5,366.5,0.5,366.5C0.5,342.675,17.325,322.125,40.7,317.475C40.7,317.475,117.325,302.1,117.325,302.1C121.175,291.025,125.7,280.275,130.725,269.875C130.725,269.875,87.375,204.775,87.375,204.775C74.15,184.95,76.775,158.525,93.625,141.7C93.625,141.7,141.725,93.6,141.725,93.6C151.4,83.925,164.175,78.95,177.1,78.95C186.7,78.95,196.375,81.725,204.8,87.35C204.8,87.35,269.9,130.75,269.9,130.75C280.325,125.675,291.075,121.175,302.15,117.325C302.15,117.325,317.475,40.725,317.475,40.725C322.15,17.325,342.675,0.5,366.5,0.5C366.5,0.5,434.5,0.5,434.5,0.5C458.325,0.5,478.875,17.35,483.525,40.725C483.525,40.725,498.9,117.325,498.9,117.325C509.975,121.175,520.725,125.725,531.125,130.75C531.125,130.75,596.225,87.35,596.225,87.35C604.675,81.725,614.35,78.95,623.9,78.95C636.85,78.95,649.625,83.925,659.3,93.6C659.3,93.6,707.4,141.7,707.4,141.7C724.25,158.55,726.875,184.95,713.65,204.775C713.65,204.775,670.25,269.875,670.25,269.875C675.325,280.325,679.825,291.075,683.675,302.15C683.675,302.15,760.275,317.475,760.275,317.475C783.65,322.1,800.5,342.675,800.5,366.5C800.5,366.5,800.5,434.5,800.5,434.5C800.5,458.325,783.65,478.85,760.275,483.525C760.275,483.525,760.275,483.525,760.275,483.525M673.85,351.15C656.475,347.675,642.25,335.275,636.45,318.525C633.225,309.3,629.475,300.35,625.275,291.675C617.5,275.7,618.825,256.85,628.65,242.125C628.65,242.125,672.05,177.025,672.05,177.025C672.05,177.025,623.95,128.925,623.95,128.925C623.95,128.925,558.85,172.325,558.85,172.325C550.5,177.9,540.825,180.725,531.125,180.725C523.7,180.725,516.225,179.075,509.35,175.75C500.65,171.55,491.725,167.75,482.45,164.525C465.75,158.725,453.35,144.5,449.875,127.125C449.875,127.125,434.5,50.475,434.5,50.475C434.5,50.475,366.5,50.475,366.5,50.475C366.5,50.475,351.175,127.125,351.175,127.125C347.7,144.5,335.3,158.725,318.575,164.525C309.35,167.75,300.375,171.5,291.7,175.7C284.8,179.075,277.35,180.725,269.9,180.725C260.175,180.725,250.525,177.9,242.175,172.325C242.175,172.325,177.075,128.925,177.075,128.925C177.075,128.925,128.975,177.025,128.975,177.025C128.975,177.025,172.35,242.125,172.35,242.125C182.175,256.875,183.45,275.725,175.775,291.625C171.575,300.325,167.8,309.25,164.575,318.525C158.775,335.225,144.525,347.625,127.175,351.1C127.175,351.1,50.55,366.475,50.55,366.475C50.55,366.475,50.5,434.5,50.5,434.5C50.5,434.5,127.15,449.825,127.15,449.825C144.5,453.3,158.75,465.7,164.55,482.425C167.775,491.65,171.5,500.625,175.725,509.3C183.475,525.25,182.175,544.1,172.325,558.825C172.325,558.825,128.975,623.925,128.975,623.925C128.975,623.925,177.05,672.025,177.05,672.025C177.05,672.025,242.15,628.65,242.15,628.65C250.5,623.075,260.175,620.25,269.875,620.25C277.3,620.25,284.75,621.9,291.65,625.225C300.325,629.425,309.275,633.2,318.525,636.425C335.25,642.225,347.65,656.475,351.125,673.825C351.125,673.825,366.475,750.45,366.475,750.45C366.475,750.45,434.475,750.475,434.475,750.475C434.475,750.475,449.8,673.825,449.8,673.825C453.275,656.475,465.675,642.225,482.425,636.425C491.65,633.2,500.6,629.475,509.275,625.25C516.2,621.9,523.625,620.25,531.1,620.25C540.825,620.25,550.475,623.075,558.825,628.65C558.825,628.65,623.925,672.025,623.925,672.025C623.925,672.025,672.025,623.925,672.025,623.925C672.025,623.925,628.625,558.825,628.625,558.825C618.8,544.075,617.55,525.25,625.2,509.325C629.4,500.65,633.2,491.7,636.425,482.45C642.225,465.725,656.45,453.325,673.825,449.85C673.825,449.85,750.425,434.5,750.425,434.5C750.425,434.5,750.5,366.5,750.5,366.5C750.5,366.5,673.85,351.15,673.85,351.15C673.85,351.15,673.85,351.15,673.85,351.15M400.5,575.5C303.875,575.5,225.5,497.125,225.5,400.5C225.5,303.85,303.875,225.5,400.5,225.5C497.125,225.5,575.5,303.875,575.5,400.5C575.5,497.125,497.125,575.5,400.5,575.5C400.5,575.5,400.5,575.5,400.5,575.5M400.5,247.35C315.95,247.35,247.375,315.95,247.375,400.475C247.375,485.025,315.95,553.6,400.5,553.6C485.025,553.6,553.625,485.025,553.625,400.475C553.625,315.95,485.025,247.35,400.5,247.35C400.5,247.35,400.5,247.35,400.5,247.35M400.5,500.5C345.25,500.5,300.5,455.75,300.5,400.5C300.5,345.275,345.25,300.5,400.5,300.5C455.725,300.5,500.5,345.275,500.5,400.5C500.5,455.725,455.725,500.5,400.5,500.5C400.5,500.5,400.5,500.5,400.5,500.5M400.5,325.475C359.1,325.475,325.5,359.075,325.5,400.475C325.5,441.875,359.1,475.475,400.5,475.475C441.9,475.475,475.5,441.875,475.5,400.475C475.5,359.075,441.9,325.475,400.5,325.475C400.5,325.475,400.5,325.475,400.5,325.475" /><glyph unicode="&#x0055;" d="M797.538,498.591C790.613,518.566,772.838,533.192,751.437,536.367C751.437,536.367,543.28,567.318,543.28,567.318C543.28,567.318,452.802,755.174,452.802,755.174C443.277,774.899,422.901,787.525,400.501,787.525C378.1,787.525,357.724,774.899,348.199,755.174C348.199,755.174,257.721,567.318,257.721,567.318C257.721,567.318,49.54,536.367,49.54,536.367C28.164,533.192,10.388,518.566,3.488,498.591C-3.387,478.565,1.813,456.514,16.913,441.464C16.913,441.464,169.468,289.159,169.468,289.159C169.468,289.159,134.092,77.877,134.092,77.877C130.492,56.601,139.717,35.251,157.793,22.8C167.718,15.975,179.394,12.5,191.069,12.5C200.669,12.5,210.295,14.85,219.02,19.525C219.02,19.525,400.501,117.228,400.501,117.228C400.501,117.228,582.007,19.525,582.007,19.525C590.732,14.85,600.357,12.5,609.932,12.5C621.608,12.5,633.283,15.975,643.233,22.8C661.309,35.251,670.484,56.601,666.909,77.877C666.909,77.877,631.508,289.159,631.508,289.159C631.508,289.159,784.113,441.464,784.113,441.464C799.188,456.539,804.364,478.59,797.538,498.591C797.538,498.591,797.538,498.591,797.538,498.591M590.207,328.435C577.406,315.685,571.606,297.709,574.531,280.084C574.531,280.084,609.932,68.802,609.932,68.802C609.932,68.802,428.427,166.455,428.427,166.455C419.726,171.155,410.126,173.48,400.476,173.48C390.875,173.48,381.25,171.13,372.55,166.455C372.55,166.455,191.044,68.802,191.044,68.802C191.044,68.802,226.445,280.084,226.445,280.084C229.395,297.709,223.595,315.685,210.795,328.435C210.795,328.435,58.24,480.74,58.24,480.74C58.24,480.74,266.396,511.741,266.396,511.741C285.422,514.566,301.798,526.466,309.973,543.442C309.973,543.442,400.501,731.248,400.501,731.248C400.501,731.248,491.004,543.417,491.004,543.417C499.204,526.441,515.554,514.566,534.555,511.716C534.555,511.716,742.762,480.715,742.762,480.715C742.762,480.715,590.207,328.435,590.207,328.435C590.207,328.435,590.207,328.435,590.207,328.435" /><glyph unicode="&#x0056;" d="M784.775,453C784.775,453,659.775,653,659.775,653C641.525,682.225,609.475,700,575,700C575,700,100,700,100,700C44.775,700,0,655.225,0,600C0,600,0,200,0,200C0,144.775,44.775,100,100,100C100,100,575,100,575,100C609.475,100,641.5,117.775,659.775,147.025C659.775,147.025,784.775,347.025,784.775,347.025C805.075,379.4,805.075,420.575,784.775,453C784.775,453,784.775,453,784.775,453M742.375,373.525C742.375,373.525,617.375,173.475,617.375,173.475C608.2,158.775,592.325,150,575,150C575,150,100,150,100,150C72.425,150,50,172.45,50,200C50,200,50,600,50,600C50,627.575,72.425,650,100,650C100,650,575,650,575,650C592.325,650,608.2,641.2,617.375,626.525C617.375,626.525,742.375,426.525,742.375,426.525C752.45,410.4,752.45,389.6,742.375,373.525C742.375,373.525,742.375,373.525,742.375,373.525M575,475C533.55,475,500,441.425,500,400C500,358.575,533.55,325,575,325C616.4,325,650,358.6,650,400C650,441.425,616.4,475,575,475C575,475,575,475,575,475M575,349.975C547.375,349.975,525,372.375,525,399.975C525,427.575,547.375,449.975,575,449.975C602.6,449.975,625,427.575,625,399.975C625,372.4,602.6,349.975,575,349.975C575,349.975,575,349.975,575,349.975" /><glyph unicode="&#x0057;" d="M750,629.55C747.6,668.8,715.325,699.95,675.5,699.95C675.5,699.95,600.5,699.95,600.5,699.95C600.5,699.95,600.5,724.95,600.5,724.95C600.5,724.95,600.5,725,600.5,725C600.5,766.425,566.9,800,525.5,800C525.5,800,275.5,800,275.5,800C234.075,800,200.5,766.425,200.5,725C200.5,725,200.5,724.975,200.5,724.975C200.5,724.975,200.5,699.975,200.5,699.975C200.5,699.975,125.5,699.975,125.5,699.975C85.625,699.975,53.375,668.825,50.975,629.575C50.975,629.575,50.5,629.575,50.5,629.575C50.5,629.575,50.5,600,50.5,600C50.5,600,50.5,575,50.5,575C50.5,547.4,72.9,525,100.5,525C100.5,525,100.5,525,100.5,525C100.5,525,100.5,100,100.5,100C100.5,44.775,145.275,0,200.5,0C200.5,0,600.5,0,600.5,0C655.725,0,700.5,44.775,700.5,100C700.5,100,700.5,525,700.5,525C700.5,525,700.5,525,700.5,525C728.1,525,750.5,547.4,750.5,575C750.5,575,750.5,600,750.5,600C750.5,600,750.5,629.55,750.5,629.55C750.5,629.55,750,629.55,750,629.55C750,629.55,750,629.55,750,629.55M250.5,724.975C250.5,738.8,261.675,749.975,275.5,749.975C275.5,749.975,525.5,749.975,525.5,749.975C539.325,749.975,550.5,738.8,550.5,724.975C550.5,724.975,550.5,699.975,550.5,699.975C550.5,699.975,250.5,699.975,250.5,699.975C250.5,699.975,250.5,724.975,250.5,724.975C250.5,724.975,250.5,724.975,250.5,724.975M650.5,99.975C650.5,72.425,628.05,49.975,600.5,49.975C600.5,49.975,200.5,49.975,200.5,49.975C172.925,49.975,150.5,72.425,150.5,99.975C150.5,99.975,150.5,524.975,150.5,524.975C150.5,524.975,650.5,524.975,650.5,524.975C650.5,524.975,650.5,99.975,650.5,99.975C650.5,99.975,650.5,99.975,650.5,99.975M700.5,600C700.5,600,700.5,575,700.5,575C700.5,575,100.5,575,100.5,575C100.5,575,100.5,600,100.5,600C100.5,600,100.5,624.975,100.5,624.975C100.5,638.8,111.675,649.975,125.5,649.975C125.5,649.975,675.5,649.975,675.5,649.975C689.325,649.975,700.5,638.8,700.5,624.975C700.5,624.975,700.5,600,700.5,600C700.5,600,700.5,600,700.5,600M225.5,99.875C225.5,99.875,275.5,99.875,275.5,99.875C289.325,99.875,300.5,111.05,300.5,124.875C300.5,124.875,300.5,449.875,300.5,449.875C300.5,463.7,289.325,474.875,275.5,474.875C275.5,474.875,225.5,474.875,225.5,474.875C211.675,474.875,200.5,463.7,200.5,449.875C200.5,449.875,200.5,124.875,200.5,124.875C200.5,111.05,211.675,99.875,225.5,99.875C225.5,99.875,225.5,99.875,225.5,99.875M225.5,449.9C225.5,449.9,275.5,449.9,275.5,449.9C275.5,449.9,275.5,124.9,275.5,124.9C275.5,124.9,225.5,124.9,225.5,124.9C225.5,124.9,225.5,449.9,225.5,449.9C225.5,449.9,225.5,449.9,225.5,449.9M375.5,99.875C375.5,99.875,425.5,99.875,425.5,99.875C439.325,99.875,450.5,111.05,450.5,124.875C450.5,124.875,450.5,449.875,450.5,449.875C450.5,463.7,439.325,474.875,425.5,474.875C425.5,474.875,375.5,474.875,375.5,474.875C361.675,474.875,350.5,463.7,350.5,449.875C350.5,449.875,350.5,124.875,350.5,124.875C350.5,111.05,361.675,99.875,375.5,99.875C375.5,99.875,375.5,99.875,375.5,99.875M375.5,449.9C375.5,449.9,425.5,449.9,425.5,449.9C425.5,449.9,425.5,124.9,425.5,124.9C425.5,124.9,375.5,124.9,375.5,124.9C375.5,124.9,375.5,449.9,375.5,449.9C375.5,449.9,375.5,449.9,375.5,449.9M525.5,99.875C525.5,99.875,575.5,99.875,575.5,99.875C589.325,99.875,600.5,111.05,600.5,124.875C600.5,124.875,600.5,449.875,600.5,449.875C600.5,463.7,589.325,474.875,575.5,474.875C575.5,474.875,525.5,474.875,525.5,474.875C511.675,474.875,500.5,463.7,500.5,449.875C500.5,449.875,500.5,124.875,500.5,124.875C500.5,111.05,511.675,99.875,525.5,99.875C525.5,99.875,525.5,99.875,525.5,99.875M525.5,449.9C525.5,449.9,575.5,449.9,575.5,449.9C575.5,449.9,575.5,124.9,575.5,124.9C575.5,124.9,525.5,124.9,525.5,124.9C525.5,124.9,525.5,449.9,525.5,449.9C525.5,449.9,525.5,449.9,525.5,449.9" /><glyph unicode="&#x0058;" d="M778.229,91.6C773.204,94.925,682.029,154.725,546.404,184.075C596.154,247.1,628.104,331.875,641.679,388.3C660.529,466.5,653.204,619.5,578.104,714.85C534.204,770.575,472.779,800,400.479,800C328.179,800,266.754,770.55,222.879,714.85C147.779,619.525,140.479,466.525,159.304,388.325C172.879,331.9,204.804,247.125,254.579,184.1C118.954,154.75,27.779,94.95,22.779,91.625C4.454,79.425,-3.746,56.625,2.654,35.575C9.004,14.45,28.479,0,50.479,0C50.479,0,750.479,0,750.479,0C772.504,0,791.929,14.45,798.329,35.55C804.754,56.6,796.554,79.4,778.229,91.6C778.229,91.6,778.229,91.6,778.229,91.6M507.154,215.05C507.154,215.05,499.004,204.7,499.004,204.7C439.379,136.2,361.629,136.2,302.029,204.7C302.029,204.7,293.854,215.05,293.854,215.05C224.229,303.275,189.679,419.975,204.554,531.3C218.179,638.275,279.479,750,400.479,750C521.479,750,582.804,638.25,596.429,531.275C611.254,419.9,576.829,303.325,507.154,215.05C507.154,215.05,507.154,215.05,507.154,215.05M50.479,50C53.929,52.3,138.629,107.85,265.129,135.2C265.129,135.2,327.229,148.625,327.229,148.625C349.404,134.075,373.729,125,400.479,125C427.254,125,451.554,134.075,473.729,148.625C473.729,148.625,535.829,135.2,535.829,135.2C661.329,108.05,745.729,53.125,750.479,50C750.479,50,50.479,50,50.479,50C50.479,50,50.479,50,50.479,50" /><glyph unicode="&#x0059;" d="M400,800C179.071,800,0,620.929,0,400C0,179.071,179.071,0,400,0C620.929,0,800,179.071,800,400C800,620.929,620.929,800,400,800C400,800,400,800,400,800M747.742,412.903C747.742,412.903,593.006,412.903,593.006,412.903C591.587,470.065,581.419,524.671,563.381,574.658C598.219,589.187,630.426,608.516,659.794,631.355C712,572.748,744.645,496.645,747.742,412.903C747.742,412.903,747.742,412.903,747.742,412.903M385.729,52.335C342.839,88.052,306.865,134.426,280.542,188.284C314.323,198.839,350.116,204.619,387.097,205.806C387.097,205.806,387.097,52.284,387.097,52.284C386.632,52.284,386.194,52.31,385.729,52.335C385.729,52.335,385.729,52.335,385.729,52.335M414.219,747.665C462.89,707.148,502.606,652.877,529.471,589.574C492.671,577.006,453.574,569.703,412.877,568.413C412.877,568.413,412.877,747.742,412.877,747.742C413.368,747.716,413.781,747.69,414.219,747.665C414.219,747.665,414.219,747.665,414.219,747.665M457.213,743.277C528.439,731.432,592.335,698.168,642.09,650.013C615.071,629.29,585.548,611.742,553.626,598.452C530.142,654.116,497.187,703.329,457.213,743.277C457.213,743.277,457.213,743.277,457.213,743.277M387.097,747.742C387.097,747.742,387.097,568.413,387.097,568.413C346.4,569.729,307.277,577.006,270.503,589.574C297.368,652.877,337.084,707.148,385.755,747.665C386.219,747.69,386.632,747.716,387.097,747.742C387.097,747.742,387.097,747.742,387.097,747.742M246.348,598.426C214.477,611.716,184.929,629.265,157.91,649.987C207.639,698.142,271.561,731.406,342.787,743.252C302.787,703.329,269.858,654.116,246.348,598.426C246.348,598.426,246.348,598.426,246.348,598.426M260.774,565.781C300.568,551.974,342.968,543.923,387.097,542.581C387.097,542.581,387.097,412.903,387.097,412.903C387.097,412.903,232.8,412.903,232.8,412.903C234.194,466.942,243.768,518.581,260.774,565.781C260.774,565.781,260.774,565.781,260.774,565.781M387.097,387.097C387.097,387.097,387.097,231.613,387.097,231.613C346.4,230.374,307.045,223.716,269.961,211.768C247.613,264.981,234.426,324.258,232.8,387.097C232.8,387.097,387.097,387.097,387.097,387.097C387.097,387.097,387.097,387.097,387.097,387.097M342.787,56.723C278.968,67.329,221.006,95.123,173.884,135.484C199.303,153.11,226.787,168.026,256.155,179.355C278.658,132.697,308.103,91.277,342.787,56.723C342.787,56.723,342.787,56.723,342.787,56.723M412.903,52.258C412.903,52.258,412.903,205.781,412.903,205.781C449.858,204.594,485.677,198.813,519.458,188.258C493.11,134.4,457.161,88.026,414.271,52.31C413.832,52.31,413.368,52.284,412.903,52.258C412.903,52.258,412.903,52.258,412.903,52.258M543.845,179.355C573.187,168.026,600.645,153.084,626.116,135.484C578.994,95.148,521.032,67.329,457.213,56.723C491.897,91.277,521.316,132.697,543.845,179.355C543.845,179.355,543.845,179.355,543.845,179.355M530.039,211.768C492.929,223.716,453.574,230.374,412.903,231.613C412.903,231.613,412.903,387.097,412.903,387.097C412.903,387.097,567.2,387.097,567.2,387.097C565.574,324.258,552.361,264.981,530.039,211.768C530.039,211.768,530.039,211.768,530.039,211.768M412.903,412.903C412.903,412.903,412.903,542.581,412.903,542.581C457.006,543.923,499.406,551.948,539.226,565.755C556.206,518.555,565.781,466.916,567.2,412.877C567.2,412.877,412.903,412.877,412.903,412.877C412.903,412.877,412.903,412.903,412.903,412.903M140.232,631.355C169.6,608.516,201.806,589.187,236.619,574.658C218.581,524.671,208.413,470.065,206.994,412.903C206.994,412.903,52.258,412.903,52.258,412.903C55.355,496.645,88,572.748,140.232,631.355C140.232,631.355,140.232,631.355,140.232,631.355M52.258,387.097C52.258,387.097,206.994,387.097,206.994,387.097C208.594,321.161,222.374,258.89,245.781,202.916C213.084,190.168,182.606,173.187,154.477,153.084C93.884,213.394,55.639,295.845,52.258,387.097C52.258,387.097,52.258,387.097,52.258,387.097M645.523,153.11C617.394,173.187,586.916,190.194,554.194,202.942C577.626,258.916,591.381,321.187,593.006,387.123C593.006,387.123,747.742,387.123,747.742,387.123C744.361,295.845,706.09,213.394,645.523,153.11C645.523,153.11,645.523,153.11,645.523,153.11" /><glyph unicode="&#x005A;" d="M633.569,734.02C633.569,727.063,630.876,720.913,625.534,715.571C625.534,715.571,310.508,400.545,310.508,400.545C310.508,400.545,625.534,85.519,625.534,85.519C630.876,80.177,633.569,74.027,633.569,67.069C633.569,60.112,630.876,53.962,625.534,48.62C625.534,48.62,585.449,8.535,585.449,8.535C580.107,3.193,573.958,0.5,567,0.5C560.042,0.5,553.893,3.193,548.551,8.535C548.551,8.535,175.035,382.051,175.035,382.051C169.693,387.393,167,393.542,167,400.5C167,407.458,169.693,413.607,175.035,418.949C175.035,418.949,548.551,792.465,548.551,792.465C553.893,797.807,560.042,800.5,567,800.5C573.958,800.5,580.107,797.807,585.449,792.465C585.449,792.465,625.534,752.38,625.534,752.38C630.876,747.038,633.569,740.888,633.569,733.931C633.569,733.931,633.569,734.02,633.569,734.02" /><glyph unicode="&#x0061;" d="M633.517,399.955C633.517,392.998,630.824,386.849,625.483,381.508C625.483,381.508,252.009,8.034,252.009,8.034C246.668,2.693,240.519,0,233.562,0C226.605,0,220.456,2.693,215.115,8.034C215.115,8.034,175.034,48.115,175.034,48.115C169.693,53.456,167,59.605,167,66.562C167,73.519,169.693,79.668,175.034,85.009C175.034,85.009,490.025,400,490.025,400C490.025,400,175.034,714.991,175.034,714.991C169.693,720.332,167,726.481,167,733.438C167,740.395,169.693,746.544,175.034,751.885C175.034,751.885,215.115,791.966,215.115,791.966C220.456,797.307,226.605,800,233.562,800C240.519,800,246.668,797.307,252.009,791.966C252.009,791.966,625.483,418.492,625.483,418.492C630.824,413.151,633.517,407.002,633.517,400.045C633.517,400.045,633.517,399.955,633.517,399.955" /><glyph unicode="&#x0062;" d="M799.91,566.955C799.91,559.998,797.217,553.849,791.876,548.508C791.876,548.508,418.402,175.034,418.402,175.034C413.061,169.693,406.912,167,399.955,167C392.998,167,386.849,169.693,381.508,175.034C381.508,175.034,8.034,548.508,8.034,548.508C2.693,553.849,0,559.998,0,566.955C0,573.912,2.693,580.061,8.034,585.402C8.034,585.402,48.115,625.483,48.115,625.483C53.456,630.824,59.605,633.517,66.562,633.517C73.519,633.517,79.668,630.824,85.009,625.483C85.009,625.483,400,310.492,400,310.492C400,310.492,714.991,625.483,714.991,625.483C720.332,630.824,726.481,633.517,733.438,633.517C740.395,633.517,746.544,630.824,751.885,625.483C751.885,625.483,791.966,585.402,791.966,585.402C797.307,580.061,800,573.912,800,566.955C800,566.955,799.91,566.955,799.91,566.955" /><glyph unicode="&#x0063;" d="M800,233.562C800,226.605,797.307,220.456,791.966,215.115C791.966,215.115,751.885,175.034,751.885,175.034C746.544,169.693,740.395,167,733.438,167C726.481,167,720.332,169.693,714.991,175.034C714.991,175.034,400,490.025,400,490.025C400,490.025,85.009,175.034,85.009,175.034C79.668,169.693,73.519,167,66.562,167C59.605,167,53.456,169.693,48.115,175.034C48.115,175.034,8.034,215.115,8.034,215.115C2.693,220.456,0,226.605,0,233.562C0,240.519,2.693,246.668,8.034,252.009C8.034,252.009,381.508,625.483,381.508,625.483C386.849,630.824,392.998,633.517,399.955,633.517C406.912,633.517,413.061,630.824,418.402,625.483C418.402,625.483,791.876,252.009,791.876,252.009C797.217,246.668,799.91,240.519,799.91,233.562C799.91,233.562,800,233.562,800,233.562" /><glyph unicode="&#x0064;" d="M677.471,800C685.584,800,693.342,798.401,700.745,795.233C712.381,790.643,721.62,783.418,728.519,773.558C735.418,763.698,738.852,752.772,738.823,740.78C738.823,740.78,738.823,59.22,738.823,59.22C738.823,47.228,735.388,36.302,728.519,26.442C721.649,16.582,712.381,9.357,700.745,4.767C694.053,1.954,686.295,0.533,677.471,0.533C660.564,0.533,645.937,6.159,633.589,17.44C633.589,17.44,400.411,241.617,400.411,241.617C400.411,241.617,167.234,17.44,167.234,17.44C154.531,5.804,139.904,0,123.352,0C115.239,0,107.481,1.599,100.078,4.767C88.442,9.357,79.203,16.582,72.304,26.442C65.405,36.302,61.97,47.228,62,59.22C62,59.22,62,740.78,62,740.78C62,752.772,65.435,763.698,72.304,773.558C79.174,783.418,88.442,790.643,100.078,795.233C107.481,798.401,115.239,800,123.352,800C123.352,800,677.471,800,677.471,800C677.471,800,677.471,800,677.471,800" /><glyph unicode="&#x0065;" d="M671.105,732.341C671.105,732.341,129.659,732.341,129.659,732.341C129.659,732.341,129.659,75.624,129.659,75.624C129.659,75.624,400.382,335.243,400.382,335.243C400.382,335.243,447.432,290.295,447.432,290.295C447.432,290.295,671.105,75.624,671.105,75.624C671.105,75.624,671.105,732.341,671.105,732.341C671.105,732.341,671.105,732.341,671.105,732.341M677.471,800C685.584,800,693.342,798.401,700.745,795.233C712.381,790.643,721.62,783.418,728.519,773.558C735.418,763.698,738.852,752.772,738.823,740.78C738.823,740.78,738.823,59.22,738.823,59.22C738.823,47.228,735.388,36.302,728.519,26.442C721.649,16.582,712.381,9.357,700.745,4.767C694.053,1.954,686.295,0.533,677.471,0.533C660.564,0.533,645.937,6.159,633.589,17.44C633.589,17.44,400.411,241.617,400.411,241.617C400.411,241.617,167.234,17.44,167.234,17.44C154.531,5.804,139.904,0,123.352,0C115.239,0,107.481,1.599,100.078,4.767C88.442,9.357,79.203,16.582,72.304,26.442C65.405,36.302,61.97,47.228,62,59.22C62,59.22,62,740.78,62,740.78C62,752.772,65.435,763.698,72.304,773.558C79.174,783.418,88.442,790.643,100.078,795.233C107.481,798.401,115.239,800,123.352,800C123.352,800,677.471,800,677.471,800C677.471,800,677.471,800,677.471,800" /><glyph unicode="&#x0066;" d="M787.621,601.257C800.426,582.991,803.304,562.332,796.256,539.278C796.256,539.278,664.147,104.051,664.147,104.051C658.067,83.553,645.827,66.336,627.4,52.402C608.973,38.467,589.363,31.5,568.542,31.5C568.542,31.5,125.164,31.5,125.164,31.5C100.496,31.5,76.716,40.054,53.824,57.19C30.931,74.326,14.979,95.362,6.021,120.353C-1.673,141.793,-1.995,162.13,5.053,181.364C5.053,182.628,5.537,186.959,6.505,194.33C7.474,201.701,8.119,207.619,8.415,212.111C8.738,214.667,8.254,218.11,6.963,222.441C5.671,226.772,5.187,229.893,5.51,231.803C6.155,235.327,7.447,238.689,9.357,241.89C11.267,245.092,13.93,248.858,17.292,253.189C20.655,257.52,23.318,261.286,25.228,264.487C32.599,276.673,39.808,291.307,46.856,308.443C53.904,325.578,58.719,340.212,61.275,352.398C62.243,355.6,62.324,360.415,61.517,366.817C60.71,373.22,60.629,377.712,61.275,380.268C62.243,383.792,64.96,388.257,69.453,393.718C73.945,399.179,76.662,402.864,77.631,404.774C84.356,416.315,91.081,431.029,97.806,448.972C104.531,466.915,108.54,481.307,109.804,492.201C110.127,495.08,109.723,500.218,108.593,507.562C107.464,514.906,107.544,519.398,108.835,521.012C110.1,525.182,113.624,530.051,119.407,535.673C125.191,541.295,128.715,544.9,129.979,546.487C136.059,554.799,142.865,568.33,150.397,587.08C157.929,605.83,162.341,621.271,163.605,633.43C163.928,635.986,163.444,640.075,162.153,645.67C160.861,651.265,160.539,655.516,161.184,658.394C161.83,660.95,163.282,663.828,165.515,667.029C167.748,670.23,170.626,673.916,174.15,678.085C177.674,682.255,180.391,685.618,182.328,688.173C184.884,692.02,187.547,696.889,190.264,702.834C192.981,708.779,195.402,714.374,197.473,719.647C199.545,724.919,202.127,730.676,205.167,736.944C208.207,743.212,211.327,748.323,214.528,752.304C217.73,756.286,221.953,760.052,227.252,763.603C232.552,767.154,238.309,768.983,244.55,769.117C250.79,769.252,258.403,768.364,267.361,766.481C267.361,766.481,266.877,765.028,266.877,765.028C279.063,767.907,287.214,769.359,291.384,769.359C291.384,769.359,656.937,769.359,656.937,769.359C680.637,769.359,698.875,760.401,711.707,742.459C724.539,724.516,727.417,703.722,720.342,680.022C720.342,680.022,588.717,244.796,588.717,244.796C577.177,206.677,565.744,182.117,554.365,171.061C542.986,160.005,522.407,154.49,492.628,154.49C492.628,154.49,75.183,154.49,75.183,154.49C66.548,154.49,60.441,152.096,56.917,147.281C53.393,142.143,53.232,135.256,56.433,126.621C64.126,104.213,87.18,92.995,125.595,92.995C125.595,92.995,568.972,92.995,568.972,92.995C578.253,92.995,587.238,95.47,595.873,100.447C604.508,105.423,610.13,112.068,612.686,120.38C612.686,120.38,756.793,594.505,756.793,594.505C759.025,601.553,759.832,610.672,759.187,621.89C771.373,617.075,780.815,610.188,787.54,601.23C787.54,601.23,787.621,601.257,787.621,601.257M276.508,600.315C275.243,596.146,275.566,592.541,277.476,589.501C279.386,586.462,282.587,584.928,287.08,584.928C287.08,584.928,579.14,584.928,579.14,584.928C583.31,584.928,587.372,586.462,591.38,589.501C595.388,592.541,598.025,596.146,599.316,600.315C599.316,600.315,609.404,631.063,609.404,631.063C610.668,635.232,610.345,638.837,608.435,641.877C606.525,644.917,603.324,646.45,598.832,646.45C598.832,646.45,306.771,646.45,306.771,646.45C302.601,646.45,298.539,644.917,294.531,641.877C290.523,638.837,287.887,635.232,286.595,631.063C286.595,631.063,276.508,600.315,276.508,600.315M236.641,477.325C235.376,473.156,235.699,469.551,237.609,466.511C239.519,463.471,242.72,461.938,247.213,461.938C247.213,461.938,539.274,461.938,539.274,461.938C543.443,461.938,547.505,463.471,551.513,466.511C555.522,469.551,558.158,473.156,559.449,477.325C559.449,477.325,569.537,508.073,569.537,508.073C570.801,512.242,570.478,515.847,568.568,518.887C566.659,521.927,563.457,523.46,558.965,523.46C558.965,523.46,266.904,523.46,266.904,523.46C262.734,523.46,258.672,521.927,254.664,518.887C250.656,515.847,248.02,512.242,246.728,508.073C246.728,508.073,236.641,477.325,236.641,477.325" /><glyph unicode="&#x0067;" d="M677.344,353.041C677.344,353.041,677.344,200.051,677.344,200.051C677.344,161.877,663.793,129.253,636.692,102.152C609.591,75.051,576.967,61.5,538.793,61.5C538.793,61.5,138.551,61.5,138.551,61.5C100.377,61.5,67.753,75.051,40.652,102.152C13.551,129.253,0,161.877,0,200.051C0,200.051,0,600.293,0,600.293C0,638.467,13.551,671.091,40.652,698.192C67.753,725.293,100.377,738.844,138.551,738.844C138.551,738.844,538.793,738.844,538.793,738.844C558.998,738.844,577.748,734.83,595.07,726.829C599.892,724.593,602.775,720.902,603.718,715.756C604.688,710.288,603.233,705.654,599.38,701.802C599.38,701.802,575.808,678.23,575.808,678.23C572.602,675.024,568.912,673.407,564.736,673.407C563.766,673.407,562.311,673.731,560.399,674.377C553.017,676.29,545.797,677.26,538.739,677.26C538.739,677.26,138.497,677.26,138.497,677.26C117.322,677.26,99.192,669.717,84.133,654.657C69.073,639.598,61.53,621.468,61.53,600.293C61.53,600.293,61.53,200.051,61.53,200.051C61.53,178.876,69.073,160.746,84.133,145.686C99.192,130.627,117.322,123.084,138.497,123.084C138.497,123.084,538.739,123.084,538.739,123.084C559.914,123.084,578.044,130.627,593.103,145.686C608.163,160.746,615.706,178.876,615.706,200.051C615.706,200.051,615.706,322.249,615.706,322.249C615.706,326.425,617.161,329.954,620.043,332.836C620.043,332.836,650.835,363.628,650.835,363.628C654.041,366.834,657.732,368.45,661.907,368.45C663.82,368.45,665.76,367.966,667.672,366.996C674.084,364.436,677.29,359.776,677.29,353.041C677.29,353.041,677.344,353.041,677.344,353.041M788.47,588.278C788.47,588.278,396.875,196.683,396.875,196.683C389.17,188.978,380.038,185.126,369.45,185.126C358.863,185.126,349.731,188.978,342.026,196.683C342.026,196.683,135.156,403.553,135.156,403.553C127.452,411.258,123.599,420.39,123.599,430.977C123.599,441.565,127.452,450.697,135.156,458.402C135.156,458.402,188.066,511.311,188.066,511.311C195.77,519.016,204.903,522.869,215.49,522.869C226.078,522.869,235.21,519.016,242.915,511.311C242.915,511.311,369.423,384.803,369.423,384.803C369.423,384.803,680.684,696.064,680.684,696.064C688.389,703.768,697.522,707.621,708.109,707.621C718.696,707.621,727.829,703.768,735.533,696.064C735.533,696.064,788.443,643.154,788.443,643.154C796.148,635.449,800,626.317,800,615.73C800,605.142,796.148,596.01,788.443,588.305C788.443,588.305,788.47,588.278,788.47,588.278" /><glyph unicode="&#x0068;" d="M356.761,190.135C356.761,190.135,676.539,509.913,676.539,509.913C683.131,516.504,686.427,524.321,686.427,533.362C686.427,542.404,683.131,550.221,676.539,556.812C676.539,556.812,623.428,609.924,623.428,609.924C616.836,616.515,609.02,619.811,599.978,619.811C590.937,619.811,583.12,616.515,576.528,609.924C576.528,609.924,333.311,366.707,333.311,366.707C333.311,366.707,223.413,476.605,223.413,476.605C216.822,483.197,209.005,486.492,199.964,486.492C190.922,486.492,183.105,483.197,176.514,476.605C176.514,476.605,123.402,423.493,123.402,423.493C116.811,416.902,113.515,409.085,113.515,400.044C113.515,391.002,116.811,383.186,123.402,376.594C123.402,376.594,309.862,190.135,309.862,190.135C316.453,183.543,324.27,180.247,333.311,180.247C342.353,180.247,350.17,183.543,356.761,190.135C356.761,190.135,356.761,190.135,356.761,190.135M800,649.998C800,649.998,800,150.002,800,150.002C800,108.673,785.329,73.353,755.988,44.012C726.647,14.671,691.327,0,649.998,0C649.998,0,150.002,0,150.002,0C108.673,0,73.353,14.671,44.012,44.012C14.671,73.353,0,108.673,0,150.002C0,150.002,0,649.998,0,649.998C0,691.327,14.671,726.647,44.012,755.988C73.353,785.329,108.673,800,150.002,800C150.002,800,649.998,800,649.998,800C691.327,800,726.647,785.329,755.988,755.988C785.329,726.647,800,691.327,800,649.998C800,649.998,800,649.998,800,649.998" /><glyph unicode="&#x0069;" d="M636.86,727.796C636.86,727.796,164.14,727.796,164.14,727.796C139.131,727.796,117.718,718.887,99.931,701.101C82.145,683.314,73.236,661.901,73.236,636.892C73.236,636.892,73.236,164.172,73.236,164.172C73.236,139.163,82.145,117.749,99.931,99.963C117.718,82.177,139.131,73.268,164.14,73.268C164.14,73.268,636.86,73.268,636.86,73.268C661.869,73.268,683.282,82.177,701.069,99.963C718.855,117.749,727.764,139.163,727.764,164.172C727.764,164.172,727.764,636.892,727.764,636.892C727.764,661.901,718.855,683.314,701.069,701.101C683.282,718.887,661.869,727.796,636.86,727.796C636.86,727.796,636.86,727.796,636.86,727.796M800.5,636.86C800.5,636.86,800.5,164.14,800.5,164.14C800.5,119.054,784.496,80.522,752.487,48.513C720.478,16.504,681.946,0.5,636.86,0.5C636.86,0.5,164.14,0.5,164.14,0.5C119.054,0.5,80.522,16.504,48.513,48.513C16.504,80.522,0.5,119.054,0.5,164.14C0.5,164.14,0.5,636.86,0.5,636.86C0.5,681.946,16.504,720.478,48.513,752.487C80.522,784.496,119.054,800.5,164.14,800.5C164.14,800.5,636.86,800.5,636.86,800.5C681.946,800.5,720.478,784.496,752.487,752.487C784.496,720.478,800.5,681.946,800.5,636.86C800.5,636.86,800.5,636.86,800.5,636.86" /><glyph unicode="&#x006A;" d="M655.028,418.684C655.028,418.684,655.028,382.316,655.028,382.316C655.028,377.002,653.31,372.643,649.905,369.239C646.501,365.834,642.142,364.116,636.828,364.116C636.828,364.116,164.108,364.116,164.108,364.116C158.795,364.116,154.435,365.834,151.031,369.239C147.626,372.643,145.908,377.002,145.908,382.316C145.908,382.316,145.908,418.684,145.908,418.684C145.908,423.998,147.626,428.357,151.031,431.761C154.435,435.166,158.795,436.884,164.108,436.884C164.108,436.884,636.828,436.884,636.828,436.884C642.142,436.884,646.501,435.166,649.905,431.761C653.31,428.357,655.028,423.998,655.028,418.684C655.028,418.684,655.028,418.684,655.028,418.684M727.764,164.14C727.764,164.14,727.764,636.86,727.764,636.86C727.764,661.869,718.855,683.282,701.069,701.069C683.282,718.855,661.869,727.764,636.86,727.764C636.86,727.764,164.14,727.764,164.14,727.764C139.131,727.764,117.718,718.855,99.931,701.069C82.145,683.282,73.236,661.869,73.236,636.86C73.236,636.86,73.236,164.14,73.236,164.14C73.236,139.131,82.145,117.718,99.931,99.931C117.718,82.145,139.131,73.236,164.14,73.236C164.14,73.236,636.86,73.236,636.86,73.236C661.869,73.236,683.282,82.145,701.069,99.931C718.855,117.718,727.764,139.131,727.764,164.14C727.764,164.14,727.764,164.14,727.764,164.14M800.5,636.86C800.5,636.86,800.5,164.14,800.5,164.14C800.5,119.054,784.496,80.522,752.487,48.513C720.478,16.504,681.946,0.5,636.86,0.5C636.86,0.5,164.14,0.5,164.14,0.5C119.054,0.5,80.522,16.504,48.513,48.513C16.504,80.522,0.5,119.054,0.5,164.14C0.5,164.14,0.5,636.86,0.5,636.86C0.5,681.946,16.504,720.478,48.513,752.487C80.522,784.496,119.054,800.5,164.14,800.5C164.14,800.5,636.86,800.5,636.86,800.5C681.946,800.5,720.478,784.496,752.487,752.487C784.496,720.478,800.5,681.946,800.5,636.86C800.5,636.86,800.5,636.86,800.5,636.86" /><glyph unicode="&#x006B;" d="M399.971,683.331C348.578,683.331,301.181,670.643,257.78,645.297C214.379,619.95,179.991,585.562,154.645,542.161C129.299,498.76,116.611,451.364,116.611,399.971C116.611,348.578,129.299,301.181,154.645,257.78C179.991,214.379,214.379,179.991,257.78,154.645C301.181,129.299,348.578,116.611,399.971,116.611C451.364,116.611,498.76,129.299,542.161,154.645C585.562,179.991,619.95,214.379,645.297,257.78C670.643,301.181,683.331,348.578,683.331,399.971C683.331,451.364,670.643,498.76,645.297,542.161C619.95,585.562,585.562,619.95,542.161,645.297C498.76,670.643,451.364,683.331,399.971,683.331C399.971,683.331,399.971,683.331,399.971,683.331M800,400C800,327.432,782.12,260.493,746.361,199.212C710.602,137.932,662.068,89.398,600.788,53.639C539.507,17.88,472.568,0,400,0C327.432,0,260.493,17.88,199.212,53.639C137.932,89.398,89.398,137.932,53.639,199.212C17.88,260.493,0,327.432,0,400C0,472.568,17.88,539.507,53.639,600.788C89.398,662.068,137.932,710.602,199.212,746.361C260.493,782.12,327.432,800,400,800C472.568,800,539.507,782.12,600.788,746.361C662.068,710.602,710.602,662.068,746.361,600.788C782.12,539.507,800,472.568,800,400C800,400,800,400,800,400" /><glyph unicode="&#x006C;" d="M800,400C800,327.432,782.12,260.493,746.361,199.212C710.602,137.932,662.068,89.398,600.788,53.639C539.507,17.88,472.568,0,400,0C327.432,0,260.493,17.88,199.212,53.639C137.932,89.398,89.398,137.932,53.639,199.212C17.88,260.493,0,327.432,0,400C0,472.568,17.88,539.507,53.639,600.788C89.398,662.068,137.932,710.602,199.212,746.361C260.493,782.12,327.432,800,400,800C472.568,800,539.507,782.12,600.788,746.361C662.068,710.602,710.602,662.068,746.361,600.788C782.12,539.507,800,472.568,800,400C800,400,800,400,800,400" /><glyph unicode="&#x006D;" d="M628.58,486.038C628.58,444.664,614.581,406.44,586.607,371.316C558.633,336.192,520.459,308.443,472.11,288.069C423.762,267.694,371.163,257.495,314.29,257.495C288.691,257.495,262.492,259.87,235.718,264.644C198.819,238.47,157.445,219.421,111.622,207.496C100.897,204.821,88.097,202.421,73.223,200.346C73.223,200.346,71.873,200.346,71.873,200.346C68.598,200.346,65.548,201.546,62.723,203.921C59.898,206.296,58.173,209.421,57.598,213.296C57.298,214.196,57.148,215.171,57.148,216.196C57.148,217.221,57.223,218.196,57.373,219.096C57.523,219.996,57.823,220.896,58.273,221.771C58.273,221.771,59.398,223.996,59.398,223.996C59.398,223.996,59.923,224.821,60.973,226.446C62.023,228.071,62.623,228.821,62.748,228.671C62.873,228.521,63.548,229.271,64.748,230.896C65.948,232.52,66.548,233.195,66.523,232.895C67.998,234.67,71.423,238.395,76.798,244.045C82.172,249.695,86.022,254.095,88.397,257.22C90.772,260.345,94.122,264.669,98.447,270.169C102.772,275.669,106.497,281.394,109.597,287.369C112.696,293.344,115.746,299.893,118.746,307.018C81.847,328.442,52.823,354.792,31.699,386.041C10.575,417.29,0,450.614,0,486.038C0,527.411,14,565.635,41.974,600.759C69.948,635.883,108.122,663.632,156.47,684.006C204.819,704.381,257.417,714.58,314.265,714.58C371.113,714.58,423.712,704.381,472.085,684.006C520.459,663.632,558.608,635.883,586.582,600.759C614.556,565.635,628.53,527.411,628.555,486.038C628.555,486.038,628.58,486.038,628.58,486.038M800,371.741C800,336.017,789.425,302.618,768.301,271.519C747.177,240.42,718.153,214.146,681.254,192.722C684.229,185.572,687.279,179.022,690.403,173.072C693.528,167.122,697.228,161.398,701.553,155.873C705.878,150.348,709.228,146.048,711.603,142.923C713.978,139.798,717.853,135.423,723.202,129.749C728.552,124.074,731.977,120.374,733.477,118.599C733.777,118.299,734.377,117.624,735.252,116.599C736.127,115.574,736.802,114.824,737.252,114.374C737.702,113.924,738.302,113.174,739.027,112.149C739.752,111.124,740.277,110.299,740.602,109.699C740.602,109.699,741.727,107.474,741.727,107.474C741.727,107.474,742.027,106.574,742.627,104.799C743.227,103.025,743.302,102.05,742.852,101.9C742.402,101.75,742.252,100.775,742.402,99C741.502,94.825,739.577,91.55,736.602,89.175C733.627,86.8,730.352,85.75,726.777,86.05C711.903,88.125,699.103,90.525,688.378,93.2C642.555,105.099,601.181,124.149,564.282,150.348C537.508,145.573,511.309,143.198,485.71,143.198C405.062,143.198,334.815,162.848,274.991,202.121C292.266,200.946,305.34,200.346,314.265,200.346C362.189,200.346,408.162,207.046,452.211,220.446C496.259,233.845,535.533,253.045,570.057,278.044C607.256,305.418,635.83,336.967,655.78,372.691C675.729,408.415,685.704,446.214,685.679,486.088C685.679,509.012,682.254,531.611,675.404,553.935C713.803,532.811,744.152,506.312,766.476,474.463C788.8,442.614,799.95,408.39,799.95,371.791C799.95,371.791,800,371.741,800,371.741" /><glyph unicode="&#x006E;" d="M314.31,657.468C268.783,657.468,226.207,649.718,186.631,634.242C147.055,618.767,115.579,597.766,92.203,571.29C68.827,544.814,57.152,516.388,57.152,486.013C57.152,461.612,65.027,438.111,80.803,415.485C96.578,392.86,118.754,373.234,147.33,356.558C147.33,356.558,190.631,331.558,190.631,331.558C190.631,331.558,175.005,294.057,175.005,294.057C185.131,300.007,194.356,305.807,202.681,311.457C202.681,311.457,222.332,325.308,222.332,325.308C222.332,325.308,245.983,320.832,245.983,320.832C269.208,316.657,291.959,314.582,314.285,314.582C359.811,314.582,402.388,322.332,441.964,337.808C481.54,353.283,513.016,374.284,536.392,400.76C559.767,427.236,571.443,455.662,571.443,486.038C571.443,516.413,559.767,544.839,536.392,571.315C513.016,597.791,481.54,618.792,441.964,634.267C402.388,649.743,359.811,657.493,314.285,657.493C314.285,657.493,314.31,657.468,314.31,657.468M314.31,714.62C371.162,714.62,423.763,704.419,472.14,684.044C520.516,663.668,558.667,635.917,586.643,600.791C614.619,565.665,628.595,527.439,628.62,486.063C628.645,444.686,614.644,406.46,586.643,371.334C558.642,336.208,520.466,308.457,472.14,288.081C423.813,267.706,371.187,257.505,314.31,257.505C288.709,257.505,262.508,259.88,235.732,264.656C198.831,238.48,157.455,219.429,111.628,207.504C100.903,204.829,88.103,202.429,73.227,200.354C73.227,200.354,71.877,200.354,71.877,200.354C68.602,200.354,65.552,201.554,62.727,203.929C59.902,206.304,58.177,209.429,57.602,213.304C57.302,214.204,57.152,215.179,57.152,216.204C57.152,217.229,57.227,218.204,57.377,219.104C57.527,220.004,57.827,220.904,58.277,221.779C58.277,221.779,59.402,224.004,59.402,224.004C59.402,224.004,59.927,224.829,60.977,226.454C62.027,228.079,62.627,228.829,62.752,228.679C62.877,228.529,63.552,229.28,64.752,230.905C65.952,232.53,66.552,233.205,66.527,232.905C68.002,234.68,71.427,238.405,76.802,244.055C82.178,249.705,86.028,254.105,88.403,257.23C90.778,260.355,94.128,264.681,98.453,270.181C102.778,275.681,106.503,281.406,109.603,287.381C112.704,293.357,115.754,299.907,118.754,307.032C81.853,328.458,52.827,354.808,31.701,386.059C10.575,417.31,0,450.636,0,486.063C0,527.439,14,565.665,41.976,600.791C69.952,635.917,108.128,663.668,156.48,684.044C204.831,704.419,257.433,714.62,314.285,714.62C314.285,714.62,314.31,714.62,314.31,714.62M681.296,192.728C684.271,185.578,687.321,179.028,690.447,173.078C693.572,167.128,697.272,161.402,701.597,155.877C705.922,150.352,709.272,146.052,711.647,142.927C714.022,139.802,717.897,135.427,723.248,129.751C728.598,124.076,732.023,120.376,733.523,118.601C733.823,118.301,734.423,117.626,735.298,116.601C736.173,115.576,736.848,114.826,737.298,114.376C737.748,113.926,738.348,113.176,739.073,112.151C739.798,111.126,740.323,110.301,740.648,109.701C740.648,109.701,741.773,107.476,741.773,107.476C741.773,107.476,742.073,106.576,742.673,104.801C743.273,103.026,743.348,102.051,742.898,101.901C742.448,101.751,742.298,100.775,742.448,99C741.548,94.825,739.623,91.55,736.648,89.175C733.673,86.8,730.398,85.75,726.823,86.05C711.947,88.125,699.147,90.525,688.422,93.2C642.595,105.101,601.219,124.151,564.318,150.352C537.542,145.577,511.341,143.202,485.74,143.202C405.088,143.202,334.835,162.852,275.009,202.129C292.284,200.954,305.36,200.354,314.285,200.354C362.211,200.354,408.188,207.054,452.239,220.454C496.291,233.855,535.567,253.055,570.093,278.056C607.294,305.432,635.87,336.983,655.82,372.709C675.771,408.435,685.746,446.236,685.721,486.113C685.721,509.038,682.296,531.639,675.446,553.965C713.847,532.839,744.198,506.338,766.524,474.487C788.85,442.636,800,408.41,800,371.809C800,336.083,789.425,302.682,768.299,271.581C747.173,240.48,718.147,214.204,681.246,192.778C681.246,192.778,681.296,192.728,681.296,192.728" /><glyph unicode="&#x006F;" d="M799.91,412.955C799.91,405.998,797.217,399.849,791.876,394.508C791.876,394.508,418.402,21.034,418.402,21.034C413.061,15.693,406.912,13,399.955,13C392.998,13,386.849,15.693,381.508,21.034C381.508,21.034,8.034,394.508,8.034,394.508C2.693,399.849,0,405.998,0,412.955C0,419.912,2.693,426.061,8.034,431.402C8.034,431.402,48.115,471.483,48.115,471.483C53.456,476.824,59.605,479.517,66.562,479.517C73.519,479.517,79.668,476.824,85.009,471.483C85.009,471.483,400,156.492,400,156.492C400,156.492,714.991,471.483,714.991,471.483C720.332,476.824,726.481,479.517,733.438,479.517C740.395,479.517,746.544,476.824,751.885,471.483C751.885,471.483,791.966,431.402,791.966,431.402C797.307,426.061,800,419.912,800,412.955C800,412.955,799.91,412.955,799.91,412.955M799.91,720.765C799.91,713.808,797.217,707.659,791.876,702.318C791.876,702.318,418.402,328.844,418.402,328.844C413.061,323.503,406.912,320.81,399.955,320.81C392.998,320.81,386.849,323.503,381.508,328.844C381.508,328.844,8.034,702.318,8.034,702.318C2.693,707.659,0,713.808,0,720.765C0,727.722,2.693,733.871,8.034,739.212C8.034,739.212,48.115,779.293,48.115,779.293C53.456,784.634,59.605,787.327,66.562,787.327C73.519,787.327,79.668,784.634,85.009,779.293C85.009,779.293,400,464.302,400,464.302C400,464.302,714.991,779.293,714.991,779.293C720.332,784.634,726.481,787.327,733.438,787.327C740.395,787.327,746.544,784.634,751.885,779.293C751.885,779.293,791.966,739.212,791.966,739.212C797.307,733.871,800,727.722,800,720.765C800,720.765,799.91,720.765,799.91,720.765" /><glyph unicode="&#x0070;" d="M400,57.5C392.275,57.5,385.725,60.175,380.35,65.525C380.35,65.525,101.775,334.275,101.775,334.275C98.8,336.65,94.7,340.525,89.5,345.875C84.3,351.225,76.05,360.975,64.725,375.125C53.4,389.275,43.3,403.775,34.375,418.65C25.45,433.525,17.5,451.525,10.5,472.675C3.5,493.825,0,514.35,0,534.275C0,599.75,18.9,650.95,56.7,687.85C94.5,724.75,146.725,743.2,213.4,743.2C231.85,743.2,250.675,740,269.875,733.6C289.075,727.2,306.925,718.575,323.45,707.7C339.975,696.825,354.175,686.65,366.075,677.125C377.975,667.6,389.275,657.5,400,646.775C410.725,657.5,422.025,667.6,433.925,677.125C445.825,686.65,460.025,696.825,476.55,707.7C493.075,718.575,510.925,727.2,530.125,733.6C549.325,740,568.15,743.2,586.6,743.2C653.275,743.2,705.5,724.75,743.3,687.85C781.1,650.95,800,599.75,800,534.275C800,468.5,765.925,401.55,697.775,333.375C697.775,333.375,419.65,65.525,419.65,65.525C414.3,60.175,407.75,57.5,400,57.5C400,57.5,400,57.5,400,57.5" /><glyph unicode="&#x0071;" d="M576.677,198.613C579.139,192.754,578.388,187.361,574.369,182.41C574.369,182.41,412.337,4.641,412.337,4.641C409.252,1.556,405.7,0,401.681,0C397.352,0,393.645,1.556,390.559,4.641C390.559,4.641,226.22,182.41,226.22,182.41C222.201,187.361,221.449,192.754,223.912,198.613C226.686,204.472,231.171,207.402,237.342,207.402C237.342,207.402,341.042,207.402,341.042,207.402C341.042,207.402,341.042,785.171,341.042,785.171C341.042,789.5,342.442,793.052,345.216,795.826C347.99,798.6,351.542,800,355.872,800C355.872,800,444.769,800,444.769,800C449.099,800,452.65,798.6,455.424,795.826C458.198,793.052,459.598,789.5,459.598,785.171C459.598,785.171,459.598,207.402,459.598,207.402C459.598,207.402,563.299,207.402,563.299,207.402C569.78,207.402,574.266,204.472,576.728,198.613C576.728,198.613,576.677,198.613,576.677,198.613" /><glyph unicode="&#x0072;" d="M199.971,67.147C199.971,67.147,599.971,67.147,599.971,67.147C599.971,67.147,599.971,267.147,599.971,267.147C599.971,267.147,199.971,267.147,199.971,267.147C199.971,267.147,199.971,67.147,199.971,67.147C199.971,67.147,199.971,67.147,199.971,67.147M666.647,67.147C666.647,67.147,733.324,67.147,733.324,67.147C733.324,67.147,733.324,533.824,733.324,533.824C733.324,538.695,731.574,545.374,728.103,553.891C724.632,562.408,721.161,568.387,717.69,571.858C717.69,571.858,571.329,718.219,571.329,718.219C567.858,721.69,561.937,725.161,553.624,728.632C545.311,732.103,538.545,733.824,533.324,733.853C533.324,733.853,533.324,517.169,533.324,517.169C533.324,503.285,528.453,491.473,518.74,481.76C509.027,472.047,497.215,467.176,483.331,467.176C483.331,467.176,183.316,467.176,183.316,467.176C169.433,467.176,157.62,472.047,147.907,481.76C138.195,491.473,133.324,503.285,133.324,517.169C133.324,517.169,133.324,733.853,133.324,733.853C133.324,733.853,66.647,733.853,66.647,733.853C66.647,733.853,66.647,67.176,66.647,67.176C66.647,67.176,133.324,67.176,133.324,67.176C133.324,67.176,133.324,283.86,133.324,283.86C133.324,297.744,138.195,309.556,147.907,319.269C157.62,328.982,169.433,333.853,183.316,333.853C183.316,333.853,616.655,333.853,616.655,333.853C630.538,333.853,642.351,328.982,652.064,319.269C661.776,309.556,666.647,297.744,666.647,283.86C666.647,283.86,666.647,67.176,666.647,67.176C666.647,67.176,666.647,67.147,666.647,67.147M466.647,550.507C466.647,550.507,466.647,717.169,466.647,717.169C466.647,721.69,464.985,725.598,461.689,728.894C458.393,732.19,454.484,733.853,449.964,733.853C449.964,733.853,349.949,733.853,349.949,733.853C345.428,733.853,341.52,732.19,338.224,728.894C334.928,725.598,333.265,721.69,333.265,717.169C333.265,717.169,333.265,550.507,333.265,550.507C333.265,545.986,334.928,542.078,338.224,538.782C341.52,535.486,345.428,533.824,349.949,533.824C349.949,533.824,449.964,533.824,449.964,533.824C454.484,533.824,458.393,535.486,461.689,538.782C464.985,542.078,466.647,545.986,466.647,550.507C466.647,550.507,466.647,550.507,466.647,550.507M800,533.824C800,533.824,800,50.493,800,50.493C800,36.609,795.129,24.796,785.416,15.084C775.704,5.371,763.891,0.5,750.007,0.5C750.007,0.5,49.993,0.5,49.993,0.5C36.109,0.5,24.296,5.371,14.584,15.084C4.871,24.796,0,36.609,0,50.493C0,50.493,0,750.507,0,750.507C0,764.391,4.871,776.204,14.584,785.916C24.296,795.629,36.109,800.5,49.993,800.5C49.993,800.5,533.324,800.5,533.324,800.5C547.207,800.5,562.491,797.029,579.145,790.087C595.8,783.145,609.013,774.804,618.725,765.091C618.725,765.091,764.562,619.255,764.562,619.255C774.274,609.542,782.616,596.329,789.558,579.675C796.5,563.02,799.971,547.736,799.971,533.853C799.971,533.853,800,533.824,800,533.824" /><glyph unicode="&#x0073;" d="M547.124,314.672C547.124,314.672,694.234,457.473,694.234,457.473C694.234,457.473,491.339,487.278,491.339,487.278C491.339,487.278,400.473,670.922,400.473,670.922C400.473,670.922,309.607,487.278,309.607,487.278C309.607,487.278,106.713,457.473,106.713,457.473C106.713,457.473,253.822,314.672,253.822,314.672C253.822,314.672,218.714,112.262,218.714,112.262C218.714,112.262,400.446,207.948,400.446,207.948C400.446,207.948,581.694,112.262,581.694,112.262C581.694,112.262,547.124,314.672,547.124,314.672M800.473,486.308C800.473,479.254,796.3,471.554,787.981,463.235C787.981,463.235,613.464,293.053,613.464,293.053C613.464,293.053,654.818,52.654,654.818,52.654C655.141,50.42,655.302,47.216,655.302,43.043C655.302,27.023,648.733,19,635.595,19C629.51,19,623.102,20.912,616.371,24.762C616.371,24.762,400.5,138.217,400.5,138.217C400.5,138.217,184.629,24.762,184.629,24.762C177.575,20.912,171.167,19,165.405,19C158.675,19,153.613,21.315,150.248,25.973C146.882,30.631,145.186,36.312,145.186,43.043C145.186,44.954,145.509,48.158,146.155,52.654C146.155,52.654,187.509,293.053,187.509,293.053C187.509,293.053,12.508,463.235,12.508,463.235C4.512,471.877,0.5,479.578,0.5,486.308C0.5,498.182,9.465,505.532,27.423,508.412C27.423,508.412,268.764,543.52,268.764,543.52C268.764,543.52,376.942,762.273,376.942,762.273C383.027,775.411,390.888,781.98,400.5,781.98C410.112,781.98,417.973,775.411,424.058,762.273C424.058,762.273,532.236,543.52,532.236,543.52C532.236,543.52,773.577,508.412,773.577,508.412C791.535,505.532,800.5,498.155,800.5,486.308C800.5,486.308,800.473,486.308,800.473,486.308" /><glyph unicode="&#x0074;" d="M570.884,337.192C570.884,337.192,694.592,457.53,694.592,457.53C694.592,457.53,491.441,487.372,491.441,487.372C491.441,487.372,476.991,516.244,476.991,516.244C476.991,516.244,400.459,671.249,400.459,671.249C400.459,671.249,400.459,207.688,400.459,207.688C400.459,207.688,428.872,192.754,428.872,192.754C428.872,192.754,581.964,111.881,581.964,111.881C581.964,111.881,553.092,282.765,553.092,282.765C553.092,282.765,547.324,314.548,547.324,314.548C547.324,314.548,570.884,337.192,570.884,337.192M788.458,463.299C788.458,463.299,613.72,292.901,613.72,292.901C613.72,292.901,655.127,52.197,655.127,52.197C656.717,41.603,655.774,33.354,652.242,27.396C648.711,21.439,643.265,18.473,635.879,18.5C630.407,18.5,623.991,20.414,616.631,24.269C616.631,24.269,400.486,137.868,400.486,137.868C400.486,137.868,184.341,24.269,184.341,24.269C176.954,20.414,170.538,18.5,165.093,18.5C157.707,18.5,152.261,21.466,148.73,27.396C145.198,33.327,144.255,41.603,145.845,52.197C145.845,52.197,187.252,292.901,187.252,292.901C187.252,292.901,12.028,463.299,12.028,463.299C1.757,473.57,-1.936,483.113,0.949,491.955C3.833,500.797,12.486,506.323,26.936,508.561C26.936,508.561,268.583,543.713,268.583,543.713C268.583,543.713,376.898,762.743,376.898,762.743C383.314,775.898,391.186,782.476,400.486,782.476C409.463,782.476,417.334,775.898,424.074,762.743C424.074,762.743,532.389,543.713,532.389,543.713C532.389,543.713,774.036,508.561,774.036,508.561C788.485,506.323,797.139,500.77,800.023,491.955C802.908,483.14,799.053,473.57,788.458,463.299C788.458,463.299,788.458,463.299,788.458,463.299" /><glyph unicode="&#x0075;" d="M800,486.308C800,479.254,795.827,471.554,787.508,463.235C787.508,463.235,612.991,293.053,612.991,293.053C612.991,293.053,654.345,52.654,654.345,52.654C654.668,50.42,654.829,47.216,654.829,43.043C654.829,36.312,653.133,30.631,649.768,25.973C646.402,21.315,641.502,19,635.095,19C629.01,19,622.602,20.912,615.871,24.762C615.871,24.762,400,138.217,400,138.217C400,138.217,184.129,24.762,184.129,24.762C177.075,20.912,170.667,19,164.905,19C158.175,19,153.113,21.315,149.748,25.973C146.382,30.631,144.686,36.312,144.686,43.043C144.686,44.954,145.009,48.158,145.655,52.654C145.655,52.654,187.009,293.053,187.009,293.053C187.009,293.053,12.008,463.235,12.008,463.235C4.012,471.877,0,479.578,0,486.308C0,498.182,8.965,505.532,26.923,508.412C26.923,508.412,268.264,543.52,268.264,543.52C268.264,543.52,376.442,762.273,376.442,762.273C382.527,775.411,390.388,781.98,400,781.98C409.612,781.98,417.473,775.411,423.558,762.273C423.558,762.273,531.736,543.52,531.736,543.52C531.736,543.52,773.077,508.412,773.077,508.412C791.035,505.532,800,498.155,800,486.308C800,486.308,800,486.308,800,486.308" /><glyph unicode="&#x0076;" d="M237.055,631.011C237.055,649.669,230.461,665.578,217.244,678.795C204.026,692.013,188.118,698.607,169.46,698.607C150.801,698.607,134.893,692.013,121.675,678.795C108.458,665.578,101.864,649.669,101.864,631.011C101.864,612.353,108.458,596.444,121.675,583.227C134.893,570.009,150.801,563.415,169.46,563.415C188.118,563.415,204.026,570.009,217.244,583.227C230.461,596.444,237.055,612.353,237.055,631.011C237.055,631.011,237.055,631.011,237.055,631.011M800.47,326.86C800.47,308.202,793.965,292.382,780.925,279.342C780.925,279.342,521.661,19.545,521.661,19.545C507.94,6.505,491.914,0,473.61,0C454.952,0,439.132,6.505,426.092,19.545C426.092,19.545,48.55,397.62,48.55,397.62C35.155,410.66,23.801,428.431,14.486,450.963C5.172,473.495,0.5,494.075,0.5,512.733C0.5,512.733,0.5,732.404,0.5,732.404C0.5,750.708,7.183,766.557,20.578,779.922C33.973,793.288,49.792,799.97,68.096,800C68.096,800,287.767,800,287.767,800C306.425,800,327.005,795.328,349.537,786.014C372.069,776.699,390.018,765.345,403.383,751.95C403.383,751.95,780.925,374.94,780.925,374.94C793.965,361.22,800.47,345.193,800.47,326.89C800.47,326.89,800.47,326.86,800.47,326.86" /><glyph unicode="&#x0077;" d="M492.314,476.888C492.314,476.888,492.314,446.117,492.314,446.117C492.314,441.944,490.779,438.336,487.737,435.294C484.695,432.252,481.088,430.717,476.915,430.717C476.915,430.717,369.229,430.717,369.229,430.717C369.229,430.717,369.229,323.031,369.229,323.031C369.229,318.859,367.694,315.251,364.652,312.209C361.61,309.167,358.002,307.632,353.83,307.632C353.83,307.632,323.058,307.632,323.058,307.632C318.885,307.632,315.278,309.167,312.236,312.209C309.194,315.251,307.659,318.859,307.659,323.031C307.659,323.031,307.659,430.717,307.659,430.717C307.659,430.717,199.973,430.717,199.973,430.717C195.8,430.717,192.193,432.252,189.151,435.294C186.108,438.336,184.574,441.944,184.574,446.117C184.574,446.117,184.574,476.888,184.574,476.888C184.574,481.061,186.108,484.668,189.151,487.71C192.193,490.752,195.8,492.287,199.973,492.287C199.973,492.287,307.659,492.287,307.659,492.287C307.659,492.287,307.659,599.973,307.659,599.973C307.659,604.146,309.194,607.753,312.236,610.796C315.278,613.838,318.885,615.372,323.058,615.372C323.058,615.372,353.83,615.372,353.83,615.372C358.002,615.372,361.61,613.838,364.652,610.796C367.694,607.753,369.229,604.146,369.229,599.973C369.229,599.973,369.229,492.287,369.229,492.287C369.229,492.287,476.915,492.287,476.915,492.287C481.088,492.287,484.695,490.752,487.737,487.71C490.779,484.668,492.314,481.061,492.314,476.888C492.314,476.888,492.314,476.888,492.314,476.888M553.83,461.516C553.83,520.824,532.75,571.544,490.618,613.676C448.486,655.808,397.766,676.888,338.457,676.888C279.149,676.888,228.429,655.808,186.297,613.676C144.165,571.544,123.085,520.824,123.085,461.516C123.085,402.208,144.165,351.487,186.297,309.355C228.429,267.223,279.149,246.143,338.457,246.143C397.766,246.143,448.486,267.223,490.618,309.355C532.75,351.487,553.83,402.208,553.83,461.516C553.83,461.516,553.83,461.516,553.83,461.516M799.973,61.543C799.973,44.555,793.97,30.071,781.936,18.037C769.902,6.003,755.418,0,738.43,0C721.12,0,706.717,6.084,695.168,18.28C695.168,18.28,530.273,182.689,530.273,182.689C472.903,142.953,408.965,123.085,338.457,123.085C292.61,123.085,248.782,131.969,206.973,149.764C165.164,167.56,129.089,191.6,98.802,221.887C68.515,252.174,44.474,288.249,26.679,330.058C8.884,371.867,0,415.695,0,461.543C0,507.39,8.884,551.218,26.679,593.027C44.474,634.836,68.515,670.911,98.802,701.198C129.089,731.485,165.164,755.526,206.973,773.321C248.782,791.116,292.61,800,338.457,800C384.305,800,428.133,791.116,469.942,773.321C511.751,755.526,547.826,731.485,578.113,701.198C608.4,670.911,632.44,634.836,650.236,593.027C668.031,551.218,676.915,507.39,676.915,461.543C676.915,391.035,657.047,327.097,617.311,269.727C617.311,269.727,782.205,104.832,782.205,104.832C794.077,92.96,800,78.557,800,61.57C800,61.57,799.973,61.543,799.973,61.543" /><glyph unicode="&#x0078;" d="M492.314,476.888C492.314,476.888,492.314,446.117,492.314,446.117C492.314,441.944,490.779,438.336,487.737,435.294C484.695,432.252,481.088,430.717,476.915,430.717C476.915,430.717,200,430.717,200,430.717C195.827,430.717,192.22,432.252,189.178,435.294C186.135,438.336,184.601,441.944,184.601,446.117C184.601,446.117,184.601,476.888,184.601,476.888C184.601,481.061,186.135,484.668,189.178,487.71C192.22,490.752,195.827,492.287,200,492.287C200,492.287,476.915,492.287,476.915,492.287C481.088,492.287,484.695,490.752,487.737,487.71C490.779,484.668,492.314,481.061,492.314,476.888C492.314,476.888,492.314,476.888,492.314,476.888M553.83,461.516C553.83,520.824,532.75,571.544,490.618,613.676C448.486,655.808,397.766,676.888,338.457,676.888C279.149,676.888,228.429,655.808,186.297,613.676C144.165,571.544,123.085,520.824,123.085,461.516C123.085,402.208,144.165,351.487,186.297,309.355C228.429,267.223,279.149,246.143,338.457,246.143C397.766,246.143,448.486,267.223,490.618,309.355C532.75,351.487,553.83,402.208,553.83,461.516C553.83,461.516,553.83,461.516,553.83,461.516M799.973,61.543C799.973,44.555,793.97,30.071,781.936,18.037C769.902,6.003,755.418,0,738.43,0C721.12,0,706.717,6.084,695.168,18.28C695.168,18.28,530.273,182.689,530.273,182.689C472.903,142.953,408.965,123.085,338.457,123.085C292.61,123.085,248.782,131.969,206.973,149.764C165.164,167.56,129.089,191.6,98.802,221.887C68.515,252.174,44.474,288.249,26.679,330.058C8.884,371.867,0,415.695,0,461.543C0,507.39,8.884,551.218,26.679,593.027C44.474,634.836,68.515,670.911,98.802,701.198C129.089,731.485,165.164,755.526,206.973,773.321C248.782,791.116,292.61,800,338.457,800C384.305,800,428.133,791.116,469.942,773.321C511.751,755.526,547.826,731.485,578.113,701.198C608.4,670.911,632.44,634.836,650.236,593.027C668.031,551.218,676.915,507.39,676.915,461.543C676.915,391.035,657.047,327.097,617.311,269.727C617.311,269.727,782.205,104.832,782.205,104.832C794.077,92.96,800,78.557,800,61.57C800,61.57,799.973,61.543,799.973,61.543" /><glyph unicode="&#x0079;" d="M800.471,400.471C800.471,346.311,789.884,294.572,768.71,245.283C747.536,195.994,719.071,153.471,683.285,117.686C647.5,81.9,604.977,53.435,555.688,32.261C506.399,11.087,454.66,0.5,400.5,0.5C340.799,0.5,284.014,13.099,230.205,38.269C176.395,63.438,130.547,98.962,92.72,144.78C90.3,148.251,89.162,152.159,89.337,156.504C89.512,160.85,91,164.408,93.77,167.179C93.77,167.179,165.108,239.042,165.108,239.042C168.579,242.162,172.924,243.737,178.116,243.737C183.686,243.037,187.682,240.967,190.103,237.496C215.447,204.51,246.537,178.991,283.315,160.937C320.092,142.884,359.173,133.843,400.5,133.843C436.607,133.843,471.08,140.872,503.891,154.929C536.701,168.987,565.108,188.003,589.053,211.947C612.997,235.892,632.013,264.299,646.071,297.11C660.128,329.92,667.157,364.394,667.157,400.5C667.157,436.606,660.128,471.08,646.071,503.89C632.013,536.701,612.997,565.108,589.053,589.053C565.108,612.997,536.701,632.013,503.891,646.071C471.08,660.128,436.607,667.157,400.5,667.157C366.464,667.157,333.829,661.003,302.593,648.666C271.357,636.329,243.562,618.714,219.268,595.79C219.268,595.79,290.606,523.927,290.606,523.927C301.368,513.515,303.818,501.528,297.897,487.995C291.977,474.113,281.74,467.172,267.157,467.172C267.157,467.172,33.836,467.172,33.836,467.172C24.824,467.172,17.008,470.467,10.387,477.059C3.767,483.65,0.471,491.466,0.5,500.507C0.5,500.507,0.5,733.828,0.5,733.828C0.5,748.411,7.441,758.648,21.324,764.569C34.857,770.489,46.843,768.039,57.255,757.277C57.255,757.277,124.948,690.081,124.948,690.081C162.104,725.166,204.539,752.319,252.283,771.597C300.026,790.876,349.403,800.5,400.442,800.5C454.601,800.5,506.34,789.913,555.629,768.739C604.919,747.565,647.441,719.1,683.227,683.314C719.013,647.529,747.478,605.006,768.652,555.717C789.826,506.428,800.413,454.689,800.413,400.529C800.413,400.529,800.471,400.471,800.471,400.471" /></font>
</defs>
</svg>
